<svg xmlns="http://www.w3.org/2000/svg" id="486f6ef5-6b3f-4458-a290-462a6c1ff21e" data-name="Layer 1" viewBox="0 0 407 36.627"><defs><style>.eaa5beb6-0900-4424-b69d-57f6b6acd735{fill:#46ede8;}</style></defs><path d="M17.857 4.512l-5.76 26.93a4.524 4.524 0 0 0 2.736.96c5.713 0 9.217-11.424 9.217-21.12 0-6.53-2.832-9.074-7.008-9.074-7.153 0-12.578 4.368-12.578 11.665a6.695 6.695 0 0 0 .672 3.264c-3.168 0-5.136-1.2-5.136-4.464C0 6.096 8.113 0 17.857 0c9.313 0 12.818 6.48 12.818 13.825 0 11.04-6.193 22.802-13.298 22.802a9.05 9.05 0 0 1-5.856-2.545l-.38 1.92H4.23l6.53-30.53zm36.72 7.49l-3.455 16.32a6.663 6.663 0 0 0-.193 1.536 1.783 1.783 0 0 0 1.96 2.064c1.87 0 3.17-2.11 3.89-4.512h2.02c-2.74 7.825-7.06 8.88-9.65 8.88-2.69 0-4.42-1.535-4.71-4.415-1.49 2.208-3.75 4.416-7.16 4.416-3.27 0-6.39-2.01-6.39-7.72 0-6.48 3.98-16.8 12.33-16.8 2.733 0 3.89 1.06 3.89 2.45v.34l.53-2.55h6.91zM38.017 27.89c0 3.696 1.536 3.745 2.4 3.745 1.393 0 3.41-1.44 3.985-4.225l2.305-10.85a1.863 1.863 0 0 0-1.968-1.823c-4.08 0-6.72 8.64-6.72 13.153z" class="eaa5beb6-0900-4424-b69d-57f6b6acd735"/><path d="M80.737 16.177c-1.728 0-3.025 2.016-3.744 4.417l-3.265 15.41h-6.913L70.32 19.44a4.826 4.826 0 0 0 .144-1.2c0-1.055-.384-2.11-1.44-2.11-1.872 0-3.17 2.063-3.89 4.464l-3.263 15.41h-6.91L60.05 12h6.91l-.526 2.497a7.382 7.382 0 0 1 5.856-2.736 4.532 4.532 0 0 1 4.944 4.13c2.305-3.55 4.897-4.08 6.673-4.08 3.072 0 5.328 1.59 5.328 5.43 0 3.89-2.304 9.7-2.304 12.39a1.732 1.732 0 0 0 1.92 2.02c2.11 0 2.98-1.73 4.03-4.22h2.02c-2.68 7.88-6.38 8.88-8.93 8.88-4.17 0-5.66-2.68-5.66-5.42 0-3.26 2.16-9.17 2.16-12.24 0-1.58-.57-2.45-1.73-2.45z" class="eaa5beb6-0900-4424-b69d-57f6b6acd735"/><path d="M103.056 12L99.6 28.323a6.66 6.66 0 0 0-.192 1.536c0 1.34.624 1.77 1.967 1.77 1.873 0 3.6-1.83 4.32-4.23h2.017c-2.736 7.82-7.488 8.88-10.08 8.88-2.88 0-5.137-1.73-5.137-5.76a15.732 15.732 0 0 1 .384-3.12L96.14 12h6.913zm-2.16-10.224a3.85 3.85 0 0 1 3.84 3.84 3.81 3.81 0 0 1-3.84 3.793 3.77 3.77 0 0 1-3.793-3.8 3.81 3.81 0 0 1 3.793-3.84z" class="eaa5beb6-0900-4424-b69d-57f6b6acd735"/><path d="M128.737 12l-3.456 16.322a6.663 6.663 0 0 0-.19 1.536 1.783 1.783 0 0 0 1.97 2.064c1.87 0 3.17-2.11 3.89-4.512h2.02c-2.73 7.825-7.05 8.88-9.65 8.88-2.69 0-4.41-1.535-4.7-4.415-1.48 2.208-3.74 4.416-7.15 4.416-3.26 0-6.38-2.01-6.38-7.72 0-6.48 3.99-16.8 12.34-16.8 2.74 0 3.89 1.06 3.89 2.45v.34l.53-2.54h6.917zm-16.562 15.89c0 3.696 1.536 3.745 2.4 3.745 1.393 0 3.41-1.44 3.985-4.225l2.304-10.85a1.863 1.863 0 0 0-1.968-1.823c-4.08 0-6.72 8.64-6.72 13.153z" class="eaa5beb6-0900-4424-b69d-57f6b6acd735"/><path d="M143.04 16.177c-1.73 0-3.025 2.016-3.746 4.417l-3.264 15.41h-6.912L134.206 12h6.913l-.53 2.497a7.133 7.133 0 0 1 5.61-2.688c3.07 0 5.33 1.58 5.33 5.42 0 3.89-2.31 9.69-2.31 12.38a1.732 1.732 0 0 0 1.92 2.01 2.953 2.953 0 0 0 1.58-.29c-.43 3.45-2.74 4.94-5.28 4.94-3.7 0-4.85-2.69-4.85-5.43 0-3.268 2.16-9.17 2.16-12.245 0-1.58-.58-2.446-1.73-2.446zm38.784 14.258a2.705 2.705 0 0 1 2.88-2.785c1.776 0 2.448 1.44 2.448 2.785a5.997 5.997 0 0 1-6.145 5.568h-17.33l16.802-33.41c-1.01 0-2.69-.097-4.32-.097-2.26 0-4.42.192-4.42 1.056.33 0 .81.384.81 1.536a2.64 2.64 0 0 1-2.84 2.737c-1.83 0-2.45-1.49-2.45-2.833 0-2.4 2.06-4.992 5.9-4.992h16.46l-16.56 32.883c1.246 0 3.022.096 4.606.096 2.253 0 4.37-.2 4.99-1.06-.336 0-.864-.34-.864-1.49zM212.208 12l-3.457 16.322a6.663 6.663 0 0 0-.19 1.536 1.783 1.783 0 0 0 1.97 2.064c1.87 0 3.17-2.11 3.89-4.512h2.02c-2.73 7.825-7.05 8.88-9.65 8.88-2.68 0-4.41-1.535-4.7-4.415-1.49 2.208-3.74 4.416-7.15 4.416-3.26 0-6.38-2.01-6.38-7.72 0-6.48 3.99-16.8 12.34-16.8 2.74 0 3.89 1.06 3.89 2.45v.34l.53-2.54h6.918zm-16.562 15.89c0 3.696 1.536 3.745 2.4 3.745 1.392 0 3.41-1.44 3.985-4.225l2.31-10.85a1.863 1.863 0 0 0-1.97-1.823c-4.08 0-6.72 8.64-6.72 13.153z" class="eaa5beb6-0900-4424-b69d-57f6b6acd735"/><path d="M224.59 12l-3.457 16.322a5.118 5.118 0 0 0-.144 1.2c0 1.104.33 2.113 1.44 2.113 1.87 0 3.12-1.824 3.84-4.225L229.53 12h6.912l-3.456 16.322a9.16 9.16 0 0 0-.24 1.728 1.434 1.434 0 0 0 1.63 1.585c4.706 0 8.306-10.753 8.306-16.034a2.267 2.267 0 0 1-1.536.48c-1.15 0-1.726-1.39-1.726-2.44 0-1.49.96-2.59 2.976-2.59 2.303 0 3.023 2.07 3.023 4.18 0 7.68-3.89 21.08-13.68 21.08-3.12 0-5.19-1.34-5.76-4.03-2.36 3.46-4.9 4.03-6.82 4.03-2.88 0-5.14-1.72-5.14-5.76a15.73 15.73 0 0 1 .38-3.12L217.67 12h6.918zm44.592 0l-3.456 16.322a6.663 6.663 0 0 0-.192 1.536 1.783 1.783 0 0 0 1.968 2.064c1.872 0 3.168-2.11 3.888-4.512h2.017c-2.737 7.825-7.057 8.88-9.65 8.88-2.688 0-4.416-1.535-4.704-4.415-1.488 2.208-3.744 4.416-7.152 4.416-3.26 0-6.38-2.01-6.38-7.72 0-6.48 3.99-16.8 12.34-16.8 2.74 0 3.89 1.06 3.89 2.45v.34l.53-2.55h6.92zm-16.56 15.89c0 3.696 1.535 3.745 2.4 3.745 1.39 0 3.407-1.44 3.983-4.225l2.305-10.85a1.863 1.863 0 0 0-1.97-1.823c-4.08 0-6.72 8.64-6.72 13.153z" class="eaa5beb6-0900-4424-b69d-57f6b6acd735"/><path d="M290.925 28.322a7.466 7.466 0 0 0-.192 1.392 1.715 1.715 0 0 0 1.97 1.92 3.12 3.12 0 0 0 1.535-.287 5.015 5.015 0 0 1-5.28 4.944 4.69 4.69 0 0 1-4.993-3.98 8.315 8.315 0 0 1-6.817 3.99c-3.264 0-6.384-2.01-6.384-7.72 0-6.48 3.984-16.8 12.337-16.8 2.74 0 3.89 1.06 3.89 2.45v.19l2.35-11.04 7.11-.96zm-4.368-11.905a1.904 1.904 0 0 0-1.968-1.68c-4.09 0-6.73 8.64-6.73 13.153 0 3.696 1.53 3.745 2.4 3.745a4.243 4.243 0 0 0 3.74-3.457zm21.456 14.21a2.438 2.438 0 0 1 2.688-2.065 2.044 2.044 0 0 1 2.12 2.305 5.647 5.647 0 0 1-5.85 5.136h-12.72l12.24-21.41h-2.69c-1.49 0-2.64.096-2.64.768 0 .24.53-.04.53 1.06a2.447 2.447 0 0 1-2.59 2.55 2.09 2.09 0 0 1-2.21-2.11c0-1.97 2.16-4.85 5.57-4.85h12.34l-11.76 20.31c.82.05 2.35.29 3.65.29 1.15 0 2.11-.19 2.26-.96a.932.932 0 0 1-.91-1.01zM324.956 12L321.5 28.323a6.66 6.66 0 0 0-.192 1.536c0 1.34.624 1.77 1.968 1.77 1.872 0 3.6-1.83 4.32-4.23h2.017c-2.737 7.82-7.49 8.88-10.08 8.88-2.882 0-5.138-1.73-5.138-5.76a15.732 15.732 0 0 1 .384-3.12l3.26-15.4h6.91zm-2.16-10.224a3.85 3.85 0 0 1 3.84 3.84 3.81 3.81 0 0 1-3.84 3.793 3.77 3.77 0 0 1-3.793-3.8 3.81 3.81 0 0 1 3.793-3.84z" class="eaa5beb6-0900-4424-b69d-57f6b6acd735"/><path d="M339.692 16.177c-1.728 0-3.024 2.016-3.744 4.417l-3.264 15.41h-6.913L330.86 12h6.912l-.528 2.497a7.133 7.133 0 0 1 5.616-2.688c3.073 0 5.33 1.58 5.33 5.42 0 3.89-2.305 9.69-2.305 12.38a1.732 1.732 0 0 0 1.92 2.01c2.112 0 2.976-1.73 4.032-4.23h2.017c-2.69 7.87-6.385 8.88-8.93 8.88-4.175 0-5.664-2.69-5.664-5.43 0-3.267 2.16-9.17 2.16-12.24 0-1.587-.576-2.45-1.728-2.45zM344.637 0h5.04l-5.808 9.073h-3.61z" class="eaa5beb6-0900-4424-b69d-57f6b6acd735"/><path d="M372.188 27.41a28.628 28.628 0 0 1-7.344 6 10.59 10.59 0 0 1-7.537 2.88c-4.896 0-7.01-3.215-7.01-6.144a4.92 4.92 0 0 1 2.546-4.464 72.6 72.6 0 0 0 5.904-14.21l7.105-.96c.576 12.434 1.056 14.306 1.056 17.474a7.34 7.34 0 0 1-.192 1.825 26.914 26.914 0 0 0 3.456-2.4h2.016zm-18.05 2.352a1.386 1.386 0 0 1-1.295-.624c0 2.257.816 3.36 2.928 3.36 2.12 0 4.18-1.103 4.18-4.464 0-2.496-.43-3.984-.91-11.377a54.92 54.92 0 0 1-3.89 9.073 1.81 1.81 0 0 1 1.11 1.68 2.28 2.28 0 0 1-2.11 2.352z" class="eaa5beb6-0900-4424-b69d-57f6b6acd735"/><path d="M392.83 12l-9.602 6.673a8.95 8.95 0 0 1 1.584-.192c3.552 0 5.28 2.55 5.28 5.62a8.133 8.133 0 0 1-.192 1.83l-.528 2.4a7.884 7.884 0 0 0-.24 1.54 1.602 1.602 0 0 0 1.872 1.78c2.112 0 2.976-1.73 4.033-4.22h2.016c-2.737 8.07-6.625 8.88-8.833 8.88-3.936 0-6.05-1.96-6.05-5.47a12.09 12.09 0 0 1 .29-2.49l.383-1.87a8.015 8.015 0 0 0 .193-1.772c0-1.39-.48-2.302-1.73-2.302-1.103 0-2.207.67-3.55 1.778l-2.496 11.85h-6.917l6.96-32.643 7.106-.96-3.6 16.9 9.26-7.31h4.75z" class="eaa5beb6-0900-4424-b69d-57f6b6acd735"/><path d="M405.21 12l-3.456 16.322a6.663 6.663 0 0 0-.192 1.536c0 1.345.625 1.777 1.968 1.777a3.12 3.12 0 0 0 1.536-.288 5.015 5.015 0 0 1-5.28 4.944c-2.88 0-5.136-1.72-5.136-5.76a15.73 15.73 0 0 1 .384-3.12L398.298 12h6.912zm-2.16-10.224a3.85 3.85 0 0 1 3.84 3.84 3.81 3.81 0 0 1-3.84 3.793 3.77 3.77 0 0 1-3.792-3.8 3.81 3.81 0 0 1 3.792-3.84z" class="eaa5beb6-0900-4424-b69d-57f6b6acd735"/></svg>
