<svg id="486f6ef5-6b3f-4458-a290-462a6c1ff21e" data-name="Layer 1" xmlns="http://www.w3.org/2000/svg" viewBox="0 0 407 36.62695"><defs><style>.eaa5beb6-0900-4424-b69d-57f6b6acd735{fill:#46ede8;}</style></defs><title>fullname</title><path class="eaa5beb6-0900-4424-b69d-57f6b6acd735" d="M603.812,472.84277l-5.76025,26.93018a4.52351,4.52351,0,0,0,2.73584.96045c5.71289,0,9.2168-11.42529,9.2168-21.12207,0-6.52832-2.832-9.07275-7.0083-9.07275-7.15283,0-12.57715,4.36816-12.57715,11.665a6.69486,6.69486,0,0,0,.67188,3.26416c-3.168,0-5.13623-1.2002-5.13623-4.46436,0-6.57666,8.11279-12.67285,17.85742-12.67285,9.313,0,12.81738,6.48047,12.81738,13.8252,0,11.04053-6.19287,22.80176-13.29736,22.80176a9.05038,9.05038,0,0,1-5.85645-2.54443l-0.38428,1.92041h-6.9126l6.52881-30.53076Z" transform="translate(-585.95459 -468.33057)"/><path class="eaa5beb6-0900-4424-b69d-57f6b6acd735" d="M640.53223,480.33154l-3.45605,16.32129a6.66343,6.66343,0,0,0-.19238,1.53613,1.78286,1.78286,0,0,0,1.96826,2.064c1.87207,0,3.16846-2.11182,3.88818-4.51221h2.0166c-2.73633,7.82471-7.05664,8.88086-9.64893,8.88086-2.68848,0-4.4165-1.53613-4.70459-4.4165-1.48828,2.208-3.74414,4.4165-7.15234,4.4165-3.26465,0-6.38477-2.01611-6.38477-7.72852,0-6.481,3.98438-16.80176,12.33691-16.80176,2.73633,0,3.88867,1.05615,3.88867,2.44824v0.33594l0.52783-2.54395h6.9126ZM623.9707,496.2207c0,3.69629,1.53613,3.74463,2.40039,3.74463,1.39209,0,3.4082-1.44043,3.98438-4.22461l2.3042-10.84912a1.863,1.863,0,0,0-1.96826-1.82373C626.61084,483.06787,623.9707,491.7085,623.9707,496.2207Z" transform="translate(-585.95459 -468.33057)"/><path class="eaa5beb6-0900-4424-b69d-57f6b6acd735" d="M666.69141,484.50781c-1.728,0-3.02441,2.01611-3.74414,4.4165l-3.26465,15.40918H652.77l3.50439-16.56152a4.82636,4.82636,0,0,0,.144-1.2002c0-1.05615-.38379-2.11182-1.43994-2.11182-1.87207,0-3.16846,2.064-3.88867,4.46436l-3.26416,15.40918h-6.9126l5.08838-24.002h6.9126l-0.52783,2.49609a7.38234,7.38234,0,0,1,5.85645-2.73633,4.53237,4.53237,0,0,1,4.94434,4.12842c2.3042-3.55225,4.89648-4.08008,6.67285-4.08008,3.07227,0,5.32813,1.584,5.32813,5.42432,0,3.88818-2.3042,9.69678-2.3042,12.38477a1.73156,1.73156,0,0,0,1.92041,2.0166c2.11182,0,2.97607-1.72852,4.03223-4.22461h2.01611c-2.688,7.87256-6.38428,8.88086-8.92871,8.88086-4.17627,0-5.66455-2.68848-5.66455-5.42432,0-3.26465,2.16016-9.16895,2.16016-12.24121C668.41943,485.37207,667.84326,484.50781,666.69141,484.50781Z" transform="translate(-585.95459 -468.33057)"/><path class="eaa5beb6-0900-4424-b69d-57f6b6acd735" d="M689.01025,480.33154l-3.45605,16.32129a6.65931,6.65931,0,0,0-.19189,1.53613c0,1.34424.624,1.77637,1.96777,1.77637,1.87207,0,3.60059-1.82422,4.32031-4.22461h2.0166c-2.73633,7.82471-7.48877,8.88086-10.08105,8.88086-2.88037,0-5.13672-1.728-5.13672-5.76074a15.73218,15.73218,0,0,1,.38428-3.12012l3.26416-15.40918h6.9126Zm-2.16016-10.2251a3.85146,3.85146,0,0,1,3.84033,3.84033,3.81075,3.81075,0,0,1-3.84033,3.79248,3.77,3.77,0,0,1-3.79248-3.79248A3.81075,3.81075,0,0,1,686.8501,470.10645Z" transform="translate(-585.95459 -468.33057)"/><path class="eaa5beb6-0900-4424-b69d-57f6b6acd735" d="M714.69141,480.33154l-3.45605,16.32129a6.66343,6.66343,0,0,0-.19238,1.53613,1.78286,1.78286,0,0,0,1.96826,2.064c1.87207,0,3.16846-2.11182,3.88818-4.51221h2.0166c-2.73633,7.82471-7.05664,8.88086-9.64893,8.88086-2.68848,0-4.4165-1.53613-4.70459-4.4165-1.48828,2.208-3.74414,4.4165-7.15234,4.4165-3.26465,0-6.38477-2.01611-6.38477-7.72852,0-6.481,3.98438-16.80176,12.33691-16.80176,2.73633,0,3.88867,1.05615,3.88867,2.44824v0.33594l0.52783-2.54395h6.9126ZM698.12988,496.2207c0,3.69629,1.53613,3.74463,2.40039,3.74463,1.39209,0,3.4082-1.44043,3.98438-4.22461l2.3042-10.84912a1.863,1.863,0,0,0-1.96826-1.82373C700.77,483.06787,698.12988,491.7085,698.12988,496.2207Z" transform="translate(-585.95459 -468.33057)"/><path class="eaa5beb6-0900-4424-b69d-57f6b6acd735" d="M728.99365,484.50781c-1.728,0-3.02441,2.01611-3.74463,4.4165l-3.26416,15.40918h-6.9126l5.08838-24.002h6.9126l-0.52783,2.49609a7.13277,7.13277,0,0,1,5.61621-2.688c3.07227,0,5.32861,1.584,5.32861,5.42432,0,3.88818-2.3042,9.69678-2.3042,12.38477a1.73156,1.73156,0,0,0,1.92041,2.0166,2.95336,2.95336,0,0,0,1.584-.28809c-0.43213,3.45605-2.73633,4.94434-5.28027,4.94434-3.69678,0-4.84863-2.68848-4.84863-5.42432,0-3.26465,2.16016-9.16895,2.16016-12.24121C730.72168,485.37207,730.14551,484.50781,728.99365,484.50781Z" transform="translate(-585.95459 -468.33057)"/><path class="eaa5beb6-0900-4424-b69d-57f6b6acd735" d="M767.77832,498.76514a2.70454,2.70454,0,0,1,2.87988-2.78418c1.77637,0,2.44824,1.43994,2.44824,2.78418a5.99659,5.99659,0,0,1-6.14453,5.56836H749.63232l16.80176-33.41064c-1.0083,0-2.68848-.09619-4.32031-0.09619-2.25635,0-4.4165.19189-4.4165,1.05615,0.33594,0,.81592.38379,0.81592,1.53613a2.64144,2.64144,0,0,1-2.832,2.73633c-1.82422,0-2.44824-1.48828-2.44824-2.83252,0-2.3999,2.064-4.99219,5.9043-4.99219h16.46533l-16.561,32.88281c1.248,0,3.02393.0957,4.6084,0.0957,2.25586,0,4.36816-.19189,4.99219-1.05615C768.30615,500.25293,767.77832,499.917,767.77832,498.76514Z" transform="translate(-585.95459 -468.33057)"/><path class="eaa5beb6-0900-4424-b69d-57f6b6acd735" d="M798.16211,480.33154l-3.45605,16.32129a6.66343,6.66343,0,0,0-.19238,1.53613,1.78286,1.78286,0,0,0,1.96826,2.064c1.87207,0,3.16846-2.11182,3.88818-4.51221h2.0166c-2.73633,7.82471-7.05664,8.88086-9.64893,8.88086-2.68848,0-4.4165-1.53613-4.70459-4.4165-1.48828,2.208-3.74414,4.4165-7.15234,4.4165-3.26465,0-6.38477-2.01611-6.38477-7.72852,0-6.481,3.98438-16.80176,12.33691-16.80176,2.73633,0,3.88867,1.05615,3.88867,2.44824v0.33594l0.52783-2.54395h6.9126ZM781.60059,496.2207c0,3.69629,1.53613,3.74463,2.40039,3.74463,1.39209,0,3.4082-1.44043,3.98438-4.22461l2.3042-10.84912a1.863,1.863,0,0,0-1.96826-1.82373C784.24072,483.06787,781.60059,491.7085,781.60059,496.2207Z" transform="translate(-585.95459 -468.33057)"/><path class="eaa5beb6-0900-4424-b69d-57f6b6acd735" d="M810.54395,480.33154l-3.45605,16.32129a5.11756,5.11756,0,0,0-.144,1.2002c0,1.104.33594,2.1123,1.43994,2.1123,1.87207,0,3.12012-1.82422,3.84033-4.22461l3.26416-15.40918h6.9126l-3.45605,16.32129a9.16023,9.16023,0,0,0-.24023,1.728,1.43434,1.43434,0,0,0,1.63232,1.58447c4.70459,0,8.30469-10.75293,8.30469-16.03369a2.26689,2.26689,0,0,1-1.53613.48c-1.15186,0-1.728-1.39209-1.728-2.44824,0-1.48779.96-2.59229,2.97607-2.59229,2.3042,0,3.02441,2.06445,3.02441,4.17676,0,7.68066-3.88818,21.07373-13.68115,21.07373-3.12061,0-5.18457-1.34424-5.76074-4.03223-2.35205,3.45605-4.89648,4.03223-6.81641,4.03223-2.88037,0-5.13623-1.728-5.13623-5.76074a15.72851,15.72851,0,0,1,.38379-3.12012l3.26416-15.40918h6.9126Z" transform="translate(-585.95459 -468.33057)"/><path class="eaa5beb6-0900-4424-b69d-57f6b6acd735" d="M855.13672,480.33154l-3.45605,16.32129a6.66343,6.66343,0,0,0-.19238,1.53613,1.78286,1.78286,0,0,0,1.96826,2.064c1.87207,0,3.16846-2.11182,3.88818-4.51221h2.0166c-2.73633,7.82471-7.05664,8.88086-9.64893,8.88086-2.68848,0-4.4165-1.53613-4.70459-4.4165-1.48828,2.208-3.74414,4.4165-7.15234,4.4165-3.26465,0-6.38477-2.01611-6.38477-7.72852,0-6.481,3.98438-16.80176,12.33691-16.80176,2.73633,0,3.88867,1.05615,3.88867,2.44824v0.33594l0.52783-2.54395h6.9126ZM838.5752,496.2207c0,3.69629,1.53613,3.74463,2.40039,3.74463,1.39209,0,3.4082-1.44043,3.98438-4.22461l2.3042-10.84912a1.863,1.863,0,0,0-1.96826-1.82373C841.21533,483.06787,838.5752,491.7085,838.5752,496.2207Z" transform="translate(-585.95459 -468.33057)"/><path class="eaa5beb6-0900-4424-b69d-57f6b6acd735" d="M876.87988,496.65283a7.46582,7.46582,0,0,0-.19189,1.39209,1.71548,1.71548,0,0,0,1.96826,1.92041,3.12018,3.12018,0,0,0,1.53613-.28809,5.0154,5.0154,0,0,1-5.28076,4.94434,4.69077,4.69077,0,0,1-4.99219-3.98437,8.31494,8.31494,0,0,1-6.81689,3.98438c-3.26416,0-6.38428-2.01611-6.38428-7.72852,0-6.481,3.98438-16.80176,12.33691-16.80176,2.73633,0,3.88867,1.05615,3.88867,2.44824v0.19189l2.35205-11.041,7.10449-.96ZM872.51172,484.748a1.90448,1.90448,0,0,0-1.96826-1.68018c-4.08057,0-6.7207,8.64063-6.7207,13.15283,0,3.69629,1.53613,3.74463,2.40039,3.74463a4.24293,4.24293,0,0,0,3.74414-3.45654Z" transform="translate(-585.95459 -468.33057)"/><path class="eaa5beb6-0900-4424-b69d-57f6b6acd735" d="M893.96777,498.957a2.43786,2.43786,0,0,1,2.688-2.064,2.04411,2.04411,0,0,1,2.1123,2.3042,5.64653,5.64653,0,0,1-5.85645,5.13623H880.19043l12.24121-21.40967h-2.68848c-1.48828,0-2.64014.0957-2.64014,0.76807,0,0.23975.52783-.04834,0.52783,1.05615a2.447,2.447,0,0,1-2.5918,2.54395,2.08919,2.08919,0,0,1-2.2085-2.1123c0-1.96777,2.16016-4.84814,5.56836-4.84814h12.3374L888.9751,500.63721c0.81592,0.04785,2.35205.28809,3.64844,0.28809,1.15186,0,2.1123-.19189,2.25635-0.96A0.932,0.932,0,0,1,893.96777,498.957Z" transform="translate(-585.95459 -468.33057)"/><path class="eaa5beb6-0900-4424-b69d-57f6b6acd735" d="M910.91064,480.33154l-3.45605,16.32129a6.65931,6.65931,0,0,0-.19189,1.53613c0,1.34424.624,1.77637,1.96777,1.77637,1.87207,0,3.60059-1.82422,4.32031-4.22461h2.0166c-2.73633,7.82471-7.48877,8.88086-10.08105,8.88086-2.88037,0-5.13672-1.728-5.13672-5.76074a15.73218,15.73218,0,0,1,.38428-3.12012l3.26416-15.40918h6.9126Zm-2.16016-10.2251a3.85146,3.85146,0,0,1,3.84033,3.84033,3.81075,3.81075,0,0,1-3.84033,3.79248,3.77,3.77,0,0,1-3.79248-3.79248A3.81075,3.81075,0,0,1,908.75049,470.10645Z" transform="translate(-585.95459 -468.33057)"/><path class="eaa5beb6-0900-4424-b69d-57f6b6acd735" d="M925.647,484.50781c-1.728,0-3.02441,2.01611-3.74463,4.4165l-3.26416,15.40918h-6.9126l5.08838-24.002h6.9126l-0.52783,2.49609a7.13277,7.13277,0,0,1,5.61621-2.688c3.07227,0,5.32861,1.584,5.32861,5.42432,0,3.88818-2.3042,9.69678-2.3042,12.38477a1.73156,1.73156,0,0,0,1.92041,2.0166c2.11182,0,2.97607-1.72852,4.03223-4.22461h2.01611c-2.68848,7.87256-6.38477,8.88086-8.92871,8.88086-4.17627,0-5.66455-2.68848-5.66455-5.42432,0-3.26465,2.16016-9.16895,2.16016-12.24121C927.375,485.37207,926.79883,484.50781,925.647,484.50781Zm4.94434-16.17725h5.04053l-5.80859,9.07275h-3.60059Z" transform="translate(-585.95459 -468.33057)"/><path class="eaa5beb6-0900-4424-b69d-57f6b6acd735" d="M958.14258,495.74072a28.62755,28.62755,0,0,1-7.34424,6.00049,10.58876,10.58876,0,0,1-7.53662,2.88037c-4.89648,0-7.00879-3.21631-7.00879-6.14453a4.91907,4.91907,0,0,1,2.54443-4.46436,72.59985,72.59985,0,0,0,5.9043-14.20947l7.10449-.96c0.57617,12.43311,1.05615,14.30518,1.05615,17.47363a7.33857,7.33857,0,0,1-.19189,1.82422,26.91447,26.91447,0,0,0,3.45605-2.40039h2.01611Zm-18.04932,2.35205a1.38552,1.38552,0,0,1-1.2959-.624c0,2.25635.81592,3.36035,2.92822,3.36035,2.11182,0,4.17627-1.104,4.17627-4.46436,0-2.49609-.43213-3.98437-0.91211-11.377a54.92014,54.92014,0,0,1-3.88818,9.07275,1.81076,1.81076,0,0,1,1.104,1.68018A2.27974,2.27974,0,0,1,940.09326,498.09277Z" transform="translate(-585.95459 -468.33057)"/><path class="eaa5beb6-0900-4424-b69d-57f6b6acd735" d="M978.7832,480.33154l-9.60107,6.67236a8.94949,8.94949,0,0,1,1.584-.19189c3.55225,0,5.28076,2.54443,5.28076,5.6167a8.13332,8.13332,0,0,1-.19238,1.82373l-0.52783,2.40039a7.88419,7.88419,0,0,0-.24023,1.53613,1.60176,1.60176,0,0,0,1.87256,1.77637c2.11182,0,2.97607-1.72852,4.03223-4.22461h2.01611c-2.73633,8.06494-6.62451,8.88086-8.83252,8.88086-3.93652,0-6.04883-1.96826-6.04883-5.47266a12.09032,12.09032,0,0,1,.28809-2.49609l0.38379-1.87207a8.01494,8.01494,0,0,0,.19238-1.77637c0-1.39209-.48-2.3042-1.72852-2.3042-1.104,0-2.208.67236-3.55225,1.77637l-2.49609,11.85693h-6.9126l6.96045-32.64307,7.105-.96-3.60059,16.89746,9.26514-7.29639h4.75244Z" transform="translate(-585.95459 -468.33057)"/><path class="eaa5beb6-0900-4424-b69d-57f6b6acd735" d="M991.165,480.33154L987.709,496.65283a6.66343,6.66343,0,0,0-.19238,1.53613c0,1.34424.62451,1.77637,1.96826,1.77637a3.11871,3.11871,0,0,0,1.53613-.28809,5.01473,5.01473,0,0,1-5.28027,4.94434c-2.88037,0-5.13623-1.728-5.13623-5.76074a15.72851,15.72851,0,0,1,.38379-3.12012l3.26416-15.40918h6.9126Zm-2.16016-10.2251a3.85146,3.85146,0,0,1,3.84033,3.84033,3.81075,3.81075,0,0,1-3.84033,3.79248,3.76954,3.76954,0,0,1-3.792-3.79248A3.81033,3.81033,0,0,1,989.00488,470.10645Z" transform="translate(-585.95459 -468.33057)"/></svg>
