<svg id="c7923570-e5a2-4101-ab92-f8afa011a59e" data-name="Layer 1" xmlns="http://www.w3.org/2000/svg" width="142" height="21" viewBox="0 0 142 21"><defs><style>.e5932e7e-ec86-4398-87c9-e7c7761060a1{fill:#46ede8;}</style></defs><title>logo</title><path class="e5932e7e-ec86-4398-87c9-e7c7761060a1" d="M772.6958,572.21631a1.5776,1.5776,0,0,1,1.67969-1.624,1.44542,1.44542,0,0,1,1.42822,1.624,3.49782,3.49782,0,0,1-3.584,3.248H762.11182l9.7998-19.48779c-0.58789,0-1.56787-.05615-2.52-0.05615-1.31592,0-2.57568.11182-2.57568,0.61621,0.1958,0,.47559.22363,0.47559,0.896a1.54047,1.54047,0,0,1-1.65186,1.5957,1.452,1.452,0,0,1-1.42773-1.65186,3.13317,3.13317,0,0,1,3.44385-2.91211h9.604l-9.66016,19.18018c0.728,0,1.76416.05566,2.688,0.05566,1.31592,0,2.54785-.11182,2.91211-0.61572C773.00391,573.08447,772.6958,572.88818,772.6958,572.21631Z" transform="translate(-762.11182 -554.46436)"/><path class="e5932e7e-ec86-4398-87c9-e7c7761060a1" d="M790.41943,561.46436l-2.01611,9.52a3.88443,3.88443,0,0,0-.11182.896,1.03992,1.03992,0,0,0,1.14795,1.2041c1.0918,0,1.84814-1.23193,2.26807-2.63232h1.17578c-1.5957,4.56445-4.11572,5.18018-5.62793,5.18018a2.57173,2.57173,0,0,1-2.74414-2.57617,5.06508,5.06508,0,0,1-4.17187,2.57617c-1.90381,0-3.72363-1.17578-3.72363-4.50781,0-3.78027,2.32373-9.80029,7.1958-9.80029,1.5957,0,2.26807.61621,2.26807,1.42822v0.1958l0.30811-1.48389h4.03174Zm-9.66016,9.26807c0,2.15576.896,2.18408,1.40039,2.18408a2.81673,2.81673,0,0,0,2.32373-2.46436l1.34424-6.32764a1.08664,1.08664,0,0,0-1.14795-1.064C782.29932,563.06055,780.75928,568.10059,780.75928,570.73242Z" transform="translate(-762.11182 -554.46436)"/><path class="e5932e7e-ec86-4398-87c9-e7c7761060a1" d="M797.64307,561.46436l-2.01611,9.52a2.98371,2.98371,0,0,0-.084.7002,0.99232,0.99232,0,0,0,.83984,1.23193c1.09229,0,1.82031-1.064,2.24023-2.46436l1.90381-8.98779h4.03223l-2.01611,9.52a5.348,5.348,0,0,0-.14014,1.00781,0.8368,0.8368,0,0,0,.95215.92432c2.74414,0,4.84375-6.272,4.84375-9.35205a1.32288,1.32288,0,0,1-.896.27979,1.29363,1.29363,0,0,1-1.00781-1.42773,1.49718,1.49718,0,0,1,1.73584-1.51221c1.34424,0,1.76416,1.2041,1.76416,2.436,0,4.48-2.26807,12.292-7.98,12.292-1.81982,0-3.02393-.78418-3.35986-2.35205a4.57162,4.57162,0,0,1-3.97607,2.35205c-1.68018,0-2.99609-1.00781-2.99609-3.35986a9.179,9.179,0,0,1,.22412-1.82031l1.90381-8.98779h4.03223Z" transform="translate(-762.11182 -554.46436)"/><path class="e5932e7e-ec86-4398-87c9-e7c7761060a1" d="M823.65479,561.46436l-2.01611,9.52a3.88443,3.88443,0,0,0-.11182.896,1.03992,1.03992,0,0,0,1.14795,1.2041c1.0918,0,1.84814-1.23193,2.26807-2.63232h1.17578c-1.5957,4.56445-4.11572,5.18018-5.62793,5.18018a2.57173,2.57173,0,0,1-2.74414-2.57617,5.06508,5.06508,0,0,1-4.17187,2.57617c-1.90381,0-3.72363-1.17578-3.72363-4.50781,0-3.78027,2.32373-9.80029,7.1958-9.80029,1.5957,0,2.26807.61621,2.26807,1.42822v0.1958l0.30811-1.48389h4.03174Zm-9.66016,9.26807c0,2.15576.896,2.18408,1.40039,2.18408a2.81673,2.81673,0,0,0,2.32373-2.46436l1.34424-6.32764a1.08664,1.08664,0,0,0-1.14795-1.064C815.53467,563.06055,813.99463,568.10059,813.99463,570.73242Z" transform="translate(-762.11182 -554.46436)"/><path class="e5932e7e-ec86-4398-87c9-e7c7761060a1" d="M836.33838,570.98438a4.32615,4.32615,0,0,0-.11182.812,1.00045,1.00045,0,0,0,1.14795,1.12012,1.82009,1.82009,0,0,0,.896-0.168,2.92546,2.92546,0,0,1-3.08008,2.88379,2.73619,2.73619,0,0,1-2.91211-2.32373,4.85,4.85,0,0,1-3.97607,2.32373c-1.90381,0-3.72363-1.17578-3.72363-4.50781,0-3.78027,2.32373-9.80029,7.1958-9.80029,1.5957,0,2.26807.61621,2.26807,1.42822v0.11182l1.37207-6.43994,4.14355-.56006Zm-2.54785-6.94385a1.11088,1.11088,0,0,0-1.14795-.98c-2.38037,0-3.92041,5.04-3.92041,7.67188,0,2.15576.896,2.18408,1.40039,2.18408a2.474,2.474,0,0,0,2.18359-2.01611Z" transform="translate(-762.11182 -554.46436)"/><path class="e5932e7e-ec86-4398-87c9-e7c7761060a1" d="M846.30664,572.32813a1.42175,1.42175,0,0,1,1.56787-1.20361,1.1923,1.1923,0,0,1,1.23193,1.34375,3.29341,3.29341,0,0,1-3.416,2.99609h-7.41992l7.14014-12.48779h-1.56836c-0.86768,0-1.53955.05566-1.53955,0.44775,0,0.14014.30762-.02783,0.30762,0.61621a1.42741,1.42741,0,0,1-1.51172,1.48389,1.21849,1.21849,0,0,1-1.28809-1.23193,3.21862,3.21862,0,0,1,3.248-2.82812h7.1958l-6.85986,11.84424c0.47607,0.02783,1.37207.168,2.12793,0.168,0.67188,0,1.23193-.1123,1.31592-0.56006A0.54367,0.54367,0,0,1,846.30664,572.32813Z" transform="translate(-762.11182 -554.46436)"/><path class="e5932e7e-ec86-4398-87c9-e7c7761060a1" d="M856.19043,561.46436l-2.01611,9.52a3.88443,3.88443,0,0,0-.11182.896,0.92708,0.92708,0,0,0,1.14795,1.03613c1.0918,0,2.1001-1.064,2.52-2.46436h1.17578c-1.5957,4.56445-4.36768,5.18018-5.87988,5.18018-1.68018,0-2.99609-1.00781-2.99609-3.35986a9.179,9.179,0,0,1,.22412-1.82031l1.90381-8.98779h4.03223Zm-1.26025-5.96387a2.24634,2.24634,0,0,1,2.24023,2.23975,2.22276,2.22276,0,0,1-2.24023,2.2124,2.19893,2.19893,0,0,1-2.21191-2.2124A2.22255,2.22255,0,0,1,854.93018,555.50049Z" transform="translate(-762.11182 -554.46436)"/><path class="e5932e7e-ec86-4398-87c9-e7c7761060a1" d="M864.78662,563.90039c-1.0083,0-1.76416,1.17578-2.18408,2.57617l-1.9043,8.98779H856.6665l2.96777-14h4.03223l-0.30811,1.45605a4.16028,4.16028,0,0,1,3.27588-1.56787,2.83128,2.83128,0,0,1,3.10791,3.16406c0,2.26758-1.34375,5.65576-1.34375,7.22363a1.00987,1.00987,0,0,0,1.12012,1.17627c1.23193,0,1.73584-1.0083,2.35205-2.46436h1.17578c-1.56787,4.59229-3.72412,5.18018-5.208,5.18018a2.97192,2.97192,0,0,1-3.30371-3.16406c0-1.90381,1.25977-5.34766,1.25977-7.13965C865.79443,564.4043,865.4585,563.90039,864.78662,563.90039Zm2.88379-9.436h2.93994l-3.3877,5.292h-2.1001Z" transform="translate(-762.11182 -554.46436)"/><path class="e5932e7e-ec86-4398-87c9-e7c7761060a1" d="M883.74219,570.45215a16.69543,16.69543,0,0,1-4.28418,3.5,6.17426,6.17426,0,0,1-4.396,1.68018c-2.856,0-4.08789-1.876-4.08789-3.584a2.87009,2.87009,0,0,1,1.48389-2.604,42.35016,42.35016,0,0,0,3.44434-8.28809l4.14355-.56006c0.33594,7.25244.61621,8.34424,0.61621,10.19238a4.28242,4.28242,0,0,1-.11182,1.064,15.67653,15.67653,0,0,0,2.01563-1.40039h1.17627Zm-10.52832,1.37207a0.80877,0.80877,0,0,1-.75586-0.36377c0,1.31592.47607,1.96,1.708,1.96a2.2946,2.2946,0,0,0,2.436-2.604c0-1.45605-.252-2.32422-0.53174-6.63623a32.03825,32.03825,0,0,1-2.26807,5.292,1.05733,1.05733,0,0,1,.644.98A1.33,1.33,0,0,1,873.21387,571.82422Z" transform="translate(-762.11182 -554.46436)"/><path class="e5932e7e-ec86-4398-87c9-e7c7761060a1" d="M895.78125,561.46436l-5.59961,3.89209a5.183,5.183,0,0,1,.92383-0.11182,2.975,2.975,0,0,1,3.08008,3.27588,4.74882,4.74882,0,0,1-.1123,1.064l-0.30762,1.3999a4.59036,4.59036,0,0,0-.14014.896,0.93408,0.93408,0,0,0,1.0918,1.03613c1.23193,0,1.73584-1.0083,2.35205-2.46436h1.17578c-1.5957,4.7041-3.86377,5.18018-5.15186,5.18018-2.2959,0-3.52783-1.14795-3.52783-3.19189a7.06031,7.06031,0,0,1,.168-1.45605l0.22412-1.0918a4.67722,4.67722,0,0,0,.11182-1.03613c0-.812-0.27979-1.34424-1.00781-1.34424a3.52258,3.52258,0,0,0-2.07227,1.03613l-1.45605,6.916h-4.03174l4.06006-19.04,4.144-.56006-2.1001,9.856,5.40381-4.25586h2.772Z" transform="translate(-762.11182 -554.46436)"/><path class="e5932e7e-ec86-4398-87c9-e7c7761060a1" d="M903.00537,561.46436l-2.01611,9.52a3.88443,3.88443,0,0,0-.11182.896,0.92708,0.92708,0,0,0,1.14795,1.03613,1.82009,1.82009,0,0,0,.896-0.168,2.92519,2.92519,0,0,1-3.08008,2.88379c-1.68018,0-2.99609-1.00781-2.99609-3.35986a9.179,9.179,0,0,1,.22412-1.82031l1.90381-8.98779h4.03223Zm-1.26025-5.96387a2.24634,2.24634,0,0,1,2.24023,2.23975,2.22276,2.22276,0,0,1-2.24023,2.2124,2.19893,2.19893,0,0,1-2.21191-2.2124A2.22255,2.22255,0,0,1,901.74512,555.50049Z" transform="translate(-762.11182 -554.46436)"/></svg>
