<svg id="84fde1ce-a13c-4c7b-9e12-2b0bbae6c092" data-name="Layer 1" xmlns="http://www.w3.org/2000/svg" viewBox="0 0 558.72784 70.5"><defs><style>.\30 8927df1-815f-4ed9-9e51-1fb25589e2d6,.\32 1ab6274-4c8e-4ecb-a03a-423f7067a8c4{fill:#fff;}.\30 8927df1-815f-4ed9-9e51-1fb25589e2d6{fill-rule:evenodd;}</style></defs><title>logo</title><g id="173b50a9-c3e7-45c9-9a00-13262536c265" data-name="Rectangle 2 copy 4"><polygon class="08927df1-815f-4ed9-9e51-1fb25589e2d6" points="37.213 15.75 31.274 31.5 65.2 31.5 71.139 15.75 37.213 15.75"/></g><g id="581b20f8-8555-47e6-a33c-6c977c4f2a4a" data-name="Rectangle 2 copy 5"><polygon class="08927df1-815f-4ed9-9e51-1fb25589e2d6" points="48.632 31.5 41.279 51 57.847 51 65.2 31.5 48.632 31.5"/></g><g id="e7409fcc-687b-446e-84f1-3491f4f92773" data-name="Rectangle 2 copy 6"><polygon class="08927df1-815f-4ed9-9e51-1fb25589e2d6" points="13.292 35.25 7.353 51 41.279 51 47.218 35.25 13.292 35.25"/></g><g id="0817b1a2-9b3e-4217-ab5a-c88a2ad7ad78" data-name="Rectangle 2 copy 7"><polygon class="08927df1-815f-4ed9-9e51-1fb25589e2d6" points="7.353 51 0 70.5 16.569 70.5 23.921 51 7.353 51"/></g><g id="f2a31b7a-cdd6-40f6-b121-c6f20d32c50e" data-name="Rectangle 2 copy 8"><polygon class="08927df1-815f-4ed9-9e51-1fb25589e2d6" points="22.507 54.75 16.569 70.5 50.495 70.5 56.433 54.75 22.507 54.75"/></g><g id="d7673614-248f-4363-98fa-ccbd78152d5f" data-name="Shape 1 copy 2"><polygon class="21ab6274-4c8e-4ecb-a03a-423f7067a8c4" points="36.689 16.116 36.818 15.751 14.71 31.498 31.274 31.5 37.213 15.75 36.689 16.116"/></g><g id="f9ab261a-37ea-4efa-a038-8dd5946e6cd2" data-name="Rectangle 2 copy 9"><polygon class="08927df1-815f-4ed9-9e51-1fb25589e2d6" points="109.01 15.75 95.718 51 112.287 51 125.579 15.75 109.01 15.75"/></g><g id="6e1ba1c4-823b-4cea-ab70-6bd25add9820" data-name="Rectangle 2 copy 10"><polygon class="08927df1-815f-4ed9-9e51-1fb25589e2d6" points="75.084 15.75 69.145 31.5 103.071 31.5 109.01 15.75 75.084 15.75"/></g><g id="c9c70784-e72f-4ae4-8826-092120050a28" data-name="Rectangle 2 copy 11"><polygon class="08927df1-815f-4ed9-9e51-1fb25589e2d6" points="69.145 31.5 54.44 70.5 71.008 70.5 85.714 31.5 69.145 31.5"/></g><g id="9ad82543-db74-4997-a5b9-030d39ec10d4" data-name="Rectangle 2 copy 12"><polygon class="08927df1-815f-4ed9-9e51-1fb25589e2d6" points="69.846 54.75 63.907 70.5 104.934 70.5 110.873 54.75 69.846 54.75"/></g><g id="d11f8af4-aa06-4aad-b993-b402cbcd29db" data-name="Rectangle 2 copy 28"><polygon class="08927df1-815f-4ed9-9e51-1fb25589e2d6" points="114.818 54.75 108.879 70.5 166.474 70.5 172.413 54.75 114.818 54.75"/></g><g id="2885f0ee-5f04-4c87-b2e7-75acc29fa185" data-name="Shape 1 copy 3"><polygon class="08927df1-815f-4ed9-9e51-1fb25589e2d6" points="82.309 50.998 95.718 51 101.657 35.25 82.309 50.998"/></g><g id="feb980e2-9667-4b2b-a8fd-baaf4e80d237" data-name="Rectangle 2 copy 13"><polygon class="08927df1-815f-4ed9-9e51-1fb25589e2d6" points="150.037 15.75 129.392 70.5 145.961 70.5 166.606 15.75 150.037 15.75"/></g><g id="30f942ea-44e8-4ead-9114-721b9848dc49" data-name="Rectangle 2 copy 14"><polygon class="08927df1-815f-4ed9-9e51-1fb25589e2d6" points="129.524 15.75 108.879 70.5 125.448 70.5 146.092 15.75 129.524 15.75"/></g><g id="0548223e-b87f-4b2a-bc47-a08590b16a75" data-name="Rectangle 2 copy 15"><polygon class="08927df1-815f-4ed9-9e51-1fb25589e2d6" points="170.55 15.75 149.906 70.5 166.474 70.5 187.119 15.75 170.55 15.75"/></g><g id="72c255e0-b3e6-482d-860f-b8ab9787ee94" data-name="Rectangle 2 copy 9"><polygon class="08927df1-815f-4ed9-9e51-1fb25589e2d6" points="224.99 15.75 211.698 51 228.267 51 241.558 15.75 224.99 15.75"/></g><g id="6244e5ba-259b-4951-9ff5-86d7e924b418" data-name="Rectangle 2 copy 10"><polygon class="08927df1-815f-4ed9-9e51-1fb25589e2d6" points="191.064 15.75 185.125 31.5 219.051 31.5 224.99 15.75 191.064 15.75"/></g><g id="d24c486a-560f-4b37-9878-8d7ee5ed1612" data-name="Rectangle 2 copy 11"><polygon class="08927df1-815f-4ed9-9e51-1fb25589e2d6" points="185.125 31.5 170.419 70.5 186.988 70.5 201.694 31.5 185.125 31.5"/></g><g id="83419e67-c957-4a80-b8b9-c045944f0fb9" data-name="Rectangle 2 copy 12"><polygon class="08927df1-815f-4ed9-9e51-1fb25589e2d6" points="185.826 54.75 179.887 70.5 220.914 70.5 226.853 54.75 185.826 54.75"/></g><g id="1ffc8615-aab6-4127-9104-f31693710406" data-name="Shape 1 copy 3"><polygon class="08927df1-815f-4ed9-9e51-1fb25589e2d6" points="198.289 50.998 211.698 51 217.637 35.25 198.289 50.998"/></g><g id="865a2299-c6a4-44e1-9677-453e0bfaa5b5" data-name="Rectangle 2"><polygon class="08927df1-815f-4ed9-9e51-1fb25589e2d6" points="245.503 15.75 239.565 31.5 269.546 31.5 275.485 15.75 245.503 15.75"/></g><g id="8024dc7b-831e-49f9-98db-9506ff60d1f3" data-name="Rectangle 2 copy"><polygon class="08927df1-815f-4ed9-9e51-1fb25589e2d6" points="239.565 31.5 224.859 70.5 241.427 70.5 256.133 31.5 239.565 31.5"/></g><g id="d4b172a7-6a2c-4fbf-a79d-944c4bfa6a94" data-name="Rectangle 2 copy 2"><polygon class="08927df1-815f-4ed9-9e51-1fb25589e2d6" points="247.366 54.75 241.427 70.5 275.354 70.5 281.292 54.75 247.366 54.75"/></g><g id="14e3e778-a28e-45b8-8a9b-c90cd7bbaef2" data-name="Rectangle 2 copy 3"><polygon class="08927df1-815f-4ed9-9e51-1fb25589e2d6" points="279.429 15.75 264.724 54.75 281.292 54.75 295.998 15.75 279.429 15.75"/></g><g id="d60a55a7-8cbb-4960-9f2f-22f18957ea0e" data-name="Shape 1"><polygon class="21ab6274-4c8e-4ecb-a03a-423f7067a8c4" points="279.434 15.748 295.998 15.75 301.937 0 279.434 15.748"/></g><g id="2f82d846-c160-4dba-93a2-e1cf9106199d" data-name="Rectangle 2 copy 4"><polygon class="08927df1-815f-4ed9-9e51-1fb25589e2d6" points="299.943 15.75 294.004 31.5 344.499 31.5 350.438 15.75 299.943 15.75"/></g><g id="3e014a03-b978-4f71-8090-2c69d3bd3a37" data-name="Rectangle 2 copy 5"><polygon class="08927df1-815f-4ed9-9e51-1fb25589e2d6" points="327.93 31.5 320.577 51 337.146 51 344.499 31.5 327.93 31.5"/></g><g id="74d1be0f-38ae-4b9a-8fcc-3bf4ec0f4b0c" data-name="Rectangle 2 copy 6"><polygon class="08927df1-815f-4ed9-9e51-1fb25589e2d6" points="292.59 35.25 286.651 51 320.577 51 326.516 35.25 292.59 35.25"/></g><g id="f2beaf49-c9c8-485d-90de-7aed8273c365" data-name="Rectangle 2 copy 7"><polygon class="08927df1-815f-4ed9-9e51-1fb25589e2d6" points="286.651 51 279.298 70.5 295.867 70.5 303.22 51 286.651 51"/></g><g id="33d3d793-4fcd-4ba5-9dba-b6213b704aed" data-name="Rectangle 2 copy 8"><polygon class="08927df1-815f-4ed9-9e51-1fb25589e2d6" points="301.806 54.75 295.867 70.5 329.793 70.5 335.732 54.75 301.806 54.75"/></g><g id="0aa95ec8-3d47-4fbf-a415-03e9e5c6a541" data-name="Rectangle 2 copy 4"><polygon class="08927df1-815f-4ed9-9e51-1fb25589e2d6" points="436.436 15.75 430.497 31.5 480.992 31.5 486.931 15.75 436.436 15.75"/></g><g id="83040046-b8f2-4f93-969e-028786db3978" data-name="Rectangle 2 copy 5"><polygon class="08927df1-815f-4ed9-9e51-1fb25589e2d6" points="430.497 31.5 423.145 51 439.713 51 447.066 31.5 430.497 31.5"/></g><g id="950a2503-89da-4733-b043-84fe8dd85097" data-name="Rectangle 2 copy 6"><polygon class="08927df1-815f-4ed9-9e51-1fb25589e2d6" points="445.652 35.25 439.713 51 473.639 51 479.578 35.25 445.652 35.25"/></g><g id="e649f64f-0ae4-48e6-891f-57ad94dccae6" data-name="Rectangle 2 copy 7"><polygon class="08927df1-815f-4ed9-9e51-1fb25589e2d6" points="457.071 51 449.718 70.5 466.286 70.5 473.639 51 457.071 51"/></g><g id="a622dae4-abe4-49ed-bd56-5dcc9b5becca" data-name="Rectangle 2 copy 8"><polygon class="08927df1-815f-4ed9-9e51-1fb25589e2d6" points="421.731 54.75 415.792 70.5 449.718 70.5 455.657 54.75 421.731 54.75"/></g><g id="b0a7fb92-c85c-4b29-b14d-95e48dc43302" data-name="Rectangle 2 copy 16"><polygon class="08927df1-815f-4ed9-9e51-1fb25589e2d6" points="374.896 15.75 354.251 70.5 370.82 70.5 391.464 15.75 374.896 15.75"/></g><g id="15972a19-e35c-4e3f-a79a-772e556b268a" data-name="Rectangle 2 copy 17"><polygon class="08927df1-815f-4ed9-9e51-1fb25589e2d6" points="395.409 15.75 374.765 70.5 391.333 70.5 411.978 15.75 395.409 15.75"/></g><g id="1e20bfc3-ae86-4821-bd20-66aa92c4bf9b" data-name="Rectangle 2 copy 18"><polygon class="08927df1-815f-4ed9-9e51-1fb25589e2d6" points="415.923 15.75 395.278 70.5 411.847 70.5 432.491 15.75 415.923 15.75"/></g><g id="3c6a3bb5-9248-4fd4-8f9b-94c02462eacb" data-name="Rectangle 2 copy 19"><polygon class="08927df1-815f-4ed9-9e51-1fb25589e2d6" points="374.896 15.75 368.957 31.5 406.039 31.5 411.978 15.75 374.896 15.75"/></g><g id="ac8a5a03-eb2f-4adc-8b5e-18f353b93f74" data-name="Rectangle 2 copy 20"><polygon class="08927df1-815f-4ed9-9e51-1fb25589e2d6" points="380.704 54.75 374.765 70.5 411.847 70.5 417.786 54.75 380.704 54.75"/></g><g id="69452406-b982-4955-8daf-5f6d80206dbe" data-name="Rectangle 2 copy 21"><polygon class="08927df1-815f-4ed9-9e51-1fb25589e2d6" points="347.03 35.25 333.738 70.5 350.306 70.5 363.598 35.25 347.03 35.25"/></g><g id="14b2aa36-9c90-4779-9b87-348bfd0ef4dc" data-name="Rectangle 2 copy 22"><polygon class="08927df1-815f-4ed9-9e51-1fb25589e2d6" points="354.382 15.75 348.444 31.5 365.012 31.5 370.951 15.75 354.382 15.75"/></g><g id="2cc8fea9-1b90-4b16-8a52-7a3c965da8b9" data-name="Rectangle 2 copy 21"><polygon class="08927df1-815f-4ed9-9e51-1fb25589e2d6" points="534.806 35.25 521.515 70.5 538.083 70.5 551.375 35.25 534.806 35.25"/></g><g id="1cae973d-4fb0-4f2f-8e4a-7266384c41a1" data-name="Rectangle 2 copy 22"><polygon class="08927df1-815f-4ed9-9e51-1fb25589e2d6" points="542.159 15.75 536.22 31.5 552.789 31.5 558.728 15.75 542.159 15.75"/></g><g id="fdf25ecb-e260-4c1b-b310-0bbda36b189b" data-name="Rectangle 2 copy 23"><polygon class="08927df1-815f-4ed9-9e51-1fb25589e2d6" points="490.876 15.75 470.231 70.5 486.8 70.5 507.444 15.75 490.876 15.75"/></g><g id="ad4fe7ec-b811-4a4c-b390-ffe39be24ca2" data-name="Rectangle 2 copy 26"><polygon class="08927df1-815f-4ed9-9e51-1fb25589e2d6" points="519.279 15.75 476.783 59.012 488.162 66.887 538.214 15.75 519.279 15.75"/></g><g id="e15f008d-97a6-4b95-8550-972438bf70cf" data-name="Rectangle 2 copy 27"><polygon class="08927df1-815f-4ed9-9e51-1fb25589e2d6" points="505.739 46.5 491.831 59.25 501.79 70.5 523.882 70.5 505.739 46.5"/></g></svg>