<svg xmlns="http://www.w3.org/2000/svg" id="c7923570-e5a2-4101-ab92-f8afa011a59e" width="142" height="21" data-name="Layer 1"><defs><style>.e5932e7e-ec86-4398-87c9-e7c7761060a1{fill:#46ede8;}</style></defs><path d="M10.584 17.752a1.578 1.578 0 0 1 1.68-1.624 1.445 1.445 0 0 1 1.428 1.624A3.498 3.498 0 0 1 10.108 21H0L9.8 1.512c-.588 0-1.568-.056-2.52-.056-1.316 0-2.576.112-2.576.616.196 0 .476.224.476.896a1.54 1.54 0 0 1-1.652 1.596A1.452 1.452 0 0 1 2.1 2.912 3.133 3.133 0 0 1 5.544 0h9.604l-9.66 19.18c.728 0 1.764.056 2.688.056 1.316 0 2.548-.112 2.912-.616-.196 0-.504-.196-.504-.868zM28.308 7l-2.016 9.52a3.884 3.884 0 0 0-.112.896 1.04 1.04 0 0 0 1.148 1.204c1.09 0 1.848-1.232 2.268-2.632h1.175c-1.59 4.564-4.11 5.18-5.62 5.18a2.572 2.572 0 0 1-2.74-2.576 5.065 5.065 0 0 1-4.17 2.576c-1.903 0-3.723-1.176-3.723-4.508 0-3.78 2.324-9.8 7.196-9.8 1.596 0 2.27.616 2.27 1.428v.196L24.28 7h4.032zm-9.66 9.268c0 2.156.895 2.184 1.4 2.184a2.817 2.817 0 0 0 2.324-2.464l1.344-6.328a1.087 1.087 0 0 0-1.148-1.064c-2.38 0-3.92 5.04-3.92 7.672z" class="e5932e7e-ec86-4398-87c9-e7c7761060a1"/><path d="M35.53 7l-2.015 9.52a2.984 2.984 0 0 0-.084.7.992.992 0 0 0 .84 1.232c1.1 0 1.82-1.064 2.24-2.464L38.42 7h4.032l-2.017 9.52a5.348 5.348 0 0 0-.14 1.008.837.837 0 0 0 .953.924c2.744 0 4.844-6.272 4.844-9.352a1.323 1.323 0 0 1-.897.28 1.294 1.294 0 0 1-1.007-1.428A1.497 1.497 0 0 1 45.92 6.44c1.343 0 1.763 1.204 1.763 2.436 0 4.48-2.268 12.292-7.98 12.292-1.82 0-3.024-.784-3.36-2.352a4.572 4.572 0 0 1-3.976 2.352c-1.68 0-2.996-1.008-2.996-3.36a9.18 9.18 0 0 1 .23-1.82L31.5 7h4.03zm26.013 0l-2.016 9.52a3.884 3.884 0 0 0-.112.896 1.04 1.04 0 0 0 1.148 1.204c1.092 0 1.848-1.232 2.268-2.632h1.18c-1.59 4.564-4.11 5.18-5.63 5.18a2.572 2.572 0 0 1-2.74-2.576 5.065 5.065 0 0 1-4.17 2.576c-1.9 0-3.72-1.176-3.72-4.508 0-3.78 2.324-9.8 7.196-9.8 1.596 0 2.268.616 2.268 1.428v.196L57.51 7h4.033zm-9.66 9.268c0 2.156.896 2.184 1.4 2.184a2.817 2.817 0 0 0 2.324-2.464L56.95 9.66a1.087 1.087 0 0 0-1.147-1.064c-2.38 0-3.92 5.04-3.92 7.672z" class="e5932e7e-ec86-4398-87c9-e7c7761060a1"/><path d="M74.227 16.52a4.326 4.326 0 0 0-.112.812 1 1 0 0 0 1.148 1.12 1.82 1.82 0 0 0 .896-.168 2.925 2.925 0 0 1-3.08 2.884 2.736 2.736 0 0 1-2.92-2.324 4.85 4.85 0 0 1-3.98 2.324c-1.907 0-3.727-1.176-3.727-4.508 0-3.78 2.324-9.8 7.196-9.8 1.594 0 2.267.616 2.267 1.428V8.4l1.38-6.44 4.143-.56zM71.68 9.576a1.11 1.11 0 0 0-1.15-.98c-2.38 0-3.92 5.04-3.92 7.672 0 2.156.896 2.184 1.4 2.184a2.474 2.474 0 0 0 2.184-2.016zm12.515 8.288a1.422 1.422 0 0 1 1.568-1.204 1.192 1.192 0 0 1 1.232 1.344A3.293 3.293 0 0 1 83.58 21h-7.42L83.3 8.512h-1.57c-.867 0-1.54.056-1.54.448 0 .14.31-.028.31.616a1.427 1.427 0 0 1-1.513 1.484A1.218 1.218 0 0 1 77.7 9.828 3.22 3.22 0 0 1 80.946 7h7.196l-6.86 11.844c.476.028 1.372.168 2.128.168.672 0 1.233-.112 1.317-.56a.544.544 0 0 1-.532-.588zM94.08 7l-2.017 9.52a3.884 3.884 0 0 0-.112.896.927.927 0 0 0 1.15 1.036c1.09 0 2.1-1.064 2.52-2.464h1.18c-1.59 4.564-4.36 5.18-5.88 5.18-1.68 0-2.99-1.008-2.99-3.36a9.18 9.18 0 0 1 .227-1.82L90.047 7h4.032zm-1.262-5.964a2.246 2.246 0 0 1 2.24 2.24 2.223 2.223 0 0 1-2.24 2.212 2.2 2.2 0 0 1-2.212-2.212 2.223 2.223 0 0 1 2.212-2.24z" class="e5932e7e-ec86-4398-87c9-e7c7761060a1"/><path d="M102.675 9.436c-1.008 0-1.764 1.176-2.184 2.576L98.59 21h-4.03l2.96-14h4.033l-.308 1.456a4.16 4.16 0 0 1 3.275-1.568 2.83 2.83 0 0 1 3.108 3.164c0 2.268-1.343 5.656-1.343 7.224a1.01 1.01 0 0 0 1.12 1.176c1.232 0 1.736-1.008 2.352-2.464h1.175c-1.568 4.592-3.725 5.18-5.208 5.18a2.972 2.972 0 0 1-3.304-3.164c0-1.904 1.26-5.348 1.26-7.14 0-.924-.336-1.428-1.008-1.428zM105.56 0h2.94l-3.39 5.292h-2.1z" class="e5932e7e-ec86-4398-87c9-e7c7761060a1"/><path d="M121.63 15.988a16.695 16.695 0 0 1-4.284 3.5 6.174 6.174 0 0 1-4.396 1.68c-2.856 0-4.088-1.876-4.088-3.584a2.87 2.87 0 0 1 1.484-2.604 42.35 42.35 0 0 0 3.445-8.288l4.15-.56c.34 7.252.62 8.344.62 10.192a4.282 4.282 0 0 1-.11 1.064 15.677 15.677 0 0 0 2.018-1.4h1.176zm-10.528 1.372a.81.81 0 0 1-.756-.364c0 1.316.476 1.96 1.708 1.96a2.295 2.295 0 0 0 2.436-2.604c0-1.456-.252-2.324-.532-6.636a32.038 32.038 0 0 1-2.268 5.292 1.057 1.057 0 0 1 .644.98 1.33 1.33 0 0 1-1.232 1.372z" class="e5932e7e-ec86-4398-87c9-e7c7761060a1"/><path d="M133.67 7l-5.6 3.892a5.183 5.183 0 0 1 .924-.112 2.975 2.975 0 0 1 3.08 3.276 4.75 4.75 0 0 1-.113 1.064l-.3 1.4a4.59 4.59 0 0 0-.14.896.934.934 0 0 0 1.09 1.036c1.24 0 1.74-1.008 2.36-2.464h1.176c-1.595 4.704-3.863 5.18-5.152 5.18-2.293 0-3.525-1.148-3.525-3.192a7.06 7.06 0 0 1 .17-1.456l.222-1.092a4.677 4.677 0 0 0 .11-1.036c0-.812-.28-1.344-1.004-1.344a3.523 3.523 0 0 0-2.073 1.036L123.42 21h-4.03l4.06-19.04 4.144-.56-2.1 9.856L130.897 7h2.772z" class="e5932e7e-ec86-4398-87c9-e7c7761060a1"/><path d="M140.894 7l-2.017 9.52a3.884 3.884 0 0 0-.11.896.927.927 0 0 0 1.147 1.036 1.82 1.82 0 0 0 .896-.168 2.925 2.925 0 0 1-3.08 2.884c-1.68 0-2.997-1.008-2.997-3.36a9.18 9.18 0 0 1 .225-1.82L136.86 7h4.034zm-1.26-5.964a2.246 2.246 0 0 1 2.24 2.24 2.223 2.223 0 0 1-2.24 2.212 2.2 2.2 0 0 1-2.213-2.212 2.223 2.223 0 0 1 2.22-2.24z" class="e5932e7e-ec86-4398-87c9-e7c7761060a1"/></svg>
