<svg id="2c69f2b1-0e52-4924-a46e-2243432af34f" data-name="Layer 1" xmlns="http://www.w3.org/2000/svg" viewBox="0 0 2547.30248 1363.1526"><defs><style>.\39 fd25bc3-2829-42da-8630-693f7177ab79{opacity:0.1;}.\30 b098007-38a8-462c-9223-faeebb0ef2d0,.\36 687a3a9-b81c-4907-86b4-1b6c9268ce98,.\38 3d92980-9b46-4778-8830-ab9636399011,.a7e33770-1078-41b1-b387-3b59de485598,.af539510-718f-402a-b84e-4c6acdb6408f,.bbd0e887-5f4b-40ed-ba2b-d87753eb9b15{fill:none;}.bbd0e887-5f4b-40ed-ba2b-d87753eb9b15{stroke:#96d4e6;}.\30 b098007-38a8-462c-9223-faeebb0ef2d0,.\38 3d92980-9b46-4778-8830-ab9636399011,.a7e33770-1078-41b1-b387-3b59de485598,.af539510-718f-402a-b84e-4c6acdb6408f,.bbd0e887-5f4b-40ed-ba2b-d87753eb9b15{stroke-miterlimit:10;stroke-width:2px;}.\38 e77328d-8328-425a-8d34-3b32799dd7b2{fill:#96d4e6;}.\38 3d92980-9b46-4778-8830-ab9636399011{stroke:#b6d27b;}.\36 5ae982a-3b01-4879-9fa9-b72a73ae9ebd{fill:#b6d27b;}.\30 b098007-38a8-462c-9223-faeebb0ef2d0{stroke:#6768a3;}.\39 19c0d3f-8501-401d-8040-25fac91a3d31{fill:#6768a3;}.a7e33770-1078-41b1-b387-3b59de485598{stroke:#ef88ac;}.\31 d309929-c3b2-4832-8489-0d017f47756b{fill:#fff;}.d1a58f5f-6392-4708-a184-b189eb452d93{fill:#ef88ac;}.af539510-718f-402a-b84e-4c6acdb6408f{stroke:#f29777;}.cab06455-1d3c-4a50-8d68-c73ac1b002a5{fill:#f29777;}</style></defs><title>welcome-background</title><g class="9fd25bc3-2829-42da-8630-693f7177ab79"><polyline class="bbd0e887-5f4b-40ed-ba2b-d87753eb9b15" points="887.388 38.789 887.388 746.636 755.869 878.155 653.577 878.155 593.298 817.875 397.846 817.875 278.394 937.327"/><circle class="8e77328d-8328-425a-8d34-3b32799dd7b2" cx="887.38842" cy="38.93975" r="3.00781"/><circle class="8e77328d-8328-425a-8d34-3b32799dd7b2" cx="285.19806" cy="948.56239" r="3.00783" transform="translate(-593.90153 468.15469) rotate(-45.00021)"/><polyline class="83d92980-9b46-4778-8830-ab9636399011" points="293.921 1139.172 348.526 1084.567 348.526 954.875 424.332 879.068 581.881 879.068 646.042 943.229 774.136 943.229 945.499 771.867 945.499 596.851 991.336 551.013 991.336 443.412 1154.079 443.412 1203.205 394.286"/><circle class="65ae982a-3b01-4879-9fa9-b72a73ae9ebd" cx="300.72446" cy="1150.40738" r="3.00785" transform="translate(-732.08038 538.25309) rotate(-45.00021)"/><circle class="65ae982a-3b01-4879-9fa9-b72a73ae9ebd" cx="1209.79611" cy="405.73415" r="3.0078" transform="translate(60.75434 962.96679) rotate(-45.00082)"/><polyline class="0b098007-38a8-462c-9223-faeebb0ef2d0" points="360.959 1286.971 231.621 1157.633 231.621 900.075 363.139 768.556 617.044 768.556 671.844 823.355 748.563 823.355 849.029 722.89 849.029 378.153"/><rect class="919c0d3f-8501-401d-8040-25fac91a3d31" x="364.40688" y="1297.81266" width="6.5" height="1.00004" transform="translate(-817.04482 628.87282) rotate(-44.99876)"/><rect class="919c0d3f-8501-401d-8040-25fac91a3d31" x="845.77867" y="377.6526" width="6.5" height="1"/><polyline class="a7e33770-1078-41b1-b387-3b59de485598" points="391.619 1171.122 391.619 1350.335 335.667 1350.335 184.842 1199.51 184.842 1070.578 124.026 1070.578 124.026 1170.318 22.658 1170.318"/><circle class="1d309929-c3b2-4832-8489-0d017f47756b" cx="391.61892" cy="1171.2928" r="3.00781"/><path class="d1a58f5f-6392-4708-a184-b189eb452d93" d="M394.90863,1182.63428a3.40782,3.40782,0,1,0,3.40781-3.408,3.41188,3.41188,0,0,0-3.40781,3.408h0Zm6.01563,0a2.60782,2.60782,0,1,1-2.60782-2.60791,2.61025,2.61025,0,0,1,2.60782,2.60791h0Z" transform="translate(-6.69752 -11.34142)"/><circle class="1d309929-c3b2-4832-8489-0d017f47756b" cx="22.82865" cy="1170.31776" r="3.00781"/><path class="d1a58f5f-6392-4708-a184-b189eb452d93" d="M29.52618,1178.25134a3.40784,3.40784,0,1,1-3.40784,3.40784,3.4119,3.4119,0,0,1,3.40784-3.40784h0Zm0,6.01563a2.60779,2.60779,0,1,0-2.60784-2.60779,2.61034,2.61034,0,0,0,2.60784,2.60779h0Z" transform="translate(-6.69752 -11.34142)"/><path class="af539510-718f-402a-b84e-4c6acdb6408f" d="M815.11255,700.5144l-73.79,73.79022H706.166l-57.28479-57.28485H347.2305L191.53958,872.71039V1028.401c0-2.43274-109.46992,0-109.46992,0L27.71918,974.05054" transform="translate(-6.69752 -11.34142)"/><circle class="1d309929-c3b2-4832-8489-0d017f47756b" cx="814.99208" cy="700.63486" r="3.00784" transform="translate(-263.41611 770.14852) rotate(-44.99959)"/><path class="cab06455-1d3c-4a50-8d68-c73ac1b002a5" d="M812.5824,698.22516a3.40781,3.40781,0,1,0,4.8194,0,3.41192,3.41192,0,0,0-4.8194,0h0Zm4.25366,4.25372a2.6078,2.6078,0,1,1,0-3.688,2.61036,2.61036,0,0,1,0,3.688h0Z" transform="translate(-6.69752 -11.34142)"/><circle class="1d309929-c3b2-4832-8489-0d017f47756b" cx="27.83966" cy="974.17099" r="3.00783" transform="translate(-687.38849 293.6745) rotate(-45.00018)"/><path class="cab06455-1d3c-4a50-8d68-c73ac1b002a5" d="M30.24936,971.76129a3.40782,3.40782,0,1,1-4.8194,0,3.41193,3.41193,0,0,1,4.8194,0C31.57793,973.0899,28.92073,970.43268,30.24936,971.76129ZM25.99566,976.015a2.60783,2.60783,0,1,0,0-3.688,2.61036,2.61036,0,0,0,0,3.688C27.01266,977.032,24.97862,974.998,25.99566,976.015Z" transform="translate(-6.69752 -11.34142)"/><polyline class="af539510-718f-402a-b84e-4c6acdb6408f" points="184.842 939.348 75.372 939.348 21.754 885.73"/><circle class="1d309929-c3b2-4832-8489-0d017f47756b" cx="28.57188" cy="897.19145" r="3.0078" transform="translate(-632.73697 271.6409) rotate(-44.99979)"/><path class="cab06455-1d3c-4a50-8d68-c73ac1b002a5" d="M30.98158,894.7818a3.4078,3.4078,0,1,1-4.81939-.00006,3.41186,3.41186,0,0,1,4.81939.00006C32.31015,896.11035,29.653,893.45313,30.98158,894.7818Zm-4.25369,4.25366a2.60781,2.60781,0,1,0,0-3.688,2.61031,2.61031,0,0,0,0,3.688C27.74488,900.05249,25.71084,898.01843,26.72788,899.03546Z" transform="translate(-6.69752 -11.34142)"/><polyline class="af539510-718f-402a-b84e-4c6acdb6408f" points="717.596 762.963 717.596 674.053 811.587 580.063 811.587 106.335"/><circle class="1d309929-c3b2-4832-8489-0d017f47756b" cx="811.58733" cy="106.5058" r="3.00781"/><path class="cab06455-1d3c-4a50-8d68-c73ac1b002a5" d="M821.69263,117.84723a3.40781,3.40781,0,1,1-3.40778-3.40784,3.41185,3.41185,0,0,1,3.40778,3.40784h0Zm-6.01562,0a2.60782,2.60782,0,1,0,2.60785-2.60783,2.61036,2.61036,0,0,0-2.60785,2.60783h0Z" transform="translate(-6.69752 -11.34142)"/><polyline class="83d92980-9b46-4778-8830-ab9636399011" points="934.104 105.955 934.104 498.902 991.336 498.902"/><circle class="65ae982a-3b01-4879-9fa9-b72a73ae9ebd" cx="934.10357" cy="106.1058" r="3.00781"/><line class="af539510-718f-402a-b84e-4c6acdb6408f" x1="810.70427" y1="265.36562" x2="845.79125" y2="265.36562"/><circle class="1d309929-c3b2-4832-8489-0d017f47756b" cx="845.62087" cy="265.36562" r="3.00781"/><path class="cab06455-1d3c-4a50-8d68-c73ac1b002a5" d="M852.31836,280.11487a3.40782,3.40782,0,1,1,3.40784-3.40784,3.41188,3.41188,0,0,1-3.40784,3.40784h0Zm0-6.01566a2.60782,2.60782,0,1,0,2.60785,2.60782,2.61037,2.61037,0,0,0-2.60785-2.60782h0Z" transform="translate(-6.69752 -11.34142)"/><polyline class="a7e33770-1078-41b1-b387-3b59de485598" points="737.058 39.169 737.058 151.03 783.666 197.638 783.666 392.266 726.505 449.426 726.505 603.506 662.45 667.561 205.52 667.561 136.448 736.633"/><circle class="1d309929-c3b2-4832-8489-0d017f47756b" cx="737.05754" cy="39.33975" r="3.00781"/><path class="d1a58f5f-6392-4708-a184-b189eb452d93" d="M740.34723,50.68118a3.40784,3.40784,0,1,0,3.40784-3.40784,3.4119,3.4119,0,0,0-3.40784,3.40784h0Zm6.01569,0a2.60782,2.60782,0,1,1-2.60785-2.60784,2.61036,2.61036,0,0,1,2.60785,2.60784h0Z" transform="translate(-6.69752 -11.34142)"/><circle class="1d309929-c3b2-4832-8489-0d017f47756b" cx="143.26604" cy="747.85382" r="3.0078" transform="translate(-493.54991 309.00655) rotate(-45.00021)"/><path class="d1a58f5f-6392-4708-a184-b189eb452d93" d="M140.85635,745.44415a3.4078,3.4078,0,1,1,0,4.8194,3.41183,3.41183,0,0,1,0-4.8194C142.18492,744.11554,139.52774,746.77277,140.85635,745.44415Zm4.25371,4.25366a2.60781,2.60781,0,1,0-3.688,0,2.61035,2.61035,0,0,0,3.688,0h0Z" transform="translate(-6.69752 -11.34142)"/><polyline class="a7e33770-1078-41b1-b387-3b59de485598" points="237.723 740.686 145.919 832.489 75.372 832.489 21.952 779.068"/><circle class="1d309929-c3b2-4832-8489-0d017f47756b" cx="244.29995" cy="752.14746" r="3.0078" transform="translate(-466.99294 381.70489) rotate(-45.0001)"/><path class="d1a58f5f-6392-4708-a184-b189eb452d93" d="M241.89024,749.73779a3.40782,3.40782,0,1,0,4.8194,0,3.41186,3.41186,0,0,0-4.8194,0h0Zm4.25369,4.25366a2.60781,2.60781,0,1,1,0-3.688,2.61031,2.61031,0,0,1,0,3.688C245.12694,755.00848,247.161,752.97443,246.14394,753.99146Z" transform="translate(-6.69752 -11.34142)"/><circle class="1d309929-c3b2-4832-8489-0d017f47756b" cx="28.76975" cy="790.53021" r="3.0078" transform="translate(-557.2584 240.54073) rotate(-44.99979)"/><path class="d1a58f5f-6392-4708-a184-b189eb452d93" d="M31.17945,788.12054a3.4078,3.4078,0,1,1-4.8194-.00006,3.41186,3.41186,0,0,1,4.8194.00006h0Zm-4.2537,4.25366a2.60781,2.60781,0,1,0,0-3.688,2.61031,2.61031,0,0,0,0,3.688C27.94276,793.39124,25.90871,791.35718,26.92575,792.37421Z" transform="translate(-6.69752 -11.34142)"/><polyline class="83d92980-9b46-4778-8830-ab9636399011" points="89.523 782.585 89.523 627.833 637.318 627.833 683.951 581.2"/><circle class="65ae982a-3b01-4879-9fa9-b72a73ae9ebd" cx="89.52346" cy="782.43483" r="3.00781"/><circle class="65ae982a-3b01-4879-9fa9-b72a73ae9ebd" cx="690.54225" cy="592.6479" r="3.00781" transform="translate(-223.50823 650.52174) rotate(-44.99959)"/><polyline class="bbd0e887-5f4b-40ed-ba2b-d87753eb9b15" points="700.568 80.939 700.568 377.653 622.914 455.306 622.914 576.322"/><circle class="8e77328d-8328-425a-8d34-3b32799dd7b2" cx="700.56768" cy="81.08984" r="3.00781"/><circle class="8e77328d-8328-425a-8d34-3b32799dd7b2" cx="622.91448" cy="576.1718" r="3.00781"/><line class="bbd0e887-5f4b-40ed-ba2b-d87753eb9b15" x1="622.91448" y1="518.36287" x2="670.95086" y2="518.36287"/><circle class="8e77328d-8328-425a-8d34-3b32799dd7b2" cx="670.80046" cy="518.36287" r="3.00781"/><polyline class="bbd0e887-5f4b-40ed-ba2b-d87753eb9b15" points="579.024 586.478 406.215 586.478 368.508 548.771 114.295 548.771 154.847 589.323 289.043 589.323"/><circle class="8e77328d-8328-425a-8d34-3b32799dd7b2" cx="578.87322" cy="586.47768" r="3.00781"/><circle class="8e77328d-8328-425a-8d34-3b32799dd7b2" cx="288.89225" cy="589.32295" r="3.00781"/><polyline class="0b098007-38a8-462c-9223-faeebb0ef2d0" points="581.881 548.271 581.881 508.715 510.82 508.715 482.802 480.698 205.52 480.698 205.52 78.582"/><rect class="919c0d3f-8501-401d-8040-25fac91a3d31" x="578.63103" y="547.77138" width="6.5" height="1"/><rect class="919c0d3f-8501-401d-8040-25fac91a3d31" x="202.26978" y="78.08202" width="6.5" height="1"/><polyline class="af539510-718f-402a-b84e-4c6acdb6408f" points="481.771 546.482 456.282 520.993 157.692 520.993 157.692 265.366 3.286 110.959"/><circle class="1d309929-c3b2-4832-8489-0d017f47756b" cx="488.34813" cy="557.70309" r="3.00784" transform="translate(-258.01931 497.32031) rotate(-45)"/><path class="cab06455-1d3c-4a50-8d68-c73ac1b002a5" d="M490.75781,555.2934a3.40783,3.40783,0,1,0,0,4.8194,3.4119,3.4119,0,0,0,0-4.8194C489.42926,553.96484,492.08646,556.62207,490.75781,555.2934Zm-4.25369,4.25366a2.60781,2.60781,0,1,1,3.688.00006,2.61026,2.61026,0,0,1-3.688-.00006C485.48712,558.53009,487.52115,560.56415,486.50412,559.54706Z" transform="translate(-6.69752 -11.34142)"/><circle class="1d309929-c3b2-4832-8489-0d017f47756b" cx="10.10366" cy="122.42092" r="3.00781" transform="translate(-90.30277 31.65907) rotate(-44.99992)"/><path class="cab06455-1d3c-4a50-8d68-c73ac1b002a5" d="M12.51337,120.01124a3.40782,3.40782,0,1,1-4.8194,0,3.41189,3.41189,0,0,1,4.8194,0h0Zm-4.2537,4.25369a2.60782,2.60782,0,1,0,0-3.688,2.61034,2.61034,0,0,0,0,3.688h0Z" transform="translate(-6.69752 -11.34142)"/><polyline class="af539510-718f-402a-b84e-4c6acdb6408f" points="157.692 313.427 111.371 359.748 111.371 428.17 111.371 505.477"/><circle class="1d309929-c3b2-4832-8489-0d017f47756b" cx="111.37061" cy="505.30708" r="3.00781"/><path class="cab06455-1d3c-4a50-8d68-c73ac1b002a5" d="M114.66032,516.6485a3.40781,3.40781,0,1,1,3.40781,3.40784,3.41186,3.41186,0,0,1-3.40781-3.40784h0Zm6.01563,0a2.60781,2.60781,0,1,0-2.60781,2.60785,2.61036,2.61036,0,0,0,2.60781-2.60785h0Z" transform="translate(-6.69752 -11.34142)"/><polyline class="a7e33770-1078-41b1-b387-3b59de485598" points="581.881 459.174 581.881 392.266 653.584 320.563 653.584 81.319"/><circle class="1d309929-c3b2-4832-8489-0d017f47756b" cx="581.88103" cy="459.00385" r="3.00781"/><path class="d1a58f5f-6392-4708-a184-b189eb452d93" d="M591.98639,470.34525a3.40781,3.40781,0,1,0-3.40784,3.40784,3.4119,3.4119,0,0,0,3.40784-3.40784h0Zm-6.01562,0a2.60782,2.60782,0,1,1,2.60779,2.60785,2.61031,2.61031,0,0,1-2.60779-2.60785h0Z" transform="translate(-6.69752 -11.34142)"/><circle class="1d309929-c3b2-4832-8489-0d017f47756b" cx="653.58361" cy="81.48984" r="3.00781"/><path class="d1a58f5f-6392-4708-a184-b189eb452d93" d="M663.689,92.83127a3.40781,3.40781,0,1,1-3.40784-3.40784,3.41191,3.41191,0,0,1,3.40784,3.40784h0Zm-6.01562,0a2.60782,2.60782,0,1,0,2.60779-2.60783,2.61031,2.61031,0,0,0-2.60779,2.60783h0Z" transform="translate(-6.69752 -11.34142)"/><polyline class="a7e33770-1078-41b1-b387-3b59de485598" points="537.087 433.03 391.619 433.03 255.484 296.896 255.484 29.344"/><circle class="1d309929-c3b2-4832-8489-0d017f47756b" cx="536.91674" cy="433.03045" r="3.00782"/><path class="d1a58f5f-6392-4708-a184-b189eb452d93" d="M543.61426,440.96405a3.40782,3.40782,0,1,0,3.40784,3.40781,3.41185,3.41185,0,0,0-3.40784-3.40781h0Zm0,6.01563a2.60782,2.60782,0,1,1,2.60785-2.60782,2.61031,2.61031,0,0,1-2.60785,2.60782h0Z" transform="translate(-6.69752 -11.34142)"/><circle class="1d309929-c3b2-4832-8489-0d017f47756b" cx="255.48418" cy="29.51409" r="3.00781"/><path class="d1a58f5f-6392-4708-a184-b189eb452d93" d="M265.58951,40.85552a3.40781,3.40781,0,1,1-3.40781-3.40784,3.41188,3.41188,0,0,1,3.40781,3.40784h0Zm-6.01562,0a2.60782,2.60782,0,1,0,2.60782-2.60784,2.61033,2.61033,0,0,0-2.60782,2.60784h0Z" transform="translate(-6.69752 -11.34142)"/><polyline class="83d92980-9b46-4778-8830-ab9636399011" points="562.318 80.103 529.237 113.183 529.237 233.741 597.446 301.95 597.446 149.022"/><circle class="65ae982a-3b01-4879-9fa9-b72a73ae9ebd" cx="568.90875" cy="91.5503" r="3.00781" transform="translate(95.19555 417.75144) rotate(-44.9999)"/><circle class="65ae982a-3b01-4879-9fa9-b72a73ae9ebd" cx="597.44579" cy="149.17271" r="3.00781"/><polyline class="bbd0e887-5f4b-40ed-ba2b-d87753eb9b15" points="580.058 330.921 529.237 392.266 415.946 392.266 302.634 278.954 501.089 278.954 501.089 355.374 442.257 355.374 412.081 325.198 456.055 325.198"/><circle class="8e77328d-8328-425a-8d34-3b32799dd7b2" cx="586.65968" cy="342.37809" r="3.0078" transform="translate(-57.95855 564.38086) rotate(-50.36004)"/><circle class="8e77328d-8328-425a-8d34-3b32799dd7b2" cx="455.90451" cy="325.19774" r="3.00781"/><polyline class="bbd0e887-5f4b-40ed-ba2b-d87753eb9b15" points="302.634 80.939 302.634 228.875 484.06 228.875 438.006 182.821 372.582 182.821"/><circle class="8e77328d-8328-425a-8d34-3b32799dd7b2" cx="302.63366" cy="81.08984" r="3.00781"/><circle class="8e77328d-8328-425a-8d34-3b32799dd7b2" cx="372.73264" cy="182.82143" r="3.00781"/><polyline class="af539510-718f-402a-b84e-4c6acdb6408f" points="348.088 48.306 348.088 143.732 474.329 143.732 474.329 48.306"/><circle class="1d309929-c3b2-4832-8489-0d017f47756b" cx="348.08791" cy="48.47603" r="3.00781"/><path class="cab06455-1d3c-4a50-8d68-c73ac1b002a5" d="M351.37762,59.81746a3.40782,3.40782,0,1,0,3.40781-3.40784,3.41188,3.41188,0,0,0-3.40781,3.40784h0Zm6.01563,0a2.60782,2.60782,0,1,1-2.60782-2.60784,2.61033,2.61033,0,0,1,2.60782,2.60784h0Z" transform="translate(-6.69752 -11.34142)"/><circle class="1d309929-c3b2-4832-8489-0d017f47756b" cx="474.32949" cy="48.47603" r="3.00781"/><path class="cab06455-1d3c-4a50-8d68-c73ac1b002a5" d="M484.43481,59.81746a3.40782,3.40782,0,1,1-3.40781-3.40784,3.41188,3.41188,0,0,1,3.40781,3.40784h0Zm-6.01562,0a2.60782,2.60782,0,1,0,2.60782-2.60784,2.61033,2.61033,0,0,0-2.60782,2.60784h0Z" transform="translate(-6.69752 -11.34142)"/><polyline class="af539510-718f-402a-b84e-4c6acdb6408f" points="481.771 1296.808 425.704 1240.741 425.704 1119.329 389.032 1082.656 389.032 993.284 795.074 993.284 997.572 790.786 997.572 710.2 1098.821 608.951 1098.821 557.293 1156.678 557.293 1156.678 589.323 1205.225 589.323 1205.225 444.817"/><circle class="1d309929-c3b2-4832-8489-0d017f47756b" cx="488.34811" cy="1308.02905" r="3.0078" transform="translate(-788.5778 717.08113) rotate(-44.99979)"/><path class="cab06455-1d3c-4a50-8d68-c73ac1b002a5" d="M490.75781,1305.61939a3.40781,3.40781,0,1,0,0,4.81946,3.41183,3.41183,0,0,0,0-4.81946C489.42923,1304.29077,492.08643,1306.948,490.75781,1305.61939Zm-4.25369,4.25366a2.6078,2.6078,0,1,1,3.688,0,2.61033,2.61033,0,0,1-3.688,0C485.48709,1308.85608,487.52115,1310.89014,486.50412,1309.873Z" transform="translate(-6.69752 -11.34142)"/><circle class="1d309929-c3b2-4832-8489-0d017f47756b" cx="1205.22545" cy="444.9874" r="3.00781"/><path class="cab06455-1d3c-4a50-8d68-c73ac1b002a5" d="M1215.33081,456.32883a3.40784,3.40784,0,1,1-3.40784-3.40784,3.4119,3.4119,0,0,1,3.40784,3.40784h0Zm-6.01562,0a2.60779,2.60779,0,1,0,2.60779-2.60785,2.61029,2.61029,0,0,0-2.60779,2.60785h0Z" transform="translate(-6.69752 -11.34142)"/><polyline class="af539510-718f-402a-b84e-4c6acdb6408f" points="993.625 635.59 1042.495 586.72 1042.495 498.902 1205.225 498.902"/><circle class="1d309929-c3b2-4832-8489-0d017f47756b" cx="1000.44348" cy="646.81055" r="3.00779" transform="translate(-171.03853 885.52538) rotate(-45)"/><path class="cab06455-1d3c-4a50-8d68-c73ac1b002a5" d="M1002.85315,649.22021a3.40781,3.40781,0,1,0-4.8194,0,3.41179,3.41179,0,0,0,4.8194,0C1004.18176,647.89166,1001.52454,650.54883,1002.85315,649.22021Zm-4.25366-4.25366a2.6078,2.6078,0,1,1,0,3.688,2.61031,2.61031,0,0,1,0-3.688C999.61646,643.94952,997.58246,645.98358,998.59949,644.96655Z" transform="translate(-6.69752 -11.34142)"/><polyline class="bbd0e887-5f4b-40ed-ba2b-d87753eb9b15" points="1212.514 315.447 1134.822 393.139 991.336 393.139 991.336 91.098"/><circle class="8e77328d-8328-425a-8d34-3b32799dd7b2" cx="1219.10486" cy="326.89497" r="3.0078" transform="translate(119.21811 946.4373) rotate(-44.99979)"/><circle class="8e77328d-8328-425a-8d34-3b32799dd7b2" cx="991.33623" cy="91.24884" r="3.00781"/><polyline class="bbd0e887-5f4b-40ed-ba2b-d87753eb9b15" points="1224.911 268.226 1039.846 83.161 1039.846 344.463 1122.826 344.463"/><circle class="8e77328d-8328-425a-8d34-3b32799dd7b2" cx="1231.50269" cy="279.4614" r="3.0078" transform="translate(156.39463 941.31866) rotate(-45.00021)"/><circle class="8e77328d-8328-425a-8d34-3b32799dd7b2" cx="1122.67528" cy="344.46324" r="3.00781"/><polyline class="bbd0e887-5f4b-40ed-ba2b-d87753eb9b15" points="1082.205 125.52 1082.205 301.95 1152.545 301.95 1152.545 265.366 1132.65 245.471"/><circle class="8e77328d-8328-425a-8d34-3b32799dd7b2" cx="1139.45374" cy="256.91825" r="3.0078" transform="translate(145.37435 869.6272) rotate(-45.00021)"/><polyline class="bbd0e887-5f4b-40ed-ba2b-d87753eb9b15" points="474.329 1047.799 474.329 1193.716 560.018 1279.404 622.914 1279.404 694.188 1208.131 694.188 1127.594 786.984 1034.797 829.867 1034.797 1048.123 816.541 1048.123 738.396 1144.439 642.08"/><circle class="8e77328d-8328-425a-8d34-3b32799dd7b2" cx="474.32949" cy="1047.94923" r="3.00781"/><circle class="8e77328d-8328-425a-8d34-3b32799dd7b2" cx="1151.03061" cy="653.52727" r="3.00781" transform="translate(-131.67698 993.99215) rotate(-45.00082)"/><polyline class="0b098007-38a8-462c-9223-faeebb0ef2d0" points="512.49 1042.875 717.596 1042.875 652.529 1107.942 652.529 1195.782 600.192 1248.119 519.944 1167.871"/><rect class="919c0d3f-8501-401d-8040-25fac91a3d31" x="511.98967" y="1039.62514" width="1" height="6.5"/><rect class="919c0d3f-8501-401d-8040-25fac91a3d31" x="523.39145" y="1178.71282" width="6.5" height="1.00002" transform="translate(-686.25728 706.38171) rotate(-44.99753)"/><polyline class="a7e33770-1078-41b1-b387-3b59de485598" points="515.227 1094.533 614.793 1094.533 614.793 1186.345"/><circle class="1d309929-c3b2-4832-8489-0d017f47756b" cx="515.39751" cy="1094.53288" r="3.00784"/><path class="d1a58f5f-6392-4708-a184-b189eb452d93" d="M522.095,1109.2821a3.40778,3.40778,0,1,0-3.40784-3.40784,3.41193,3.41193,0,0,0,3.40784,3.40784h0Zm0-6.01562a2.60785,2.60785,0,1,1-2.60779,2.60779,2.61033,2.61033,0,0,1,2.60779-2.60779h0Z" transform="translate(-6.69752 -11.34142)"/><circle class="1d309929-c3b2-4832-8489-0d017f47756b" cx="614.79296" cy="1186.17513" r="3.00781"/><path class="d1a58f5f-6392-4708-a184-b189eb452d93" d="M618.08264,1197.51648a3.40784,3.40784,0,1,1,3.40784,3.40784,3.4119,3.4119,0,0,1-3.40784-3.40784h0Zm6.01563,0a2.60782,2.60782,0,1,0-2.60779,2.60791,2.61033,2.61033,0,0,0,2.60779-2.60791h0Z" transform="translate(-6.69752 -11.34142)"/><line class="a7e33770-1078-41b1-b387-3b59de485598" x1="566.57891" y1="1145.49733" x2="614.79296" y2="1145.49733"/><circle class="1d309929-c3b2-4832-8489-0d017f47756b" cx="566.74929" cy="1145.49733" r="3.00781"/><path class="d1a58f5f-6392-4708-a184-b189eb452d93" d="M573.44684,1160.24646a3.40778,3.40778,0,1,0-3.4079-3.40772,3.41181,3.41181,0,0,0,3.4079,3.40772h0Zm0-6.01562a2.60785,2.60785,0,1,1-2.60785,2.60791,2.61034,2.61034,0,0,1,2.60785-2.60791h0Z" transform="translate(-6.69752 -11.34142)"/><polyline class="bbd0e887-5f4b-40ed-ba2b-d87753eb9b15" points="2038.937 80.939 2038.937 746.636 1907.418 878.155 1805.126 878.155 1744.846 817.875 1549.395 817.875 1429.943 937.327"/><circle class="8e77328d-8328-425a-8d34-3b32799dd7b2" cx="2038.937" cy="81.08984" r="3.00781"/><circle class="8e77328d-8328-425a-8d34-3b32799dd7b2" cx="1436.74658" cy="948.56239" r="3.00781" transform="translate(-256.61909 1282.41933) rotate(-45)"/><polyline class="83d92980-9b46-4778-8830-ab9636399011" points="1445.469 1139.172 1500.075 1084.567 1500.075 954.875 1575.881 879.068 1733.43 879.068 1797.591 943.229 1925.685 943.229 2097.047 771.867 2097.047 596.851 2142.885 551.013 2142.885 443.412 2305.628 443.412 2354.754 394.286"/><circle class="65ae982a-3b01-4879-9fa9-b72a73ae9ebd" cx="1452.27325" cy="1150.40738" r="3.00788" transform="translate(-394.79433 1352.54378) rotate(-45.00082)"/><circle class="65ae982a-3b01-4879-9fa9-b72a73ae9ebd" cx="2361.34485" cy="405.73415" r="3.0078" transform="translate(398.02205 1777.2113) rotate(-44.99979)"/><polyline class="0b098007-38a8-462c-9223-faeebb0ef2d0" points="1512.508 1286.971 1383.169 1157.633 1383.169 900.075 1514.688 768.556 1768.593 768.556 1823.392 823.355 1900.112 823.355 2000.577 722.89 2000.577 378.153"/><rect class="919c0d3f-8501-401d-8040-25fac91a3d31" x="1515.95539" y="1297.81265" width="6.5" height="1.00007" transform="translate(-479.77827 1443.16599) rotate(-45)"/><rect class="919c0d3f-8501-401d-8040-25fac91a3d31" x="1997.32714" y="377.6526" width="6.5" height="1"/><polyline class="a7e33770-1078-41b1-b387-3b59de485598" points="1543.167 1171.122 1543.167 1350.335 1487.216 1350.335 1336.391 1199.51 1336.391 1070.578 1275.574 1070.578 1275.574 1170.318 1170.969 1170.318 1170.969 1347.098"/><circle class="1d309929-c3b2-4832-8489-0d017f47756b" cx="1543.16747" cy="1171.2928" r="3.00781"/><path class="d1a58f5f-6392-4708-a184-b189eb452d93" d="M1546.45715,1182.63428a3.40778,3.40778,0,1,0,3.40784-3.40784,3.4119,3.4119,0,0,0-3.40784,3.40784h0Zm6.01563,0a2.60785,2.60785,0,1,1-2.60779-2.60791,2.61036,2.61036,0,0,1,2.60779,2.60791h0Z" transform="translate(-6.69752 -11.34142)"/><circle class="1d309929-c3b2-4832-8489-0d017f47756b" cx="1170.96947" cy="1346.92714" r="3.00781"/><path class="d1a58f5f-6392-4708-a184-b189eb452d93" d="M1174.25916,1358.26856a3.40784,3.40784,0,1,1,3.40784,3.40784,3.41193,3.41193,0,0,1-3.40784-3.40784h0Zm6.01563,0a2.60779,2.60779,0,1,0-2.60779,2.60779,2.61029,2.61029,0,0,0,2.60779-2.60779h0Z" transform="translate(-6.69752 -11.34142)"/><polyline class="af539510-718f-402a-b84e-4c6acdb6408f" points="1336.391 939.348 1226.921 939.348 1085.008 1081.26 1085.008 1359.915"/><circle class="1d309929-c3b2-4832-8489-0d017f47756b" cx="1085.00841" cy="1359.74477" r="3.00781"/><path class="cab06455-1d3c-4a50-8d68-c73ac1b002a5" d="M1088.2981,1371.08618a3.40784,3.40784,0,1,1,3.40784,3.40784,3.41182,3.41182,0,0,1-3.40784-3.40784h0Zm6.01563,0a2.60779,2.60779,0,1,0-2.60779,2.60791,2.61029,2.61029,0,0,0,2.60779-2.60791h0Z" transform="translate(-6.69752 -11.34142)"/><polyline class="af539510-718f-402a-b84e-4c6acdb6408f" points="1869.145 762.963 1869.145 674.053 1963.136 580.063 1963.136 106.335"/><circle class="1d309929-c3b2-4832-8489-0d017f47756b" cx="1963.13585" cy="106.5058" r="3.00781"/><path class="cab06455-1d3c-4a50-8d68-c73ac1b002a5" d="M1973.24109,117.84723a3.40778,3.40778,0,1,1-3.40772-3.40784,3.4118,3.4118,0,0,1,3.40772,3.40784h0Zm-6.01562,0a2.60785,2.60785,0,1,0,2.60791-2.60783,2.61037,2.61037,0,0,0-2.60791,2.60783h0Z" transform="translate(-6.69752 -11.34142)"/><polyline class="83d92980-9b46-4778-8830-ab9636399011" points="2085.652 105.955 2085.652 498.902 2142.885 498.902"/><circle class="65ae982a-3b01-4879-9fa9-b72a73ae9ebd" cx="2085.65209" cy="106.1058" r="3.00781"/><line class="af539510-718f-402a-b84e-4c6acdb6408f" x1="1962.25304" y1="265.36562" x2="1997.33971" y2="265.36562"/><circle class="1d309929-c3b2-4832-8489-0d017f47756b" cx="1997.16936" cy="265.36562" r="3.00781"/><path class="cab06455-1d3c-4a50-8d68-c73ac1b002a5" d="M2003.86682,280.11487a3.40782,3.40782,0,1,1,3.40784-3.40784,3.4119,3.4119,0,0,1-3.40784,3.40784h0Zm0-6.01566a2.60782,2.60782,0,1,0,2.60791,2.60782,2.61037,2.61037,0,0,0-2.60791-2.60782h0Z" transform="translate(-6.69752 -11.34142)"/><polyline class="a7e33770-1078-41b1-b387-3b59de485598" points="1888.606 39.169 1888.606 151.03 1935.214 197.638 1935.214 392.266 1878.054 449.426 1878.054 603.506 1813.999 667.561 1357.069 667.561 1287.997 736.633"/><circle class="1d309929-c3b2-4832-8489-0d017f47756b" cx="1888.60607" cy="39.33975" r="3.00781"/><path class="d1a58f5f-6392-4708-a184-b189eb452d93" d="M1891.89575,50.68118a3.40784,3.40784,0,1,0,3.40784-3.40784,3.4119,3.4119,0,0,0-3.40784,3.40784h0Zm6.01563,0a2.60779,2.60779,0,1,1-2.60779-2.60784,2.61035,2.61035,0,0,1,2.60779,2.60784h0Z" transform="translate(-6.69752 -11.34142)"/><circle class="1d309929-c3b2-4832-8489-0d017f47756b" cx="1294.81482" cy="747.85382" r="3.00779" transform="translate(-156.26755 1123.27224) rotate(-45)"/><path class="d1a58f5f-6392-4708-a184-b189eb452d93" d="M1292.40515,745.44415a3.40779,3.40779,0,1,1,0,4.8194,3.41179,3.41179,0,0,1,0-4.8194h0Zm4.25366,4.25366a2.6078,2.6078,0,1,0-3.688,0,2.61019,2.61019,0,0,0,3.688,0C1297.6759,748.68085,1295.64185,750.71484,1296.65881,749.69781Z" transform="translate(-6.69752 -11.34142)"/><polyline class="83d92980-9b46-4778-8830-ab9636399011" points="1241.072 782.585 1241.072 627.833 1788.867 627.833 1835.5 581.2"/><circle class="65ae982a-3b01-4879-9fa9-b72a73ae9ebd" cx="1241.07201" cy="782.43483" r="3.00781"/><circle class="65ae982a-3b01-4879-9fa9-b72a73ae9ebd" cx="1842.09076" cy="592.6479" r="3.00784" transform="translate(113.77936 1464.80836) rotate(-45.00041)"/><polyline class="bbd0e887-5f4b-40ed-ba2b-d87753eb9b15" points="1852.116 2.857 1852.116 377.653 1774.463 455.306 1774.463 576.322"/><circle class="8e77328d-8328-425a-8d34-3b32799dd7b2" cx="1852.1162" cy="3.00783" r="3.00781"/><circle class="8e77328d-8328-425a-8d34-3b32799dd7b2" cx="1774.463" cy="576.1718" r="3.00781"/><line class="bbd0e887-5f4b-40ed-ba2b-d87753eb9b15" x1="1774.463" y1="518.36287" x2="1822.49938" y2="518.36287"/><circle class="8e77328d-8328-425a-8d34-3b32799dd7b2" cx="1822.34899" cy="518.36287" r="3.00781"/><polyline class="bbd0e887-5f4b-40ed-ba2b-d87753eb9b15" points="1730.572 586.478 1557.764 586.478 1520.057 548.771 1265.843 548.771 1306.395 589.323 1440.591 589.323"/><circle class="8e77328d-8328-425a-8d34-3b32799dd7b2" cx="1730.42174" cy="586.47768" r="3.00781"/><circle class="8e77328d-8328-425a-8d34-3b32799dd7b2" cx="1440.44103" cy="589.32295" r="3.00781"/><polyline class="0b098007-38a8-462c-9223-faeebb0ef2d0" points="1733.43 548.271 1733.43 508.715 1662.368 508.715 1634.351 480.698 1357.069 480.698 1357.069 78.582"/><rect class="919c0d3f-8501-401d-8040-25fac91a3d31" x="1730.17955" y="547.77138" width="6.5" height="1"/><rect class="919c0d3f-8501-401d-8040-25fac91a3d31" x="1353.81859" y="78.08202" width="6.5" height="1"/><polyline class="af539510-718f-402a-b84e-4c6acdb6408f" points="1633.32 546.482 1607.831 520.993 1309.241 520.993 1309.241 265.366 1124.495 80.619"/><circle class="1d309929-c3b2-4832-8489-0d017f47756b" cx="1639.8967" cy="557.70309" r="3.00786" transform="translate(79.25597 1311.57697) rotate(-44.99959)"/><path class="cab06455-1d3c-4a50-8d68-c73ac1b002a5" d="M1642.3064,555.2934a3.40785,3.40785,0,1,0,0,4.8194,3.4119,3.4119,0,0,0,0-4.8194C1640.97778,553.96484,1643.635,556.62207,1642.3064,555.2934Zm-4.25378,4.25372a2.60784,2.60784,0,1,1,3.68811,0,2.61031,2.61031,0,0,1-3.68811,0C1637.03565,558.53009,1639.0697,560.56415,1638.05261,559.54712Z" transform="translate(-6.69752 -11.34142)"/><circle class="1d309929-c3b2-4832-8489-0d017f47756b" cx="1131.31271" cy="92.08138" r="3.0078" transform="translate(259.54757 815.59059) rotate(-45.00021)"/><path class="cab06455-1d3c-4a50-8d68-c73ac1b002a5" d="M1133.72241,89.6717a3.4078,3.4078,0,1,1-4.81946,0,3.41193,3.41193,0,0,1,4.81946,0C1135.051,91.00027,1132.3938,88.34307,1133.72241,89.6717Zm-4.25366,4.25369a2.60781,2.60781,0,1,0-.00012-3.688,2.61034,2.61034,0,0,0,.00012,3.688C1130.48572,94.94239,1128.45166,92.90835,1129.46875,93.92539Z" transform="translate(-6.69752 -11.34142)"/><polyline class="af539510-718f-402a-b84e-4c6acdb6408f" points="1309.241 313.427 1262.919 359.748 1262.919 505.477"/><circle class="1d309929-c3b2-4832-8489-0d017f47756b" cx="1262.91942" cy="505.30708" r="3.00781"/><path class="cab06455-1d3c-4a50-8d68-c73ac1b002a5" d="M1266.20911,516.6485a3.40784,3.40784,0,1,1,3.40784,3.40784,3.41188,3.41188,0,0,1-3.40784-3.40784h0Zm6.01563,0a2.60779,2.60779,0,1,0-2.60779,2.60785,2.61036,2.61036,0,0,0,2.60779-2.60785h0Z" transform="translate(-6.69752 -11.34142)"/><polyline class="a7e33770-1078-41b1-b387-3b59de485598" points="1733.43 459.174 1733.43 392.266 1805.132 320.563 1805.132 39.169"/><circle class="1d309929-c3b2-4832-8489-0d017f47756b" cx="1733.42955" cy="459.00385" r="3.00781"/><path class="d1a58f5f-6392-4708-a184-b189eb452d93" d="M1743.53491,470.34525a3.40784,3.40784,0,1,0-3.40784,3.40784,3.4119,3.4119,0,0,0,3.40784-3.40784h0Zm-6.01562,0a2.60785,2.60785,0,1,1,2.60779,2.60785,2.61035,2.61035,0,0,1-2.60779-2.60785h0Z" transform="translate(-6.69752 -11.34142)"/><circle class="1d309929-c3b2-4832-8489-0d017f47756b" cx="1805.13243" cy="39.33975" r="3.00781"/><path class="d1a58f5f-6392-4708-a184-b189eb452d93" d="M1815.23779,50.68118a3.40784,3.40784,0,1,1-3.40784-3.40784,3.4119,3.4119,0,0,1,3.40784,3.40784h0Zm-6.01562,0a2.60779,2.60779,0,1,0,2.60779-2.60784,2.61035,2.61035,0,0,0-2.60779,2.60784h0Z" transform="translate(-6.69752 -11.34142)"/><polyline class="a7e33770-1078-41b1-b387-3b59de485598" points="1688.636 433.03 1543.167 433.03 1407.033 296.896 1407.033 81.319"/><circle class="1d309929-c3b2-4832-8489-0d017f47756b" cx="1688.46556" cy="433.03045" r="3.00782"/><path class="d1a58f5f-6392-4708-a184-b189eb452d93" d="M1695.16309,440.96405a3.40782,3.40782,0,1,0,3.40784,3.40781,3.4118,3.4118,0,0,0-3.40784-3.40781h0Zm0,6.01563a2.60782,2.60782,0,1,1,2.60791-2.60782,2.61035,2.61035,0,0,1-2.60791,2.60782h0Z" transform="translate(-6.69752 -11.34142)"/><circle class="1d309929-c3b2-4832-8489-0d017f47756b" cx="1407.0327" cy="81.48984" r="3.00781"/><path class="d1a58f5f-6392-4708-a184-b189eb452d93" d="M1417.13806,92.83127a3.40784,3.40784,0,1,1-3.40784-3.40784,3.41191,3.41191,0,0,1,3.40784,3.40784h0Zm-6.01562,0a2.60779,2.60779,0,1,0,2.60779-2.60783,2.61027,2.61027,0,0,0-2.60779,2.60783h0Z" transform="translate(-6.69752 -11.34142)"/><polyline class="83d92980-9b46-4778-8830-ab9636399011" points="1713.866 80.103 1680.786 113.183 1680.786 233.741 1748.994 301.95 1748.994 149.022"/><circle class="65ae982a-3b01-4879-9fa9-b72a73ae9ebd" cx="1720.45752" cy="91.55029" r="3.0078" transform="translate(432.47183 1232.01448) rotate(-44.99974)"/><circle class="65ae982a-3b01-4879-9fa9-b72a73ae9ebd" cx="1748.99437" cy="149.17271" r="3.00781"/><polyline class="bbd0e887-5f4b-40ed-ba2b-d87753eb9b15" points="1731.607 330.921 1680.786 392.266 1567.494 392.266 1454.182 278.954 1652.637 278.954 1652.637 355.374 1593.806 355.374 1563.629 325.198 1607.603 325.198"/><circle class="8e77328d-8328-425a-8d34-3b32799dd7b2" cx="1738.20822" cy="342.37809" r="3.00779" transform="translate(358.94667 1451.1521) rotate(-50.36004)"/><circle class="8e77328d-8328-425a-8d34-3b32799dd7b2" cx="1607.45299" cy="325.19774" r="3.00781"/><polyline class="bbd0e887-5f4b-40ed-ba2b-d87753eb9b15" points="1454.182 80.939 1454.182 228.875 1635.609 228.875 1589.555 182.821 1524.131 182.821"/><circle class="8e77328d-8328-425a-8d34-3b32799dd7b2" cx="1454.18212" cy="81.08984" r="3.00781"/><circle class="8e77328d-8328-425a-8d34-3b32799dd7b2" cx="1524.28148" cy="182.82143" r="3.00781"/><polyline class="af539510-718f-402a-b84e-4c6acdb6408f" points="1499.636 37.04 1499.636 143.732 1625.878 143.732 1625.878 37.04"/><circle class="1d309929-c3b2-4832-8489-0d017f47756b" cx="1499.63646" cy="37.21022" r="3.00781"/><path class="cab06455-1d3c-4a50-8d68-c73ac1b002a5" d="M1502.92615,48.55165a3.40778,3.40778,0,1,0,3.40784-3.40784,3.4119,3.4119,0,0,0-3.40784,3.40784h0Zm6.01563,0a2.60785,2.60785,0,1,1-2.60779-2.60784,2.61034,2.61034,0,0,1,2.60779,2.60784h0Z" transform="translate(-6.69752 -11.34142)"/><circle class="1d309929-c3b2-4832-8489-0d017f47756b" cx="1625.87828" cy="37.21022" r="3.00781"/><path class="cab06455-1d3c-4a50-8d68-c73ac1b002a5" d="M1635.98364,48.55165a3.40784,3.40784,0,1,1-3.40784-3.40784,3.4119,3.4119,0,0,1,3.40784,3.40784h0Zm-6.01562,0a2.60779,2.60779,0,1,0,2.60779-2.60784,2.61034,2.61034,0,0,0-2.60779,2.60784h0Z" transform="translate(-6.69752 -11.34142)"/><polyline class="af539510-718f-402a-b84e-4c6acdb6408f" points="1633.32 1296.808 1577.253 1240.741 1577.253 1119.329 1540.58 1082.656 1540.58 993.284 1946.622 993.284 2149.12 790.786 2149.12 710.2 2250.37 608.951 2250.37 557.293 2308.226 557.293 2308.226 589.323 2356.774 589.323 2356.774 444.817"/><circle class="1d309929-c3b2-4832-8489-0d017f47756b" cx="1639.89664" cy="1308.02905" r="3.00779" transform="translate(-451.29913 1531.35346) rotate(-45)"/><path class="cab06455-1d3c-4a50-8d68-c73ac1b002a5" d="M1642.3064,1305.61939a3.40783,3.40783,0,1,0,0,4.81946,3.41194,3.41194,0,0,0,0-4.81946h0Zm-4.25378,4.25366a2.6078,2.6078,0,1,1,3.68811,0,2.61042,2.61042,0,0,1-3.68811,0h0Z" transform="translate(-6.69752 -11.34142)"/><circle class="1d309929-c3b2-4832-8489-0d017f47756b" cx="2356.77416" cy="444.9874" r="3.00781"/><path class="cab06455-1d3c-4a50-8d68-c73ac1b002a5" d="M2366.87964,456.32883a3.40784,3.40784,0,1,1-3.408-3.40784,3.412,3.412,0,0,1,3.408,3.40784h0Zm-6.01562,0a2.60779,2.60779,0,1,0,2.60767-2.60785,2.61026,2.61026,0,0,0-2.60767,2.60785h0Z" transform="translate(-6.69752 -11.34142)"/><polyline class="af539510-718f-402a-b84e-4c6acdb6408f" points="2145.174 635.59 2194.043 586.72 2194.043 498.902 2356.774 498.902"/><circle class="1d309929-c3b2-4832-8489-0d017f47756b" cx="2151.992" cy="646.81055" r="3.00788" transform="translate(166.24222 1699.79315) rotate(-45)"/><path class="cab06455-1d3c-4a50-8d68-c73ac1b002a5" d="M2154.40161,649.22021a3.40781,3.40781,0,1,0-4.81934,0,3.41179,3.41179,0,0,0,4.81934,0C2155.73022,647.89166,2153.073,650.54883,2154.40161,649.22021Zm-4.25366-4.25366a2.6078,2.6078,0,1,1,0,3.688,2.61031,2.61031,0,0,1,0-3.688h0Z" transform="translate(-6.69752 -11.34142)"/><polyline class="af539510-718f-402a-b84e-4c6acdb6408f" points="2363.793 315.716 2286.37 393.139 2142.885 393.139 2142.885 128.757"/><circle class="1d309929-c3b2-4832-8489-0d017f47756b" cx="2370.37048" cy="327.17783" r="3.0078" transform="translate(456.21308 1760.58495) rotate(-44.99979)"/><path class="cab06455-1d3c-4a50-8d68-c73ac1b002a5" d="M2367.96094,324.76813a3.40781,3.40781,0,1,0,4.81933,0,3.41183,3.41183,0,0,0-4.81933,0C2366.63232,326.09671,2369.28955,323.43951,2367.96094,324.76813Zm4.25366,4.25369a2.6078,2.6078,0,1,1,0-3.688,2.61033,2.61033,0,0,1,0,3.688h0Z" transform="translate(-6.69752 -11.34142)"/><circle class="1d309929-c3b2-4832-8489-0d017f47756b" cx="2142.88475" cy="128.92784" r="3.00781"/><path class="cab06455-1d3c-4a50-8d68-c73ac1b002a5" d="M2152.99,140.26927a3.40771,3.40771,0,1,1-3.40771-3.40784,3.41179,3.41179,0,0,1,3.40771,3.40784h0Zm-6.01562,0a2.60791,2.60791,0,1,0,2.60791-2.60783,2.61046,2.61046,0,0,0-2.60791,2.60783h0Z" transform="translate(-6.69752 -11.34142)"/><polyline class="bbd0e887-5f4b-40ed-ba2b-d87753eb9b15" points="2376.46 268.226 2191.395 83.161 2191.395 344.463 2274.374 344.463"/><circle class="8e77328d-8328-425a-8d34-3b32799dd7b2" cx="2383.05115" cy="279.4614" r="3.0078" transform="translate(493.67829 1755.58931) rotate(-45.00021)"/><circle class="8e77328d-8328-425a-8d34-3b32799dd7b2" cx="2274.22374" cy="344.46324" r="3.00781"/><polyline class="bbd0e887-5f4b-40ed-ba2b-d87753eb9b15" points="2233.754 125.52 2233.754 301.95 2304.093 301.95 2304.093 265.366 2284.198 245.471"/><circle class="8e77328d-8328-425a-8d34-3b32799dd7b2" cx="2291.00232" cy="256.91825" r="3.0078" transform="translate(482.65805 1683.89794) rotate(-45.00021)"/><polyline class="0b098007-38a8-462c-9223-faeebb0ef2d0" points="1664.038 1042.875 1869.145 1042.875 1804.078 1107.942 1804.078 1195.782 1751.74 1248.119 1671.493 1167.871"/><rect class="919c0d3f-8501-401d-8040-25fac91a3d31" x="1663.5382" y="1039.62514" width="1" height="6.5"/><rect class="919c0d3f-8501-401d-8040-25fac91a3d31" x="1674.94025" y="1178.7128" width="6.5" height="1.00007" transform="translate(-348.99637 1520.70173) rotate(-45)"/><polyline class="a7e33770-1078-41b1-b387-3b59de485598" points="1666.776 1094.533 1766.341 1094.533 1766.341 1186.345"/><circle class="1d309929-c3b2-4832-8489-0d017f47756b" cx="1666.94603" cy="1094.53288" r="3.00784"/><path class="d1a58f5f-6392-4708-a184-b189eb452d93" d="M1673.64356,1109.2821a3.40778,3.40778,0,1,0-3.40784-3.40784,3.41193,3.41193,0,0,0,3.40784,3.40784h0Zm0-6.01562a2.60785,2.60785,0,1,1-2.60779,2.60779,2.61037,2.61037,0,0,1,2.60779-2.60779h0Z" transform="translate(-6.69752 -11.34142)"/><circle class="1d309929-c3b2-4832-8489-0d017f47756b" cx="1766.34142" cy="1186.17513" r="3.00781"/><path class="d1a58f5f-6392-4708-a184-b189eb452d93" d="M1769.6311,1197.51648a3.40784,3.40784,0,1,1,3.40784,3.40784,3.4119,3.4119,0,0,1-3.40784-3.40784h0Zm6.01575,0a2.60785,2.60785,0,1,0-2.60791,2.60791,2.61039,2.61039,0,0,0,2.60791-2.60791h0Z" transform="translate(-6.69752 -11.34142)"/><line class="a7e33770-1078-41b1-b387-3b59de485598" x1="1718.12743" y1="1145.49733" x2="1766.34142" y2="1145.49733"/><circle class="1d309929-c3b2-4832-8489-0d017f47756b" cx="1718.29778" cy="1145.49733" r="3.00781"/><path class="d1a58f5f-6392-4708-a184-b189eb452d93" d="M1724.99536,1160.24646a3.40778,3.40778,0,1,0-3.40784-3.40772,3.4118,3.4118,0,0,0,3.40784,3.40772h0Zm0-6.01562a2.60785,2.60785,0,1,1-2.60791,2.60791,2.61039,2.61039,0,0,1,2.60791-2.60791h0Z" transform="translate(-6.69752 -11.34142)"/><polyline class="a7e33770-1078-41b1-b387-3b59de485598" points="1178.155 51.012 1313.2 186.057 1313.2 29.344"/><circle class="1d309929-c3b2-4832-8489-0d017f47756b" cx="1184.9729" cy="62.4734" r="3.00781" transform="translate(296.20084 844.86255) rotate(-45.00023)"/><path class="d1a58f5f-6392-4708-a184-b189eb452d93" d="M1182.56323,64.88309a3.4078,3.4078,0,1,0,0-4.81939,3.41186,3.41186,0,0,0,0,4.81939C1183.89185,66.21167,1181.23462,63.55447,1182.56323,64.88309Zm4.25366-4.25369a2.60781,2.60781,0,1,1-3.688,0,2.61019,2.61019,0,0,1,3.688,0C1187.834,61.6464,1185.79993,59.61236,1186.8169,60.62941Z" transform="translate(-6.69752 -11.34142)"/><circle class="1d309929-c3b2-4832-8489-0d017f47756b" cx="1313.19994" cy="29.51409" r="3.00781"/><path class="d1a58f5f-6392-4708-a184-b189eb452d93" d="M1323.3053,40.85552a3.40784,3.40784,0,1,1-3.40784-3.40784,3.4119,3.4119,0,0,1,3.40784,3.40784h0Zm-6.01562,0a2.60779,2.60779,0,1,0,2.60779-2.60784,2.61034,2.61034,0,0,0-2.60779,2.60784h0Z" transform="translate(-6.69752 -11.34142)"/><polyline class="a7e33770-1078-41b1-b387-3b59de485598" points="1154.394 936.691 1226.921 832.489 1297.468 832.489 1389.271 740.686"/><circle class="1d309929-c3b2-4832-8489-0d017f47756b" cx="1161.18924" cy="947.89223" r="3.00782" transform="translate(-286.85446 1348.11042) rotate(-55.16124)"/><path class="d1a58f5f-6392-4708-a184-b189eb452d93" d="M1163.98633,949.839a3.40785,3.40785,0,1,0-4.7439.85028,3.412,3.412,0,0,0,4.7439-.85028C1165.05957,948.29688,1162.91284,951.38116,1163.98633,949.839Zm-4.9375-3.43652a2.60784,2.60784,0,1,1,.65063,3.63019,2.61032,2.61032,0,0,1-.65063-3.63019h0Z" transform="translate(-6.69752 -11.34142)"/><circle class="1d309929-c3b2-4832-8489-0d017f47756b" cx="1395.84842" cy="752.14743" r="3.00786" transform="translate(-129.7148 1195.96045) rotate(-44.99959)"/><path class="d1a58f5f-6392-4708-a184-b189eb452d93" d="M1398.25806,754.55713a3.40781,3.40781,0,1,1,.00012-4.8194,3.4119,3.4119,0,0,1-.00012,4.8194C1396.92957,755.88568,1399.58679,753.22852,1398.25806,754.55713Zm-4.25366-4.25366a2.6078,2.6078,0,1,0,3.688-.00006,2.61042,2.61042,0,0,0-3.688.00006h0Z" transform="translate(-6.69752 -11.34142)"/><path class="af539510-718f-402a-b84e-4c6acdb6408f" d="M1128.903,1241.07947V1129.63672h104.71521V1028.401s109.47022-2.43274,109.47022,0V872.71039l155.69067-155.69061h301.65063l57.28491,57.28485h35.15649l73.79028-73.79022" transform="translate(-6.69752 -11.34142)"/><circle class="1d309929-c3b2-4832-8489-0d017f47756b" cx="1122.20543" cy="1229.56767" r="3.00778"/><path class="cab06455-1d3c-4a50-8d68-c73ac1b002a5" d="M1132.31079,1240.90906a3.40778,3.40778,0,1,0-3.40784,3.40784,3.41183,3.41183,0,0,0,3.40784-3.40784h0Zm-6.01562,0a2.60785,2.60785,0,1,1,2.60779,2.60791,2.61036,2.61036,0,0,1-2.60779-2.60791h0Z" transform="translate(-6.69752 -11.34142)"/><circle class="1d309929-c3b2-4832-8489-0d017f47756b" cx="1966.54089" cy="700.63484" r="3.00779" transform="translate(73.8589 1584.41065) rotate(-44.99959)"/><path class="cab06455-1d3c-4a50-8d68-c73ac1b002a5" d="M1968.95056,703.04456a3.40781,3.40781,0,1,1,0-4.8194,3.41191,3.41191,0,0,1,0,4.8194C1967.62195,704.37311,1970.27918,701.71594,1968.95056,703.04456Zm-4.25366-4.25372a2.60782,2.60782,0,1,0,3.688,0,2.61031,2.61031,0,0,0-3.688,0C1963.67981,699.80786,1965.71387,697.7738,1964.6969,698.79083Z" transform="translate(-6.69752 -11.34142)"/><polyline class="af539510-718f-402a-b84e-4c6acdb6408f" points="462.15 1336.683 622.914 1336.683 756.867 1202.731 756.867 1127.594 857.958 1127.594"/><circle class="1d309929-c3b2-4832-8489-0d017f47756b" cx="462.32016" cy="1336.68336" r="3.00781"/><path class="cab06455-1d3c-4a50-8d68-c73ac1b002a5" d="M469.0177,1351.4325a3.40778,3.40778,0,1,0-3.40784-3.40772,3.4118,3.4118,0,0,0,3.40784,3.40772h0Zm0-6.01562a2.60785,2.60785,0,1,1-2.60782,2.60791,2.61037,2.61037,0,0,1,2.60782-2.60791h0Z" transform="translate(-6.69752 -11.34142)"/><circle class="1d309929-c3b2-4832-8489-0d017f47756b" cx="857.78783" cy="1127.59364" r="3.00781"/><path class="cab06455-1d3c-4a50-8d68-c73ac1b002a5" d="M864.48535,1142.3429a3.40784,3.40784,0,1,1,3.40784-3.40784,3.41188,3.41188,0,0,1-3.40784,3.40784h0Zm0-6.01562a2.60779,2.60779,0,1,0,2.60785,2.60779,2.61033,2.61033,0,0,0-2.60785-2.60779h0Z" transform="translate(-6.69752 -11.34142)"/><polyline class="a7e33770-1078-41b1-b387-3b59de485598" points="833.104 1070.578 887.388 1070.578 1095.495 862.472 1095.495 762.963 1180.654 677.804"/><circle class="1d309929-c3b2-4832-8489-0d017f47756b" cx="833.27443" cy="1070.57838" r="3.00781"/><path class="d1a58f5f-6392-4708-a184-b189eb452d93" d="M839.972,1085.32752a3.40778,3.40778,0,1,0-3.40784-3.40772,3.41181,3.41181,0,0,0,3.40784,3.40772h0Zm0-6.01562a2.60785,2.60785,0,1,1-2.60785,2.60791,2.61039,2.61039,0,0,1,2.60785-2.60791h0Z" transform="translate(-6.69752 -11.34142)"/><circle class="1d309929-c3b2-4832-8489-0d017f47756b" cx="1187.23059" cy="689.26622" r="3.00781" transform="translate(-146.35055 1030.03879) rotate(-45)"/><path class="d1a58f5f-6392-4708-a184-b189eb452d93" d="M1189.64026,691.6759a3.40779,3.40779,0,1,1,0-4.8194,3.41185,3.41185,0,0,1,0,4.8194h0Zm-4.25366-4.25366a2.6078,2.6078,0,1,0,3.688-.00006,2.6102,2.6102,0,0,0-3.688.00006C1184.36951,688.43921,1186.40356,686.40515,1185.3866,687.42224Z" transform="translate(-6.69752 -11.34142)"/><polyline class="83d92980-9b46-4778-8830-ab9636399011" points="1180.922 740.943 1150.798 771.067 1150.798 873.047 924.476 1099.369 924.476 1276.547"/><circle class="65ae982a-3b01-4879-9fa9-b72a73ae9ebd" cx="1187.51343" cy="752.39037" r="3.00779" transform="translate(-190.90543 1048.71758) rotate(-44.99959)"/><circle class="65ae982a-3b01-4879-9fa9-b72a73ae9ebd" cx="924.47557" cy="1276.39613" r="3.00781"/><polyline class="0b098007-38a8-462c-9223-faeebb0ef2d0" points="887.035 1165.141 800.593 1251.583 887.388 1251.583 887.388 1336.683 962.72 1336.683 962.72 1127.594 1087.727 1002.587"/><rect class="919c0d3f-8501-401d-8040-25fac91a3d31" x="893.23238" y="1173.23236" width="1.00002" height="6.5" transform="translate(-576.83665 965.2697) rotate(-45.00247)"/><rect class="919c0d3f-8501-401d-8040-25fac91a3d31" x="1093.92449" y="1010.67801" width="1.00002" height="6.5" transform="translate(-403.10583 1059.44187) rotate(-44.99753)"/><polyline class="83d92980-9b46-4778-8830-ab9636399011" points="720.454 1313.561 829.867 1313.561 829.867 1333.826"/><circle class="65ae982a-3b01-4879-9fa9-b72a73ae9ebd" cx="720.60402" cy="1313.56142" r="3.00781"/><circle class="65ae982a-3b01-4879-9fa9-b72a73ae9ebd" cx="829.86663" cy="1333.67549" r="3.00781"/><polyline class="bbd0e887-5f4b-40ed-ba2b-d87753eb9b15" points="1037.825 1117.216 1009.694 1145.348 1009.694 1276.547"/><circle class="8e77328d-8328-425a-8d34-3b32799dd7b2" cx="1044.41638" cy="1128.66418" r="3.00779" transform="translate(-498.88114 1057.75058) rotate(-45)"/><circle class="8e77328d-8328-425a-8d34-3b32799dd7b2" cx="1009.69416" cy="1276.39613" r="3.00783"/><polyline class="bbd0e887-5f4b-40ed-ba2b-d87753eb9b15" points="1226.932 1310.704 1226.932 1232.138 1295.214 1232.138 1351.714 1288.639"/><circle class="8e77328d-8328-425a-8d34-3b32799dd7b2" cx="1226.932" cy="1310.5536" r="3.00781"/><circle class="8e77328d-8328-425a-8d34-3b32799dd7b2" cx="1358.30502" cy="1299.87366" r="3.00784" transform="translate(-528.00926 1329.82249) rotate(-44.99918)"/><polyline class="83d92980-9b46-4778-8830-ab9636399011" points="1682.806 1327.143 1698.936 1343.273 1774.463 1343.273 1911.71 1206.026 1911.71 1141.193 1981.415 1141.193 2338.323 784.285"/><circle class="65ae982a-3b01-4879-9fa9-b72a73ae9ebd" cx="1689.60999" cy="1338.59055" r="3.00779" transform="translate(-458.34867 1575.45736) rotate(-45)"/><circle class="65ae982a-3b01-4879-9fa9-b72a73ae9ebd" cx="2344.91394" cy="795.73293" r="3.00779" transform="translate(117.43586 1879.81198) rotate(-44.99959)"/><polyline class="a7e33770-1078-41b1-b387-3b59de485598" points="2271.213 764.44 2355.058 680.595 2544.065 680.595"/><circle class="1d309929-c3b2-4832-8489-0d017f47756b" cx="2278.03094" cy="775.66107" r="3.00779" transform="translate(112.07758 1826.71755) rotate(-45.00164)"/><path class="d1a58f5f-6392-4708-a184-b189eb452d93" d="M2280.44067,778.07074a3.40781,3.40781,0,1,0-4.81934,0,3.41179,3.41179,0,0,0,4.81934,0C2281.76929,776.74219,2279.11206,779.39935,2280.44067,778.07074Zm-4.25366-4.25366a2.6078,2.6078,0,1,1,0,3.688,2.61031,2.61031,0,0,1,0-3.688h0Z" transform="translate(-6.69752 -11.34142)"/><circle class="1d309929-c3b2-4832-8489-0d017f47756b" cx="2543.89464" cy="680.59492" r="3.00781"/><path class="d1a58f5f-6392-4708-a184-b189eb452d93" d="M2550.592,695.34412a3.40781,3.40781,0,1,1,3.408-3.40778,3.41193,3.41193,0,0,1-3.408,3.40778h0Zm0-6.01562a2.60782,2.60782,0,1,0,2.60791,2.60785,2.61027,2.61027,0,0,0-2.60791-2.60785h0Z" transform="translate(-6.69752 -11.34142)"/><polyline class="bbd0e887-5f4b-40ed-ba2b-d87753eb9b15" points="2544.445 344.463 2420.225 344.463 2420.225 640.059 2298.009 640.059 2199.671 738.396 2199.671 816.541 1981.415 1034.797 1938.533 1034.797 1845.736 1127.594 1845.736 1208.131 1774.463 1279.404 1711.567 1279.404 1625.878 1193.716 1625.878 1047.799"/><circle class="8e77328d-8328-425a-8d34-3b32799dd7b2" cx="2544.29467" cy="344.46324" r="3.00781"/><circle class="8e77328d-8328-425a-8d34-3b32799dd7b2" cx="1625.87828" cy="1047.94923" r="3.00781"/><polyline class="0b098007-38a8-462c-9223-faeebb0ef2d0" points="2285.291 83.514 2458.522 256.745 2546.802 256.745"/><rect class="919c0d3f-8501-401d-8040-25fac91a3d31" x="2288.73853" y="94.35559" width="6.5" height="0.99995" transform="translate(597.45355 1637.03071) rotate(-44.99691)"/><rect class="919c0d3f-8501-401d-8040-25fac91a3d31" x="2546.30248" y="253.49501" width="1" height="6.5"/><polyline class="a7e33770-1078-41b1-b387-3b59de485598" points="2426.423 106.335 2426.423 143.732 2479.114 143.732 2479.114 210.497"/><circle class="1d309929-c3b2-4832-8489-0d017f47756b" cx="2426.42333" cy="106.5058" r="3.00781"/><path class="d1a58f5f-6392-4708-a184-b189eb452d93" d="M2429.71314,117.84723a3.40784,3.40784,0,1,0,3.40771-3.40784,3.4118,3.4118,0,0,0-3.40771,3.40784h0Zm6.01563,0a2.60779,2.60779,0,1,1-2.60791-2.60783,2.61029,2.61029,0,0,1,2.60791,2.60783h0Z" transform="translate(-6.69752 -11.34142)"/><circle class="1d309929-c3b2-4832-8489-0d017f47756b" cx="2479.11425" cy="210.32704" r="3.00781"/><path class="d1a58f5f-6392-4708-a184-b189eb452d93" d="M2482.40405,221.66844a3.40784,3.40784,0,1,1,3.40771,3.40785,3.41179,3.41179,0,0,1-3.40771-3.40785h0Zm6.01563,0a2.60779,2.60779,0,1,0-2.60791,2.60785,2.61029,2.61029,0,0,0,2.60791-2.60785h0Z" transform="translate(-6.69752 -11.34142)"/><polyline class="a7e33770-1078-41b1-b387-3b59de485598" points="1871.434 1322.833 2021.81 1172.456 2085.652 1172.456 2203.314 1054.795 2142.885 1054.795 2455.763 741.916 2360.012 741.916"/><circle class="1d309929-c3b2-4832-8489-0d017f47756b" cx="1878.25195" cy="1334.05396" r="3.00779" transform="translate(-399.88886 1707.51863) rotate(-45)"/><path class="d1a58f5f-6392-4708-a184-b189eb452d93" d="M1880.66162,1336.46362a3.40779,3.40779,0,1,0-4.81934,0,3.41179,3.41179,0,0,0,4.81934,0h0ZM1876.408,1332.21a2.6078,2.6078,0,1,1,0,3.688,2.61042,2.61042,0,0,1,0-3.688h0Z" transform="translate(-6.69752 -11.34142)"/><circle class="1d309929-c3b2-4832-8489-0d017f47756b" cx="2360.18212" cy="741.91628" r="3.00781"/><path class="d1a58f5f-6392-4708-a184-b189eb452d93" d="M2366.87964,749.84985a3.40784,3.40784,0,1,1-3.408,3.40784,3.41183,3.41183,0,0,1,3.408-3.40784h0Zm0,6.01563a2.60779,2.60779,0,1,0-2.60791-2.60779,2.61022,2.61022,0,0,0,2.60791,2.60779h0Z" transform="translate(-6.69752 -11.34142)"/><polyline class="bbd0e887-5f4b-40ed-ba2b-d87753eb9b15" points="2498.047 1287.325 2356.774 1287.325 2310.831 1241.382 2038.937 1241.382 1989.225 1291.094"/><circle class="8e77328d-8328-425a-8d34-3b32799dd7b2" cx="2497.89623" cy="1287.32484" r="3.00781"/><circle class="8e77328d-8328-425a-8d34-3b32799dd7b2" cx="1996.02893" cy="1302.32883" r="3.00779" transform="translate(-342.96677 1781.47399) rotate(-44.99918)"/><polyline class="0b098007-38a8-462c-9223-faeebb0ef2d0" points="2143.238 1189.229 2237.935 1094.533 2317.164 1015.304 2268.924 1015.304 2514.941 769.286"/><rect class="919c0d3f-8501-401d-8040-25fac91a3d31" x="2149.43584" y="1197.3208" width="0.99989" height="6.5" transform="translate(-225.92766 1860.53181) rotate(-45)"/><rect class="919c0d3f-8501-401d-8040-25fac91a3d31" x="2521.13872" y="777.3772" width="1.00015" height="6.5" transform="translate(179.78036 2000.16536) rotate(-44.99506)"/><polyline class="0b098007-38a8-462c-9223-faeebb0ef2d0" points="2234.254 1197.3 2366.083 1197.3 2406.166 1237.382 2514.795 1237.382"/><rect class="919c0d3f-8501-401d-8040-25fac91a3d31" x="2233.75365" y="1194.04994" width="1" height="6.5"/><rect class="919c0d3f-8501-401d-8040-25fac91a3d31" x="2514.29491" y="1234.13246" width="1" height="6.5"/><polyline class="83d92980-9b46-4778-8830-ab9636399011" points="2284.937 1118.053 2284.937 1151.25 2426.423 1151.25 2458.763 1183.589 2458.763 1045.733"/><circle class="65ae982a-3b01-4879-9fa9-b72a73ae9ebd" cx="2284.93749" cy="1118.20375" r="3.00781"/><circle class="65ae982a-3b01-4879-9fa9-b72a73ae9ebd" cx="2458.76268" cy="1045.88295" r="3.00781"/><polyline class="83d92980-9b46-4778-8830-ab9636399011" points="2329.09 1151.25 2329.09 1062.769 2508.638 883.22"/><circle class="65ae982a-3b01-4879-9fa9-b72a73ae9ebd" cx="2515.22955" cy="894.66785" r="3.00779" transform="translate(97.40334 2029.3058) rotate(-45.00164)"/><line class="83d92980-9b46-4778-8830-ab9636399011" x1="2389.62548" y1="1002.23305" x2="2389.62548" y2="1091.67543"/><circle class="65ae982a-3b01-4879-9fa9-b72a73ae9ebd" cx="2389.62548" cy="1091.52504" r="3.00781"/><polyline class="af539510-718f-402a-b84e-4c6acdb6408f" points="111.371 447.432 65.049 401.111 65.049 332.689 65.049 252.144 4.234 252.144"/><circle class="1d309929-c3b2-4832-8489-0d017f47756b" cx="4.40427" cy="252.14372" r="3.00781"/><path class="cab06455-1d3c-4a50-8d68-c73ac1b002a5" d="M11.10181,260.07733A3.40781,3.40781,0,1,1,7.694,263.48514a3.41188,3.41188,0,0,1,3.40784-3.40781h0Zm0,6.01563A2.60782,2.60782,0,1,0,8.494,263.48514a2.61035,2.61035,0,0,0,2.60784,2.60782h0Z" transform="translate(-6.69752 -11.34142)"/><path class="6687a3a9-b81c-4907-86b4-1b6c9268ce98" d="M26.11834,1361.65946" transform="translate(-6.69752 -11.34142)"/><path class="6687a3a9-b81c-4907-86b4-1b6c9268ce98" d="M160.30259,1361.65946" transform="translate(-6.69752 -11.34142)"/></g><g class="9fd25bc3-2829-42da-8630-693f7177ab79"><polyline class="a7e33770-1078-41b1-b387-3b59de485598" points="24.302 1350.659 131.619 1350.659 243.336 1350.659 127.636 1234.659 24.302 1234.659"/><circle class="1d309929-c3b2-4832-8489-0d017f47756b" cx="24.82865" cy="1350.33498" r="3.00781"/><path class="d1a58f5f-6392-4708-a184-b189eb452d93" d="M31.52618,1365.08411a3.40778,3.40778,0,1,0-3.40784-3.40771,3.4118,3.4118,0,0,0,3.40784,3.40771h0Zm0-6.01562a2.60785,2.60785,0,1,1-2.60784,2.60791,2.61037,2.61037,0,0,1,2.60784-2.60791h0Z" transform="translate(-6.69752 -11.34142)"/><circle class="1d309929-c3b2-4832-8489-0d017f47756b" cx="24.82865" cy="1234.63515" r="3.00781"/><path class="d1a58f5f-6392-4708-a184-b189eb452d93" d="M31.52618,1242.56873a3.40778,3.40778,0,1,1-3.40784,3.40784,3.4119,3.4119,0,0,1,3.40784-3.40784h0Zm0,6.01563a2.60785,2.60785,0,1,0-2.60784-2.60779,2.61035,2.61035,0,0,0,2.60784,2.60779h0Z" transform="translate(-6.69752 -11.34142)"/></g></svg>