<svg id="57f7f9de-ac1a-46e8-a910-a3693fbadff5" data-name="Layer 1" xmlns="http://www.w3.org/2000/svg" viewBox="0 0 2511.98473 1401.67826"><defs><style>.\33 bc8174a-0905-4065-bad2-18c8abfd864c{opacity:0.1;}.\31 e1d6e04-e895-42ba-b84f-21ce05c35f71,.\35 8322548-048b-451b-a281-16b1142debc4,.\39 ce7ac25-a9e3-4abd-9f2e-780950caf92f,.a05f6aea-809d-4557-8cac-76db90951e3c,.ad21cd7e-fbfc-4b6e-ae23-057625cdbde1,.fa79ac2d-abb8-45d4-9067-438c1f9d0e25{fill:none;}.ad21cd7e-fbfc-4b6e-ae23-057625cdbde1{stroke:#96d4e6;}.\35 8322548-048b-451b-a281-16b1142debc4,.\39 ce7ac25-a9e3-4abd-9f2e-780950caf92f,.a05f6aea-809d-4557-8cac-76db90951e3c,.ad21cd7e-fbfc-4b6e-ae23-057625cdbde1,.fa79ac2d-abb8-45d4-9067-438c1f9d0e25{stroke-miterlimit:10;stroke-width:2px;}.\35 caadc7f-d0d8-4e8e-bf84-7926ac8af1d5{fill:#96d4e6;}.\39 ce7ac25-a9e3-4abd-9f2e-780950caf92f{stroke:#b6d27b;}.\39 845c2c5-cbf3-442b-9e90-d24f12026d06{fill:#b6d27b;}.a05f6aea-809d-4557-8cac-76db90951e3c{stroke:#6768a3;}.\35 6647b6a-7f6c-4755-afdd-ba0006266f5c{fill:#6768a3;}.fa79ac2d-abb8-45d4-9067-438c1f9d0e25{stroke:#ef88ac;}.\37 818139c-49f4-4e2c-8a0a-55a12240a34f{fill:#fff;}.\36 7dd6a7b-b123-4683-8737-d6347807e075{fill:#ef88ac;}.\35 8322548-048b-451b-a281-16b1142debc4{stroke:#f29777;}.\38 2ae3829-019c-40dd-97dd-b1557ff37789{fill:#f29777;}</style></defs><title>welcome-background</title><g class="3bc8174a-0905-4065-bad2-18c8abfd864c"><polyline class="ad21cd7e-fbfc-4b6e-ae23-057625cdbde1" points="875.127 39.805 875.127 767.738 745.435 902.974 644.563 902.974 585.121 840.99 392.385 840.99 274.577 963.833"/><circle class="5caadc7f-d0d8-4e8e-bf84-7926ac8af1d5" cx="875.12719" cy="39.95526" r="3.00781"/><circle class="5caadc7f-d0d8-4e8e-bf84-7926ac8af1d5" cx="299.01241" cy="983.2774" r="3.00781" transform="translate(-641.95828 498.95143) rotate(-46.19875)"/><polyline class="9ce7ac25-a9e3-4abd-9f2e-780950caf92f" points="289.888 1171.383 343.75 1115.219 343.75 981.861 418.503 903.913 573.863 903.913 637.133 969.887 763.448 969.887 932.43 793.681 932.43 613.719 977.631 566.586 977.631 455.944 1138.114 455.944 1186.572 405.415"/><circle class="9845c2c5-cbf3-442b-9e90-d24f12026d06" cx="314.32315" cy="1190.827" r="3.00784" transform="translate(-787.04938 573.90583) rotate(-46.19937)"/><circle class="9845c2c5-cbf3-442b-9e90-d24f12026d06" cx="1210.79846" cy="425.07549" r="3.00784" transform="translate(41.61043 985.19911) rotate(-46.19915)"/><polyline class="a05f6aea-809d-4557-8cac-76db90951e3c" points="356.013 1323.346 228.468 1190.35 228.468 925.513 358.16 790.277 608.538 790.277 662.576 846.625 738.23 846.625 837.3 743.32 837.3 388.826"/><rect class="56647b6a-7f6c-4755-afdd-ba0006266f5c" x="377.09384" y="1342.39897" width="6.49999" height="1.00003" transform="translate(-847.95994 617.30933) rotate(-43.79817)"/><rect class="56647b6a-7f6c-4755-afdd-ba0006266f5c" x="834.05028" y="388.32591" width="6.5" height="1"/><polyline class="fa79ac2d-abb8-45d4-9067-438c1f9d0e25" points="386.244 1204.129 386.244 1388.498 331.07 1388.498 182.339 1233.41 182.339 1100.835 122.368 1100.835 122.368 1203.393 22.453 1203.393"/><circle class="7818139c-49f4-4e2c-8a0a-55a12240a34f" cx="386.24404" cy="1204.29972" r="3.00781"/><path class="67dd6a7b-b123-4683-8737-d6347807e075" d="M407.16718,1223.85217a3.40781,3.40781,0,1,0,3.40781-3.40784,3.4119,3.4119,0,0,0-3.40781,3.40784h0Zm6.01563,0a2.60782,2.60782,0,1,1-2.60782-2.60779,2.61027,2.61027,0,0,1,2.60782,2.60779h0Z" transform="translate(-24.33094 -19.55245)"/><circle class="7818139c-49f4-4e2c-8a0a-55a12240a34f" cx="22.62368" cy="1203.39347" r="3.00781"/><path class="67dd6a7b-b123-4683-8737-d6347807e075" d="M46.95463,1219.53809a3.40784,3.40784,0,1,1-3.40784,3.40784,3.4119,3.4119,0,0,1,3.40784-3.40784h0Zm0,6.01563a2.60779,2.60779,0,1,0-2.60784-2.60779,2.61035,2.61035,0,0,0,2.60784,2.60779h0Z" transform="translate(-24.33094 -19.55245)"/><path class="58322548-048b-451b-a281-16b1142debc4" d="M821.59833,728.18561l-72.78162,75.89307H714.1485L657.65936,745.1748H360.19864L206.6703,905.26556v160.09076c0-2.50147-107.94936,0-107.94936,0L45.1088,1009.45252" transform="translate(-24.33094 -19.55245)"/><circle class="7818139c-49f4-4e2c-8a0a-55a12240a34f" cx="821.48038" cy="728.30861" r="3.00783" transform="translate(-297.09873 797.55025) rotate(-46.19875)"/><path class="82ae3829-019c-40dd-97dd-b1557ff37789" d="M819.02081,725.94989a3.4078,3.4078,0,1,0,4.8183-.10089,3.41184,3.41184,0,0,0-4.8183.10089C817.72028,727.306,820.32129,724.59375,819.02081,725.94989Zm4.34174,4.16376a2.60781,2.60781,0,1,1-.07715-3.68726,2.61042,2.61042,0,0,1,.07715,3.68726C822.36707,731.15167,824.35809,729.0755,823.36255,730.11365Z" transform="translate(-24.33094 -19.55245)"/><circle class="7818139c-49f4-4e2c-8a0a-55a12240a34f" cx="45.22673" cy="1009.57547" r="3.00781" transform="translate(-710.53156 292.66937) rotate(-43.80113)"/><path class="82ae3829-019c-40dd-97dd-b1557ff37789" d="M47.68632,1007.21674a3.40781,3.40781,0,1,1-4.81834-.10083,3.41188,3.41188,0,0,1,4.81834.10083h0Zm-4.34176,4.16376a2.60782,2.60782,0,1,0,.07714-3.68719,2.61034,2.61034,0,0,0-.07714,3.68719C44.34006,1012.41858,42.349,1010.34241,43.34456,1011.38049Z" transform="translate(-24.33094 -19.55245)"/><polyline class="58322548-048b-451b-a281-16b1142debc4" points="182.339 965.896 74.39 965.896 21.5 910.745"/><circle class="7818139c-49f4-4e2c-8a0a-55a12240a34f" cx="45.94878" cy="930.42032" r="3.00781" transform="translate(-655.54283 271.14395) rotate(-43.80113)"/><path class="82ae3829-019c-40dd-97dd-b1557ff37789" d="M48.40836,928.06158a3.40781,3.40781,0,1,1-4.81834-.10083,3.41188,3.41188,0,0,1,4.81834.10083h0Zm-4.34175,4.16376a2.60782,2.60782,0,1,0,.07714-3.68719,2.61029,2.61029,0,0,0-.07714,3.68719C45.06211,933.26343,43.07106,931.18726,44.06661,932.22534Z" transform="translate(-24.33094 -19.55245)"/><polyline class="58322548-048b-451b-a281-16b1142debc4" points="707.693 784.526 707.693 693.104 800.379 596.457 800.379 109.249"/><circle class="7818139c-49f4-4e2c-8a0a-55a12240a34f" cx="800.37896" cy="109.41958" r="3.00781"/><path class="82ae3829-019c-40dd-97dd-b1557ff37789" d="M828.11774,128.972a3.40781,3.40781,0,1,1-3.40784-3.40784,3.4119,3.4119,0,0,1,3.40784,3.40784h0Zm-6.01562,0a2.60782,2.60782,0,1,0,2.60779-2.60785,2.6103,2.6103,0,0,0-2.60779,2.60785h0Z" transform="translate(-24.33094 -19.55245)"/><polyline class="9ce7ac25-a9e3-4abd-9f2e-780950caf92f" points="921.193 108.869 921.193 513.002 977.631 513.002"/><circle class="9845c2c5-cbf3-442b-9e90-d24f12026d06" cx="921.19347" cy="109.01958" r="3.00781"/><line class="58322548-048b-451b-a281-16b1142debc4" x1="799.50817" y1="272.86543" x2="834.06286" y2="272.86543"/><circle class="7818139c-49f4-4e2c-8a0a-55a12240a34f" cx="833.89245" cy="272.86543" r="3.00781"/><path class="82ae3829-019c-40dd-97dd-b1557ff37789" d="M858.22339,295.82571a3.40782,3.40782,0,1,1,3.40784-3.40784,3.41188,3.41188,0,0,1-3.40784,3.40784h0Zm0-6.01566a2.60782,2.60782,0,1,0,2.60785,2.60782,2.61037,2.61037,0,0,0-2.60785-2.60782h0Z" transform="translate(-24.33094 -19.55245)"/><polyline class="fa79ac2d-abb8-45d4-9067-438c1f9d0e25" points="726.884 40.185 726.884 155.299 772.845 203.224 772.845 403.352 716.479 462.128 716.479 620.563 653.314 686.428 202.73 686.428 134.601 757.469"/><circle class="7818139c-49f4-4e2c-8a0a-55a12240a34f" cx="726.88445" cy="40.35526" r="3.00781"/><path class="67dd6a7b-b123-4683-8737-d6347807e075" d="M747.80756,59.90773a3.40784,3.40784,0,1,0,3.40784-3.40784,3.4119,3.4119,0,0,0-3.40784,3.40784h0Zm6.01563,0a2.60779,2.60779,0,1,1-2.60779-2.60784,2.61031,2.61031,0,0,1,2.60779,2.60784h0Z" transform="translate(-24.33094 -19.55245)"/><circle class="7818139c-49f4-4e2c-8a0a-55a12240a34f" cx="159.04982" cy="776.89853" r="3.0078" transform="translate(-536.09232 334.4034) rotate(-46.19885)"/><path class="67dd6a7b-b123-4683-8737-d6347807e075" d="M156.59024,774.53973a3.40783,3.40783,0,1,1,.10081,4.81836,3.41186,3.41186,0,0,1-.10081-4.81836C157.89073,773.18365,155.2897,775.89587,156.59024,774.53973Zm4.34177,4.16382a2.60782,2.60782,0,1,0-3.68723.07715,2.61036,2.61036,0,0,0,3.68723-.07715C161.92751,777.66547,159.93646,779.74164,160.932,778.70355Z" transform="translate(-24.33094 -19.55245)"/><polyline class="fa79ac2d-abb8-45d4-9067-438c1f9d0e25" points="234.502 761.602 143.957 856.017 74.39 856.017 21.695 801.069"/><circle class="7818139c-49f4-4e2c-8a0a-55a12240a34f" cx="258.71528" cy="781.27707" r="3.00781" transform="translate(-508.57065 407.68317) rotate(-46.19875)"/><path class="67dd6a7b-b123-4683-8737-d6347807e075" d="M256.25568,778.91834a3.40781,3.40781,0,1,0,4.81836-.10083,3.41188,3.41188,0,0,0-4.81836.10083C254.9552,780.27441,257.55624,777.56219,256.25568,778.91834Zm4.34177,4.16376a2.60781,2.60781,0,1,1-.07715-3.68719,2.61036,2.61036,0,0,1,.07715,3.68719C259.60193,784.12018,261.593,782.044,260.59744,783.08209Z" transform="translate(-24.33094 -19.55245)"/><circle class="7818139c-49f4-4e2c-8a0a-55a12240a34f" cx="46.1439" cy="820.7446" r="3.00781" transform="translate(-579.57568 240.76137) rotate(-43.80113)"/><path class="67dd6a7b-b123-4683-8737-d6347807e075" d="M48.60349,818.38586a3.40781,3.40781,0,1,1-4.81834-.10083,3.41188,3.41188,0,0,1,4.81834.10083h0Zm-4.34176,4.16376a2.60782,2.60782,0,1,0,.07714-3.68719,2.61034,2.61034,0,0,0-.07714,3.68719C45.25723,823.58771,43.26619,821.51154,44.26173,822.54962Z" transform="translate(-24.33094 -19.55245)"/><polyline class="9ce7ac25-a9e3-4abd-9f2e-780950caf92f" points="88.345 804.784 88.345 645.577 628.53 645.577 674.53 597.611"/><circle class="9845c2c5-cbf3-442b-9e90-d24f12026d06" cx="88.34475" cy="804.63316" r="3.00781"/><circle class="9845c2c5-cbf3-442b-9e90-d24f12026d06" cx="698.75713" cy="617.27182" r="3.00783" transform="translate(-254.73773 674.79367) rotate(-46.19875)"/><polyline class="ad21cd7e-fbfc-4b6e-ae23-057625cdbde1" points="690.901 83.146 690.901 388.326 614.327 468.174 614.327 592.691"/><circle class="5caadc7f-d0d8-4e8e-bf84-7926ac8af1d5" cx="690.90142" cy="83.29661" r="3.00781"/><circle class="5caadc7f-d0d8-4e8e-bf84-7926ac8af1d5" cx="614.3269" cy="592.54066" r="3.00781"/><line class="ad21cd7e-fbfc-4b6e-ae23-057625cdbde1" x1="614.3269" y1="533.01292" x2="661.6563" y2="533.01292"/><circle class="5caadc7f-d0d8-4e8e-bf84-7926ac8af1d5" cx="661.50591" cy="533.01292" r="3.00781"/><polyline class="ad21cd7e-fbfc-4b6e-ae23-057625cdbde1" points="571.006 603.053 400.637 603.053 363.455 564.281 112.772 564.281 152.761 605.978 285.053 605.978"/><circle class="5caadc7f-d0d8-4e8e-bf84-7926ac8af1d5" cx="570.85555" cy="603.05278" r="3.00781"/><circle class="5caadc7f-d0d8-4e8e-bf84-7926ac8af1d5" cx="284.90249" cy="605.9785" r="3.00781"/><polyline class="a05f6aea-809d-4557-8cac-76db90951e3c" points="573.863 563.781 573.863 523.092 503.789 523.092 476.161 494.284 202.73 494.284 202.73 80.789"/><rect class="56647b6a-7f6c-4755-afdd-ba0006266f5c" x="570.61339" y="563.28086" width="6.5" height="1"/><rect class="56647b6a-7f6c-4755-afdd-ba0006266f5c" x="199.47985" y="80.28878" width="6.5" height="1"/><polyline class="58322548-048b-451b-a281-16b1142debc4" points="475.161 561.944 450.009 535.717 155.566 535.717 155.566 272.865 3.288 114.078"/><circle class="7818139c-49f4-4e2c-8a0a-55a12240a34f" cx="499.37359" cy="581.37372" r="3.00779" transform="translate(-287.78002 487.85529) rotate(-43.80063)"/><path class="82ae3829-019c-40dd-97dd-b1557ff37789" d="M501.83316,579.015a3.40782,3.40782,0,1,0-.10083,4.81836,3.4119,3.4119,0,0,0,.10083-4.81836h0Zm-4.34177,4.16376a2.6078,2.6078,0,1,1,3.68719.07721,2.61029,2.61029,0,0,1-3.68719-.07721C496.49588,582.14069,498.48691,584.21686,497.49139,583.17871Z" transform="translate(-24.33094 -19.55245)"/><circle class="7818139c-49f4-4e2c-8a0a-55a12240a34f" cx="27.73709" cy="133.75308" r="3.00782" transform="translate(-109.19129 36.86339) rotate(-43.80121)"/><path class="82ae3829-019c-40dd-97dd-b1557ff37789" d="M30.19668,131.39435a3.40781,3.40781,0,1,1-4.81834-.10086,3.41188,3.41188,0,0,1,4.81834.10086C31.49716,132.75041,28.89614,130.03821,30.19668,131.39435Zm-4.34176,4.16376a2.60781,2.60781,0,1,0,.07714-3.68721,2.61034,2.61034,0,0,0-.07714,3.68721h0Z" transform="translate(-24.33094 -19.55245)"/><polyline class="58322548-048b-451b-a281-16b1142debc4" points="155.566 322.285 109.888 369.915 109.888 440.271 109.888 519.855"/><circle class="7818139c-49f4-4e2c-8a0a-55a12240a34f" cx="109.88843" cy="519.68449" r="3.00781"/><path class="82ae3829-019c-40dd-97dd-b1557ff37789" d="M130.81155,539.23694a3.40782,3.40782,0,1,1,3.40782,3.40784,3.41186,3.41186,0,0,1-3.40782-3.40784h0Zm6.01564,0a2.60782,2.60782,0,1,0-2.60782,2.60785,2.61032,2.61032,0,0,0,2.60782-2.60785h0Z" transform="translate(-24.33094 -19.55245)"/><polyline class="fa79ac2d-abb8-45d4-9067-438c1f9d0e25" points="573.863 472.243 573.863 403.352 644.57 329.623 644.57 83.526"/><circle class="7818139c-49f4-4e2c-8a0a-55a12240a34f" cx="573.86339" cy="472.0726" r="3.00781"/><path class="67dd6a7b-b123-4683-8737-d6347807e075" d="M601.60211,491.625a3.40781,3.40781,0,1,0-3.40778,3.40784,3.41184,3.41184,0,0,0,3.40778-3.40784h0Zm-6.01562,0a2.60782,2.60782,0,1,1,2.60785,2.60785,2.61036,2.61036,0,0,1-2.60785-2.60785h0Z" transform="translate(-24.33094 -19.55245)"/><circle class="7818139c-49f4-4e2c-8a0a-55a12240a34f" cx="644.57" cy="83.69661" r="3.00781"/><path class="67dd6a7b-b123-4683-8737-d6347807e075" d="M672.30878,103.24907a3.40784,3.40784,0,1,1-3.40784-3.40784,3.4119,3.4119,0,0,1,3.40784,3.40784h0Zm-6.01569,0a2.60782,2.60782,0,1,0,2.60785-2.60783,2.61036,2.61036,0,0,0-2.60785,2.60783h0Z" transform="translate(-24.33094 -19.55245)"/><polyline class="fa79ac2d-abb8-45d4-9067-438c1f9d0e25" points="529.647 445.269 386.244 445.269 252 305.287 252 30.082"/><circle class="7818139c-49f4-4e2c-8a0a-55a12240a34f" cx="529.47631" cy="445.26884" r="3.00781"/><path class="67dd6a7b-b123-4683-8737-d6347807e075" d="M553.80725,461.41345a3.40782,3.40782,0,1,0,3.40784,3.40784,3.41188,3.41188,0,0,0-3.40784-3.40784h0Zm0,6.01566a2.60782,2.60782,0,1,1,2.60785-2.60782,2.61033,2.61033,0,0,1-2.60785,2.60782h0Z" transform="translate(-24.33094 -19.55245)"/><circle class="7818139c-49f4-4e2c-8a0a-55a12240a34f" cx="252.00024" cy="30.25191" r="3.00781"/><path class="67dd6a7b-b123-4683-8737-d6347807e075" d="M279.739,49.80437a3.40781,3.40781,0,1,1-3.40781-3.40784,3.41188,3.41188,0,0,1,3.40781,3.40784h0Zm-6.01562,0a2.60782,2.60782,0,1,0,2.60782-2.60784,2.61035,2.61035,0,0,0-2.60782,2.60784h0Z" transform="translate(-24.33094 -19.55245)"/><polyline class="9ce7ac25-a9e3-4abd-9f2e-780950caf92f" points="554.586 82.351 521.951 116.382 521.951 240.347 589.212 310.483 589.212 153.153"/><circle class="9845c2c5-cbf3-442b-9e90-d24f12026d06" cx="578.81314" cy="102.01213" r="3.00782" transform="translate(80.22506 429.60704) rotate(-46.1988)"/><circle class="9845c2c5-cbf3-442b-9e90-d24f12026d06" cx="589.21197" cy="153.30365" r="3.00781"/><polyline class="ad21cd7e-fbfc-4b6e-ae23-057625cdbde1" points="572.086 340.248 521.951 403.352 410.233 403.352 298.495 286.838 494.193 286.838 494.193 365.418 436.179 365.418 406.421 334.389 449.745 334.389"/><circle class="5caadc7f-d0d8-4e8e-bf84-7926ac8af1d5" cx="596.32329" cy="359.9183" r="3.00781" transform="translate(-80.76188 583.37729) rotate(-51.53321)"/><circle class="5caadc7f-d0d8-4e8e-bf84-7926ac8af1d5" cx="449.59492" cy="334.38853" r="3.00781"/><polyline class="ad21cd7e-fbfc-4b6e-ae23-057625cdbde1" points="298.495 83.146 298.495 235.344 477.401 235.344 431.987 187.988 367.511 187.988"/><circle class="5caadc7f-d0d8-4e8e-bf84-7926ac8af1d5" cx="298.4948" cy="83.29661" r="3.00781"/><circle class="5caadc7f-d0d8-4e8e-bf84-7926ac8af1d5" cx="367.66187" cy="187.98836" r="3.00782"/><polyline class="58322548-048b-451b-a281-16b1142debc4" points="343.318 49.579 343.318 147.794 467.806 147.794 467.806 49.579"/><circle class="7818139c-49f4-4e2c-8a0a-55a12240a34f" cx="343.31769" cy="49.74976" r="3.00782"/><path class="82ae3829-019c-40dd-97dd-b1557ff37789" d="M364.24081,69.30222a3.40782,3.40782,0,1,0,3.40781-3.40784,3.41187,3.41187,0,0,0-3.40781,3.40784h0Zm6.01563,0a2.60782,2.60782,0,1,1-2.60782-2.60784,2.61034,2.61034,0,0,1,2.60782,2.60784h0Z" transform="translate(-24.33094 -19.55245)"/><circle class="7818139c-49f4-4e2c-8a0a-55a12240a34f" cx="467.80572" cy="49.74976" r="3.00782"/><path class="82ae3829-019c-40dd-97dd-b1557ff37789" d="M495.54449,69.30222a3.40782,3.40782,0,1,1-3.40784-3.40784,3.4119,3.4119,0,0,1,3.40784,3.40784h0Zm-6.01562,0a2.6078,2.6078,0,1,0,2.60779-2.60784,2.61033,2.61033,0,0,0-2.60779,2.60784h0Z" transform="translate(-24.33094 -19.55245)"/><polyline class="58322548-048b-451b-a281-16b1142debc4" points="475.161 1333.476 419.856 1275.807 419.856 1150.963 383.693 1113.254 383.693 1021.356 784.095 1021.356 983.78 813.135 983.78 730.271 1083.623 626.161 1083.623 573.043 1140.676 573.043 1140.676 605.978 1188.549 605.978 1188.549 457.297"/><circle class="7818139c-49f4-4e2c-8a0a-55a12240a34f" cx="499.37357" cy="1352.90555" r="3.00784" transform="translate(-821.8059 702.551) rotate(-43.80147)"/><path class="82ae3829-019c-40dd-97dd-b1557ff37789" d="M501.83313,1350.54675a3.40783,3.40783,0,1,0-.1008,4.81836,3.41184,3.41184,0,0,0,.1008-4.81836C500.53265,1349.19067,503.13367,1351.903,501.83313,1350.54675Zm-4.34174,4.16382a2.60783,2.60783,0,1,1,3.68719.07715,2.61026,2.61026,0,0,1-3.68719-.07715C496.49588,1353.67249,498.48694,1355.74866,497.49139,1354.71057Z" transform="translate(-24.33094 -19.55245)"/><circle class="7818139c-49f4-4e2c-8a0a-55a12240a34f" cx="1188.54943" cy="457.46738" r="3.0078"/><path class="82ae3829-019c-40dd-97dd-b1557ff37789" d="M1216.28809,477.01984a3.40778,3.40778,0,1,1-3.40772-3.40784,3.4118,3.4118,0,0,1,3.40772,3.40784h0Zm-6.01562,0a2.60785,2.60785,0,1,0,2.60791-2.60782,2.61037,2.61037,0,0,0-2.60791,2.60782h0Z" transform="translate(-24.33094 -19.55245)"/><polyline class="58322548-048b-451b-a281-16b1142debc4" points="979.872 653.57 1028.079 603.302 1028.079 513.002 1188.549 513.002"/><circle class="7818139c-49f4-4e2c-8a0a-55a12240a34f" cx="1004.32088" cy="672.99954" r="3.00783" transform="translate(-200.89387 912.48808) rotate(-46.19875)"/><path class="82ae3829-019c-40dd-97dd-b1557ff37789" d="M1006.78046,675.35828a3.40782,3.40782,0,1,0-4.81836.10083,3.4119,3.4119,0,0,0,4.81836-.10083h0Zm-4.34174-4.16376a2.60781,2.60781,0,1,1,.07715,3.68719,2.61023,2.61023,0,0,1-.07715-3.68719C1003.4342,670.15643,1001.44318,672.23261,1002.43872,671.19452Z" transform="translate(-24.33094 -19.55245)"/><polyline class="ad21cd7e-fbfc-4b6e-ae23-057625cdbde1" points="1195.751 324.347 1119.123 404.25 977.631 404.25 977.631 93.592"/><circle class="5caadc7f-d0d8-4e8e-bf84-7926ac8af1d5" cx="1219.97791" cy="344.00816" r="3.00783" transform="translate(102.94663 966.86811) rotate(-46.19915)"/><circle class="5caadc7f-d0d8-4e8e-bf84-7926ac8af1d5" cx="977.63116" cy="93.74272" r="3.00781"/><polyline class="ad21cd7e-fbfc-4b6e-ae23-057625cdbde1" points="1207.977 275.822 1025.467 85.511 1025.467 354.198 1107.254 354.198"/><circle class="5caadc7f-d0d8-4e8e-bf84-7926ac8af1d5" cx="1232.20349" cy="295.26617" r="3.00784" transform="translate(114.16246 915.48383) rotate(-43.80106)"/><circle class="5caadc7f-d0d8-4e8e-bf84-7926ac8af1d5" cx="1107.10406" cy="354.19851" r="3.00782"/><polyline class="ad21cd7e-fbfc-4b6e-ae23-057625cdbde1" points="1067.238 129.067 1067.238 310.483 1136.601 310.483 1136.601 272.865 1116.967 252.393"/><circle class="5caadc7f-d0d8-4e8e-bf84-7926ac8af1d5" cx="1141.40231" cy="272.05373" r="3.00783" transform="translate(104.96126 846.17258) rotate(-43.80085)"/><polyline class="ad21cd7e-fbfc-4b6e-ae23-057625cdbde1" points="467.806 1077.331 467.806 1227.453 552.304 1315.563 614.327 1315.563 684.61 1242.275 684.61 1159.462 776.118 1064.043 818.404 1064.043 1033.629 839.618 1033.629 759.265 1128.622 660.211"/><circle class="5caadc7f-d0d8-4e8e-bf84-7926ac8af1d5" cx="467.80572" cy="1077.48161" r="3.00782"/><circle class="5caadc7f-d0d8-4e8e-bf84-7926ac8af1d5" cx="1152.84918" cy="679.8718" r="3.00778" transform="translate(-160.13332 1021.79417) rotate(-46.19834)"/><polyline class="a05f6aea-809d-4557-8cac-76db90951e3c" points="505.443 1072.349 707.693 1072.349 643.53 1139.255 643.53 1229.577 591.92 1283.394 512.784 1200.875"/><rect class="56647b6a-7f6c-4755-afdd-ba0006266f5c" x="504.94286" y="1069.09904" width="1" height="6.5"/><rect class="56647b6a-7f6c-4755-afdd-ba0006266f5c" x="533.86496" y="1219.92778" width="6.49999" height="1.00003" transform="translate(-719.57868 691.74013) rotate(-43.79817)"/><polyline class="fa79ac2d-abb8-45d4-9067-438c1f9d0e25" points="508.18 1125.467 606.318 1125.467 606.318 1219.966"/><circle class="7818139c-49f4-4e2c-8a0a-55a12240a34f" cx="508.35067" cy="1125.46684" r="3.00781"/><path class="67dd6a7b-b123-4683-8737-d6347807e075" d="M532.68164,1148.427a3.40778,3.40778,0,1,0-3.40784-3.40771,3.41181,3.41181,0,0,0,3.40784,3.40771h0Zm0-6.01562a2.60785,2.60785,0,1,1-2.60785,2.60791,2.61039,2.61039,0,0,1,2.60785-2.60791h0Z" transform="translate(-24.33094 -19.55245)"/><circle class="7818139c-49f4-4e2c-8a0a-55a12240a34f" cx="606.31812" cy="1219.79533" r="3.00783"/><path class="67dd6a7b-b123-4683-8737-d6347807e075" d="M627.24127,1239.34778a3.40781,3.40781,0,1,1,3.40778,3.40784,3.41192,3.41192,0,0,1-3.40778-3.40784h0Zm6.01563,0a2.60782,2.60782,0,1,0-2.60785,2.60779,2.61038,2.61038,0,0,0,2.60785-2.60779h0Z" transform="translate(-24.33094 -19.55245)"/><line class="fa79ac2d-abb8-45d4-9067-438c1f9d0e25" x1="558.81878" y1="1177.8715" x2="606.31811" y2="1177.8715"/><circle class="7818139c-49f4-4e2c-8a0a-55a12240a34f" cx="558.98913" cy="1177.8715" r="3.00781"/><path class="67dd6a7b-b123-4683-8737-d6347807e075" d="M583.32007,1200.83179a3.40784,3.40784,0,1,0-3.40784-3.40784,3.41188,3.41188,0,0,0,3.40784,3.40784h0Zm0-6.01562a2.60779,2.60779,0,1,1-2.60785,2.60779,2.61033,2.61033,0,0,1,2.60785-2.60779h0Z" transform="translate(-24.33094 -19.55245)"/><polyline class="ad21cd7e-fbfc-4b6e-ae23-057625cdbde1" points="2010.68 83.146 2010.68 767.738 1880.989 902.974 1780.117 902.974 1720.675 840.99 1527.938 840.99 1410.131 963.833"/><circle class="5caadc7f-d0d8-4e8e-bf84-7926ac8af1d5" cx="2010.68041" cy="83.29661" r="3.00781"/><circle class="5caadc7f-d0d8-4e8e-bf84-7926ac8af1d5" cx="1434.56567" cy="983.2774" r="3.00783" transform="translate(-292.3859 1318.54337) rotate(-46.19915)"/><polyline class="9ce7ac25-a9e3-4abd-9f2e-780950caf92f" points="1425.442 1171.383 1479.303 1115.219 1479.303 981.861 1554.057 903.913 1709.417 903.913 1772.687 969.887 1899.001 969.887 2067.984 793.681 2067.984 613.719 2113.184 566.586 2113.184 455.944 2273.667 455.944 2322.125 405.415"/><circle class="9845c2c5-cbf3-442b-9e90-d24f12026d06" cx="1449.87671" cy="1190.827" r="3.00785" transform="translate(-437.46974 1393.50108) rotate(-46.19957)"/><circle class="9845c2c5-cbf3-442b-9e90-d24f12026d06" cx="2346.35199" cy="425.07549" r="3.00784" transform="translate(391.18616 1804.78481) rotate(-46.19915)"/><polyline class="a05f6aea-809d-4557-8cac-76db90951e3c" points="1491.566 1323.346 1364.021 1190.35 1364.021 925.513 1493.714 790.277 1744.091 790.277 1798.13 846.625 1873.783 846.625 1972.854 743.32 1972.854 388.826"/><rect class="56647b6a-7f6c-4755-afdd-ba0006266f5c" x="1512.64708" y="1342.39897" width="6.50004" height="1.00003" transform="translate(-532.029 1403.24855) rotate(-43.79817)"/><rect class="56647b6a-7f6c-4755-afdd-ba0006266f5c" x="1969.60351" y="388.32591" width="6.5" height="1"/><polyline class="fa79ac2d-abb8-45d4-9067-438c1f9d0e25" points="1521.797 1204.129 1521.797 1388.498 1466.623 1388.498 1317.893 1233.41 1317.893 1100.835 1257.921 1100.835 1257.921 1203.393 1154.769 1203.393 1154.769 1385.261"/><circle class="7818139c-49f4-4e2c-8a0a-55a12240a34f" cx="1521.79723" cy="1204.29972" r="3.00781"/><path class="67dd6a7b-b123-4683-8737-d6347807e075" d="M1542.72046,1223.85217a3.40778,3.40778,0,1,0,3.40772-3.40784,3.41183,3.41183,0,0,0-3.40772,3.40784h0Zm6.01563,0a2.60785,2.60785,0,1,1-2.60791-2.60779,2.61031,2.61031,0,0,1,2.60791,2.60779h0Z" transform="translate(-24.33094 -19.55245)"/><circle class="7818139c-49f4-4e2c-8a0a-55a12240a34f" cx="1154.76925" cy="1385.0905" r="3.00784"/><path class="67dd6a7b-b123-4683-8737-d6347807e075" d="M1175.69238,1404.64294a3.40778,3.40778,0,1,1,3.40784,3.40784,3.41193,3.41193,0,0,1-3.40784-3.40784h0Zm6.01563,0a2.60785,2.60785,0,1,0-2.60779,2.60779,2.61037,2.61037,0,0,0,2.60779-2.60779h0Z" transform="translate(-24.33094 -19.55245)"/><polyline class="58322548-048b-451b-a281-16b1142debc4" points="1317.893 965.896 1209.943 965.896 1070.002 1111.819 1070.002 1398.441"/><circle class="7818139c-49f4-4e2c-8a0a-55a12240a34f" cx="1070.00219" cy="1398.27043" r="3.00781"/><path class="82ae3829-019c-40dd-97dd-b1557ff37789" d="M1090.92529,1417.82288a3.40784,3.40784,0,1,1,3.40784,3.40784,3.41193,3.41193,0,0,1-3.40784-3.40784h0Zm6.01563,0a2.60779,2.60779,0,1,0-2.60779,2.60779,2.61029,2.61029,0,0,0,2.60779-2.60779h0Z" transform="translate(-24.33094 -19.55245)"/><polyline class="58322548-048b-451b-a281-16b1142debc4" points="1843.247 784.526 1843.247 693.104 1935.932 596.457 1935.932 109.249"/><circle class="7818139c-49f4-4e2c-8a0a-55a12240a34f" cx="1935.93224" cy="109.41958" r="3.00781"/><path class="82ae3829-019c-40dd-97dd-b1557ff37789" d="M1963.671,128.972a3.40784,3.40784,0,1,1-3.40784-3.40784,3.4119,3.4119,0,0,1,3.40784,3.40784h0Zm-6.01562,0a2.60779,2.60779,0,1,0,2.60779-2.60785,2.61026,2.61026,0,0,0-2.60779,2.60785h0Z" transform="translate(-24.33094 -19.55245)"/><polyline class="9ce7ac25-a9e3-4abd-9f2e-780950caf92f" points="2056.747 108.869 2056.747 513.002 2113.184 513.002"/><circle class="9845c2c5-cbf3-442b-9e90-d24f12026d06" cx="2056.7467" cy="109.01958" r="3.00781"/><line class="58322548-048b-451b-a281-16b1142debc4" x1="1935.06176" y1="272.86543" x2="1969.61608" y2="272.86543"/><circle class="7818139c-49f4-4e2c-8a0a-55a12240a34f" cx="1969.44567" cy="272.86543" r="3.00781"/><path class="82ae3829-019c-40dd-97dd-b1557ff37789" d="M1993.77661,295.82571a3.40782,3.40782,0,1,1,3.40784-3.40784,3.41183,3.41183,0,0,1-3.40784,3.40784h0Zm0-6.01566a2.60782,2.60782,0,1,0,2.60791,2.60782,2.61037,2.61037,0,0,0-2.60791-2.60782h0Z" transform="translate(-24.33094 -19.55245)"/><polyline class="fa79ac2d-abb8-45d4-9067-438c1f9d0e25" points="1862.438 40.185 1862.438 155.299 1908.399 203.224 1908.399 403.352 1852.032 462.128 1852.032 620.563 1788.867 686.428 1338.283 686.428 1270.155 757.469"/><circle class="7818139c-49f4-4e2c-8a0a-55a12240a34f" cx="1862.43774" cy="40.35526" r="3.00781"/><path class="67dd6a7b-b123-4683-8737-d6347807e075" d="M1883.36084,59.90773a3.40778,3.40778,0,1,0,3.40784-3.40784,3.4119,3.4119,0,0,0-3.40784,3.40784h0Zm6.01563,0a2.60785,2.60785,0,1,1-2.60779-2.60784,2.61035,2.61035,0,0,1,2.60779,2.60784h0Z" transform="translate(-24.33094 -19.55245)"/><circle class="7818139c-49f4-4e2c-8a0a-55a12240a34f" cx="1294.60336" cy="776.89853" r="3.00778" transform="translate(-186.51881 1153.99264) rotate(-46.19915)"/><path class="67dd6a7b-b123-4683-8737-d6347807e075" d="M1292.1438,774.53973a3.40784,3.40784,0,1,1,.10083,4.81836,3.41177,3.41177,0,0,1-.10083-4.81836C1293.44434,773.18365,1290.84326,775.89587,1292.1438,774.53973Zm4.3418,4.16382a2.60783,2.60783,0,1,0-3.68726.07715,2.61036,2.61036,0,0,0,3.68726-.07715C1297.48108,777.66547,1295.49,779.74164,1296.4856,778.70355Z" transform="translate(-24.33094 -19.55245)"/><polyline class="9ce7ac25-a9e3-4abd-9f2e-780950caf92f" points="1223.898 804.784 1223.898 645.577 1764.084 645.577 1810.083 597.611"/><circle class="9845c2c5-cbf3-442b-9e90-d24f12026d06" cx="1223.89794" cy="804.63316" r="3.00781"/><circle class="9845c2c5-cbf3-442b-9e90-d24f12026d06" cx="1834.31039" cy="617.27182" r="3.00783" transform="translate(94.82587 1494.36161) rotate(-46.19834)"/><polyline class="ad21cd7e-fbfc-4b6e-ae23-057625cdbde1" points="1826.455 2.857 1826.455 388.326 1749.88 468.174 1749.88 592.691"/><circle class="5caadc7f-d0d8-4e8e-bf84-7926ac8af1d5" cx="1826.4547" cy="3.00783" r="3.00781"/><circle class="5caadc7f-d0d8-4e8e-bf84-7926ac8af1d5" cx="1749.88012" cy="592.54066" r="3.00781"/><line class="ad21cd7e-fbfc-4b6e-ae23-057625cdbde1" x1="1749.88012" y1="533.01292" x2="1797.20959" y2="533.01292"/><circle class="5caadc7f-d0d8-4e8e-bf84-7926ac8af1d5" cx="1797.0592" cy="533.01292" r="3.00781"/><polyline class="ad21cd7e-fbfc-4b6e-ae23-057625cdbde1" points="1706.559 603.053 1536.191 603.053 1499.008 564.281 1248.325 564.281 1288.314 605.978 1420.606 605.978"/><circle class="5caadc7f-d0d8-4e8e-bf84-7926ac8af1d5" cx="1706.4088" cy="603.05278" r="3.00781"/><circle class="5caadc7f-d0d8-4e8e-bf84-7926ac8af1d5" cx="1420.45605" cy="605.9785" r="3.00781"/><polyline class="a05f6aea-809d-4557-8cac-76db90951e3c" points="1709.417 563.781 1709.417 523.092 1639.342 523.092 1611.715 494.284 1338.283 494.284 1338.283 80.789"/><rect class="56647b6a-7f6c-4755-afdd-ba0006266f5c" x="1706.16662" y="563.28086" width="6.5" height="1"/><rect class="56647b6a-7f6c-4755-afdd-ba0006266f5c" x="1335.03344" y="80.28878" width="6.5" height="1"/><polyline class="58322548-048b-451b-a281-16b1142debc4" points="1610.714 561.944 1585.562 535.717 1291.12 535.717 1291.12 272.865 1108.923 82.881"/><circle class="7818139c-49f4-4e2c-8a0a-55a12240a34f" cx="1634.92688" cy="581.37372" r="3.00781" transform="translate(28.18225 1273.82424) rotate(-43.80043)"/><path class="82ae3829-019c-40dd-97dd-b1557ff37789" d="M1637.38648,579.015a3.40782,3.40782,0,1,0-.10083,4.81836,3.412,3.412,0,0,0,.10083-4.81836C1636.08594,577.65887,1638.687,580.37109,1637.38648,579.015Zm-4.3418,4.16376a2.60781,2.60781,0,1,1,3.68726.07721,2.61029,2.61029,0,0,1-3.68726-.07721C1632.04919,582.14069,1634.04016,584.21686,1633.04468,583.17871Z" transform="translate(-24.33094 -19.55245)"/><circle class="7818139c-49f4-4e2c-8a0a-55a12240a34f" cx="1133.37228" cy="102.55608" r="3.00783" transform="translate(220.04667 793.45346) rotate(-43.80096)"/><path class="82ae3829-019c-40dd-97dd-b1557ff37789" d="M1135.83191,100.19734a3.40783,3.40783,0,1,1-4.81836-.10085,3.412,3.412,0,0,1,4.81836.10085C1137.13232,101.55341,1134.53137,98.84121,1135.83191,100.19734Zm-4.3418,4.16377a2.60783,2.60783,0,1,0,.07715-3.68722,2.61028,2.61028,0,0,0-.07715,3.68722C1132.4856,105.39917,1130.49463,103.323,1131.49011,104.36111Z" transform="translate(-24.33094 -19.55245)"/><polyline class="58322548-048b-451b-a281-16b1142debc4" points="1291.12 322.285 1245.442 369.915 1245.442 519.855"/><circle class="7818139c-49f4-4e2c-8a0a-55a12240a34f" cx="1245.44201" cy="519.68449" r="3.00781"/><path class="82ae3829-019c-40dd-97dd-b1557ff37789" d="M1266.36511,539.23694a3.40784,3.40784,0,1,1,3.40784,3.40784,3.41188,3.41188,0,0,1-3.40784-3.40784h0Zm6.01563,0a2.60779,2.60779,0,1,0-2.60779,2.60785,2.61033,2.61033,0,0,0,2.60779-2.60785h0Z" transform="translate(-24.33094 -19.55245)"/><polyline class="fa79ac2d-abb8-45d4-9067-438c1f9d0e25" points="1709.417 472.243 1709.417 403.352 1780.124 329.623 1780.124 40.185"/><circle class="7818139c-49f4-4e2c-8a0a-55a12240a34f" cx="1709.41662" cy="472.0726" r="3.00781"/><path class="67dd6a7b-b123-4683-8737-d6347807e075" d="M1737.1554,491.625a3.40778,3.40778,0,1,0-3.40784,3.40784,3.4119,3.4119,0,0,0,3.40784-3.40784h0Zm-6.01562,0a2.60785,2.60785,0,1,1,2.60779,2.60785,2.61034,2.61034,0,0,1-2.60779-2.60785h0Z" transform="translate(-24.33094 -19.55245)"/><circle class="7818139c-49f4-4e2c-8a0a-55a12240a34f" cx="1780.12353" cy="40.35526" r="3.00781"/><path class="67dd6a7b-b123-4683-8737-d6347807e075" d="M1807.86231,59.90773a3.40784,3.40784,0,1,1-3.40784-3.40784,3.4119,3.4119,0,0,1,3.40784,3.40784h0Zm-6.01562,0a2.60779,2.60779,0,1,0,2.60779-2.60784,2.61035,2.61035,0,0,0-2.60779,2.60784h0Z" transform="translate(-24.33094 -19.55245)"/><polyline class="fa79ac2d-abb8-45d4-9067-438c1f9d0e25" points="1665.2 445.269 1521.797 445.269 1387.553 305.287 1387.553 83.526"/><circle class="7818139c-49f4-4e2c-8a0a-55a12240a34f" cx="1665.0299" cy="445.26884" r="3.00781"/><path class="67dd6a7b-b123-4683-8737-d6347807e075" d="M1689.36084,461.41345a3.40782,3.40782,0,1,0,3.40784,3.40784,3.41193,3.41193,0,0,0-3.40784-3.40784h0Zm0,6.01566a2.60782,2.60782,0,1,1,2.60779-2.60782,2.61037,2.61037,0,0,1-2.60779,2.60782h0Z" transform="translate(-24.33094 -19.55245)"/><circle class="7818139c-49f4-4e2c-8a0a-55a12240a34f" cx="1387.55346" cy="83.69661" r="3.00781"/><path class="67dd6a7b-b123-4683-8737-d6347807e075" d="M1415.29224,103.24907a3.40784,3.40784,0,1,1-3.40784-3.40784,3.4119,3.4119,0,0,1,3.40784,3.40784h0Zm-6.01562,0a2.60779,2.60779,0,1,0,2.60779-2.60783,2.61035,2.61035,0,0,0-2.60779,2.60783h0Z" transform="translate(-24.33094 -19.55245)"/><polyline class="9ce7ac25-a9e3-4abd-9f2e-780950caf92f" points="1690.14 82.351 1657.504 116.382 1657.504 240.347 1724.765 310.483 1724.765 153.153"/><circle class="9845c2c5-cbf3-442b-9e90-d24f12026d06" cx="1714.3667" cy="102.01212" r="3.00783" transform="translate(429.80186 1249.1945) rotate(-46.1991)"/><circle class="9845c2c5-cbf3-442b-9e90-d24f12026d06" cx="1724.76525" cy="153.30365" r="3.00781"/><polyline class="ad21cd7e-fbfc-4b6e-ae23-057625cdbde1" points="1707.639 340.248 1657.504 403.352 1545.786 403.352 1434.048 286.838 1629.747 286.838 1629.747 365.418 1571.732 365.418 1541.975 334.389 1585.299 334.389"/><circle class="5caadc7f-d0d8-4e8e-bf84-7926ac8af1d5" cx="1731.87653" cy="359.9183" r="3.00781" transform="matrix(0.62206, -0.78297, 0.78297, 0.62206, 348.4152, 1472.48867)"/><circle class="5caadc7f-d0d8-4e8e-bf84-7926ac8af1d5" cx="1585.14818" cy="334.38853" r="3.00781"/><polyline class="ad21cd7e-fbfc-4b6e-ae23-057625cdbde1" points="1434.048 83.146 1434.048 235.344 1612.955 235.344 1567.54 187.988 1503.065 187.988"/><circle class="5caadc7f-d0d8-4e8e-bf84-7926ac8af1d5" cx="1434.04809" cy="83.29661" r="3.00781"/><circle class="5caadc7f-d0d8-4e8e-bf84-7926ac8af1d5" cx="1503.21545" cy="187.98836" r="3.00782"/><polyline class="58322548-048b-451b-a281-16b1142debc4" points="1478.871 37.995 1478.871 147.794 1603.359 147.794 1603.359 37.995"/><circle class="7818139c-49f4-4e2c-8a0a-55a12240a34f" cx="1478.87096" cy="38.16555" r="3.00781"/><path class="82ae3829-019c-40dd-97dd-b1557ff37789" d="M1499.79407,57.718a3.40784,3.40784,0,1,0,3.40784-3.40784,3.4119,3.4119,0,0,0-3.40784,3.40784h0Zm6.01563,0a2.60779,2.60779,0,1,1-2.60779-2.60784,2.61035,2.61035,0,0,1,2.60779,2.60784h0Z" transform="translate(-24.33094 -19.55245)"/><circle class="7818139c-49f4-4e2c-8a0a-55a12240a34f" cx="1603.35924" cy="38.16555" r="3.00781"/><path class="82ae3829-019c-40dd-97dd-b1557ff37789" d="M1631.098,57.718a3.40784,3.40784,0,1,1-3.40784-3.40784A3.4119,3.4119,0,0,1,1631.098,57.718h0Zm-6.01562,0a2.60785,2.60785,0,1,0,2.60779-2.60784,2.61035,2.61035,0,0,0-2.60779,2.60784h0Z" transform="translate(-24.33094 -19.55245)"/><polyline class="58322548-048b-451b-a281-16b1142debc4" points="1610.714 1333.476 1555.409 1275.807 1555.409 1150.963 1519.246 1113.254 1519.246 1021.356 1919.648 1021.356 2119.334 813.135 2119.334 730.271 2219.176 626.161 2219.176 573.043 2276.229 573.043 2276.229 605.978 2324.103 605.978 2324.103 457.297"/><circle class="7818139c-49f4-4e2c-8a0a-55a12240a34f" cx="1634.92688" cy="1352.90555" r="3.00785" transform="translate(-505.83016 1488.5301) rotate(-43.80127)"/><path class="82ae3829-019c-40dd-97dd-b1557ff37789" d="M1637.38648,1350.54675a3.40784,3.40784,0,1,0-.10083,4.81836,3.41191,3.41191,0,0,0,.10083-4.81836C1636.08594,1349.19067,1638.687,1351.903,1637.38648,1350.54675Zm-4.3418,4.16382a2.60785,2.60785,0,1,1,3.68726.07715,2.61029,2.61029,0,0,1-3.68726-.07715h0Z" transform="translate(-24.33094 -19.55245)"/><circle class="7818139c-49f4-4e2c-8a0a-55a12240a34f" cx="2324.1029" cy="457.46738" r="3.0078"/><path class="82ae3829-019c-40dd-97dd-b1557ff37789" d="M2351.8418,477.01984a3.40784,3.40784,0,1,1-3.408-3.40784,3.412,3.412,0,0,1,3.408,3.40784h0Zm-6.01562,0a2.60779,2.60779,0,1,0,2.60767-2.60782,2.61024,2.61024,0,0,0-2.60767,2.60782h0Z" transform="translate(-24.33094 -19.55245)"/><polyline class="58322548-048b-451b-a281-16b1142debc4" points="2115.425 653.57 2163.632 603.302 2163.632 513.002 2324.103 513.002"/><circle class="7818139c-49f4-4e2c-8a0a-55a12240a34f" cx="2139.87408" cy="672.99954" r="3.00783" transform="translate(148.68358 1732.08184) rotate(-46.19915)"/><path class="82ae3829-019c-40dd-97dd-b1557ff37789" d="M2142.33374,675.35828a3.40784,3.40784,0,1,0-4.81836.10083,3.412,3.412,0,0,0,4.81836-.10083C2143.63428,674.0022,2141.0332,676.71442,2142.33374,675.35828Zm-4.3418-4.16376a2.60783,2.60783,0,1,1,.07715,3.68719,2.61038,2.61038,0,0,1-.07715-3.68719C2138.98731,670.15643,2136.99634,672.23261,2137.99194,671.19452Z" transform="translate(-24.33094 -19.55245)"/><polyline class="58322548-048b-451b-a281-16b1142debc4" points="2331.041 324.621 2254.677 404.25 2113.184 404.25 2113.184 132.305"/><circle class="7818139c-49f4-4e2c-8a0a-55a12240a34f" cx="2355.25427" cy="344.29686" r="3.00783" transform="translate(452.18761 1786.28987) rotate(-46.19754)"/><path class="82ae3829-019c-40dd-97dd-b1557ff37789" d="M2352.79468,341.93811a3.40783,3.40783,0,1,0,4.81836-.10083,3.412,3.412,0,0,0-4.81836.10083C2351.49414,343.29419,2354.09521,340.582,2352.79468,341.93811Zm4.3418,4.16379a2.60783,2.60783,0,1,1-.07715-3.68723,2.61044,2.61044,0,0,1,.07715,3.68723C2356.14087,347.14,2358.13208,345.06378,2357.13647,346.1019Z" transform="translate(-24.33094 -19.55245)"/><circle class="7818139c-49f4-4e2c-8a0a-55a12240a34f" cx="2113.18444" cy="132.47531" r="3.00781"/><path class="82ae3829-019c-40dd-97dd-b1557ff37789" d="M2140.9231,152.02777a3.40784,3.40784,0,1,1-3.40771-3.40784,3.41181,3.41181,0,0,1,3.40771,3.40784h0Zm-6.01562,0a2.60779,2.60779,0,1,0,2.60791-2.60783,2.61045,2.61045,0,0,0-2.60791,2.60783h0Z" transform="translate(-24.33094 -19.55245)"/><polyline class="ad21cd7e-fbfc-4b6e-ae23-057625cdbde1" points="2343.53 275.822 2161.02 85.511 2161.02 354.198 2242.808 354.198"/><circle class="5caadc7f-d0d8-4e8e-bf84-7926ac8af1d5" cx="2367.75671" cy="295.26617" r="3.00775" transform="translate(430.17314 1701.51816) rotate(-43.80267)"/><circle class="5caadc7f-d0d8-4e8e-bf84-7926ac8af1d5" cx="2242.65734" cy="354.19851" r="3.00782"/><polyline class="ad21cd7e-fbfc-4b6e-ae23-057625cdbde1" points="2202.791 129.067 2202.791 310.483 2272.154 310.483 2272.154 272.865 2252.521 252.393"/><circle class="5caadc7f-d0d8-4e8e-bf84-7926ac8af1d5" cx="2276.95551" cy="272.05373" r="3.00783" transform="translate(420.929 1632.15014) rotate(-43.80085)"/><polyline class="a05f6aea-809d-4557-8cac-76db90951e3c" points="1640.996 1072.349 1843.247 1072.349 1779.084 1139.255 1779.084 1229.577 1727.473 1283.394 1648.338 1200.875"/><rect class="56647b6a-7f6c-4755-afdd-ba0006266f5c" x="1640.49608" y="1069.09904" width="1" height="6.5"/><rect class="56647b6a-7f6c-4755-afdd-ba0006266f5c" x="1669.41854" y="1219.92778" width="6.49995" height="1.00003" transform="translate(-403.64766 1477.67955) rotate(-43.79817)"/><polyline class="fa79ac2d-abb8-45d4-9067-438c1f9d0e25" points="1643.734 1125.467 1741.871 1125.467 1741.871 1219.966"/><circle class="7818139c-49f4-4e2c-8a0a-55a12240a34f" cx="1643.90392" cy="1125.46684" r="3.00781"/><path class="67dd6a7b-b123-4683-8737-d6347807e075" d="M1668.23486,1148.427a3.40778,3.40778,0,1,0-3.40784-3.40771,3.41183,3.41183,0,0,0,3.40784,3.40771h0Zm0-6.01562a2.60785,2.60785,0,1,1-2.60779,2.60791,2.61039,2.61039,0,0,1,2.60779-2.60791h0Z" transform="translate(-24.33094 -19.55245)"/><circle class="7818139c-49f4-4e2c-8a0a-55a12240a34f" cx="1741.87133" cy="1219.79533" r="3.00781"/><path class="67dd6a7b-b123-4683-8737-d6347807e075" d="M1762.79456,1239.34778a3.40778,3.40778,0,1,1,3.40772,3.40784,3.41183,3.41183,0,0,1-3.40772-3.40784h0Zm6.01563,0a2.60785,2.60785,0,1,0-2.60791,2.60779,2.61039,2.61039,0,0,0,2.60791-2.60779h0Z" transform="translate(-24.33094 -19.55245)"/><line class="fa79ac2d-abb8-45d4-9067-438c1f9d0e25" x1="1694.37194" y1="1177.8715" x2="1741.87133" y2="1177.8715"/><circle class="7818139c-49f4-4e2c-8a0a-55a12240a34f" cx="1694.54235" cy="1177.8715" r="3.00781"/><path class="67dd6a7b-b123-4683-8737-d6347807e075" d="M1718.87329,1200.83179a3.40784,3.40784,0,1,0-3.40784-3.40784,3.41193,3.41193,0,0,0,3.40784,3.40784h0Zm0-6.01562a2.60779,2.60779,0,1,1-2.60779,2.60779,2.61029,2.61029,0,0,1,2.60779-2.60779h0Z" transform="translate(-24.33094 -19.55245)"/><polyline class="fa79ac2d-abb8-45d4-9067-438c1f9d0e25" points="1161.838 52.436 1295.024 191.315 1295.024 30.082"/><circle class="7818139c-49f4-4e2c-8a0a-55a12240a34f" cx="1186.28717" cy="72.11132" r="3.00779" transform="translate(255.85361 821.6202) rotate(-43.80176)"/><path class="67dd6a7b-b123-4683-8737-d6347807e075" d="M1183.82764,74.47008a3.40779,3.40779,0,1,0,.10071-4.81834,3.41181,3.41181,0,0,0-.10071,4.81834C1185.12805,75.82615,1182.5271,73.11395,1183.82764,74.47008Zm4.34167-4.16377a2.60779,2.60779,0,1,1-3.68713-.07718,2.61034,2.61034,0,0,1,3.68713.07718C1189.16479,71.34436,1187.17383,69.2682,1188.16931,70.3063Z" transform="translate(-24.33094 -19.55245)"/><circle class="7818139c-49f4-4e2c-8a0a-55a12240a34f" cx="1295.02416" cy="30.25191" r="3.00781"/><path class="67dd6a7b-b123-4683-8737-d6347807e075" d="M1322.76282,49.80437a3.40778,3.40778,0,1,1-3.40771-3.40784,3.4118,3.4118,0,0,1,3.40771,3.40784h0Zm-6.01562,0a2.60785,2.60785,0,1,0,2.60791-2.60784,2.61037,2.61037,0,0,0-2.60791,2.60784h0Z" transform="translate(-24.33094 -19.55245)"/><polyline class="fa79ac2d-abb8-45d4-9067-438c1f9d0e25" points="1138.398 963.203 1209.943 856.017 1279.511 856.017 1370.056 761.602"/><circle class="7818139c-49f4-4e2c-8a0a-55a12240a34f" cx="1162.82352" cy="982.61388" r="3.00782" transform="translate(-324.34637 1384.71386) rotate(-56.27785)"/><path class="67dd6a7b-b123-4683-8737-d6347807e075" d="M1165.658,984.5058a3.40783,3.40783,0,1,0-4.72632.9425,3.41192,3.41192,0,0,0,4.72632-.9425C1166.701,982.94305,1164.61475,986.0686,1165.658,984.5058Zm-5.00342-3.33972a2.60781,2.60781,0,1,1,.72119,3.61682,2.61025,2.61025,0,0,1-.72119-3.61682C1161.453,979.96985,1159.856,982.36237,1160.65454,981.16608Z" transform="translate(-24.33094 -19.55245)"/><circle class="7818139c-49f4-4e2c-8a0a-55a12240a34f" cx="1394.26849" cy="781.27704" r="3.00778" transform="translate(-159.00402 1227.25238) rotate(-46.19834)"/><path class="67dd6a7b-b123-4683-8737-d6347807e075" d="M1396.728,783.6358a3.4078,3.4078,0,1,1-.10071-4.81836,3.41182,3.41182,0,0,1,.10071,4.81836C1395.42761,784.99188,1398.02856,782.27966,1396.728,783.6358Zm-4.34167-4.16376a2.60779,2.60779,0,1,0,3.68713-.07721,2.61029,2.61029,0,0,0-3.68713.07721C1391.39087,780.51007,1393.38184,778.4339,1392.38635,779.472Z" transform="translate(-24.33094 -19.55245)"/><path class="58322548-048b-451b-a281-16b1142debc4" d="M1131.01355,1284.13709V1169.45325h103.26062V1065.35632s107.94971-2.50147,107.94971,0V905.26556l153.528-160.09076h297.46081l56.48914,58.90387H1884.37l72.78186-75.89307" transform="translate(-24.33094 -19.55245)"/><circle class="7818139c-49f4-4e2c-8a0a-55a12240a34f" cx="1106.68261" cy="1264.41423" r="3.00781"/><path class="82ae3829-019c-40dd-97dd-b1557ff37789" d="M1134.42139,1283.96667a3.40784,3.40784,0,1,0-3.40784,3.40784,3.41183,3.41183,0,0,0,3.40784-3.40784h0Zm-6.01562,0a2.60779,2.60779,0,1,1,2.60779,2.60791,2.61029,2.61029,0,0,1-2.60779-2.60791h0Z" transform="translate(-24.33094 -19.55245)"/><circle class="7818139c-49f4-4e2c-8a0a-55a12240a34f" cx="1957.03394" cy="728.30861" r="3.00785" transform="translate(52.47763 1617.14366) rotate(-46.19915)"/><path class="82ae3829-019c-40dd-97dd-b1557ff37789" d="M1959.49353,730.66736a3.40782,3.40782,0,1,1-.10083-4.81836,3.412,3.412,0,0,1,.10083,4.81836C1958.193,732.02344,1960.79407,729.31122,1959.49353,730.66736Zm-4.3418-4.16376a2.60783,2.60783,0,1,0,3.68726-.07721,2.61036,2.61036,0,0,0-3.68726.07721C1954.15625,727.54163,1956.14722,725.46552,1955.15173,726.5036Z" transform="translate(-24.33094 -19.55245)"/><polyline class="58322548-048b-451b-a281-16b1142debc4" points="455.84 1374.461 614.327 1374.461 746.418 1236.723 746.418 1159.462 846.061 1159.462"/><circle class="7818139c-49f4-4e2c-8a0a-55a12240a34f" cx="456.01057" cy="1374.46086" r="3.00781"/><path class="82ae3829-019c-40dd-97dd-b1557ff37789" d="M480.34152,1397.42114a3.40784,3.40784,0,1,0-3.40784-3.40784,3.41192,3.41192,0,0,0,3.40784,3.40784h0Zm0-6.01562a2.60779,2.60779,0,1,1-2.60782,2.60779,2.61034,2.61034,0,0,1,2.60782-2.60779h0Z" transform="translate(-24.33094 -19.55245)"/><circle class="7818139c-49f4-4e2c-8a0a-55a12240a34f" cx="845.89043" cy="1159.46193" r="3.00784"/><path class="82ae3829-019c-40dd-97dd-b1557ff37789" d="M870.22137,1182.42212a3.40778,3.40778,0,1,1,3.40784-3.40772,3.41177,3.41177,0,0,1-3.40784,3.40772h0Zm0-6.01562a2.60785,2.60785,0,1,0,2.60785,2.60791,2.61035,2.61035,0,0,0-2.60785-2.60791h0Z" transform="translate(-24.33094 -19.55245)"/><polyline class="fa79ac2d-abb8-45d4-9067-438c1f9d0e25" points="821.642 1100.835 875.127 1100.835 1080.343 886.847 1080.343 784.526 1164.335 696.943"/><circle class="7818139c-49f4-4e2c-8a0a-55a12240a34f" cx="821.81222" cy="1100.83525" r="3.00781"/><path class="67dd6a7b-b123-4683-8737-d6347807e075" d="M846.14319,1123.79553a3.40784,3.40784,0,1,0-3.40784-3.40784,3.41192,3.41192,0,0,0,3.40784,3.40784h0Zm0-6.01575a2.60785,2.60785,0,1,1-2.60785,2.60791,2.61039,2.61039,0,0,1,2.60785-2.60791h0Z" transform="translate(-24.33094 -19.55245)"/><circle class="7818139c-49f4-4e2c-8a0a-55a12240a34f" cx="1188.54837" cy="716.61867" r="3.00781" transform="translate(-175.66044 1058.89054) rotate(-46.19915)"/><path class="67dd6a7b-b123-4683-8737-d6347807e075" d="M1191.00794,718.97742a3.40782,3.40782,0,1,1-.10083-4.81836,3.41182,3.41182,0,0,1,.10083,4.81836C1189.70752,720.3335,1192.30847,717.62128,1191.00794,718.97742Zm-4.34168-4.16376a2.60779,2.60779,0,1,0,3.68713-.07721,2.61025,2.61025,0,0,0-3.68713.07721C1185.67065,715.85168,1187.66174,713.77557,1186.66626,714.81366Z" transform="translate(-24.33094 -19.55245)"/><polyline class="9ce7ac25-a9e3-4abd-9f2e-780950caf92f" points="1164.598 761.868 1134.878 792.859 1134.878 897.721 911.699 1130.44 911.699 1312.705"/><circle class="9845c2c5-cbf3-442b-9e90-d24f12026d06" cx="1188.82526" cy="781.52898" r="3.00778" transform="translate(-222.43099 1079.04313) rotate(-46.19792)"/><circle class="9845c2c5-cbf3-442b-9e90-d24f12026d06" cx="911.69921" cy="1312.55491" r="3.00781"/><polyline class="a05f6aea-809d-4557-8cac-76db90951e3c" points="874.781 1198.068 789.537 1286.956 875.127 1286.956 875.127 1374.461 949.412 1374.461 949.412 1159.462 1072.686 1030.919"/><rect class="56647b6a-7f6c-4755-afdd-ba0006266f5c" x="898.61206" y="1214.37012" width="0.99994" height="6.49999" transform="translate(-626.35276 1004.16471) rotate(-46.19699)"/><rect class="56647b6a-7f6c-4755-afdd-ba0006266f5c" x="1096.51653" y="1047.22164" width="1.00003" height="6.49995" transform="translate(-444.79348 1095.67387) rotate(-46.20183)"/><polyline class="9ce7ac25-a9e3-4abd-9f2e-780950caf92f" points="710.551 1350.686 818.404 1350.686 818.404 1371.603"/><circle class="9845c2c5-cbf3-442b-9e90-d24f12026d06" cx="710.70125" cy="1350.68559" r="3.00781"/><circle class="9845c2c5-cbf3-442b-9e90-d24f12026d06" cx="818.40439" cy="1371.45304" r="3.00783"/><polyline class="ad21cd7e-fbfc-4b6e-ae23-057625cdbde1" points="1023.489 1148.776 995.734 1177.718 995.734 1312.705"/><circle class="5caadc7f-d0d8-4e8e-bf84-7926ac8af1d5" cx="1047.71591" cy="1168.4371" r="3.0078" transform="translate(-545.11397 1096.30175) rotate(-46.19792)"/><circle class="5caadc7f-d0d8-4e8e-bf84-7926ac8af1d5" cx="995.73406" cy="1312.55491" r="3.00781"/><polyline class="ad21cd7e-fbfc-4b6e-ae23-057625cdbde1" points="1209.954 1347.828 1209.954 1266.961 1277.288 1266.961 1333.018 1325.074"/><circle class="5caadc7f-d0d8-4e8e-bf84-7926ac8af1d5" cx="1209.95446" cy="1347.67778" r="3.00781"/><circle class="5caadc7f-d0d8-4e8e-bf84-7926ac8af1d5" cx="1357.24451" cy="1344.51746" r="3.00785" transform="translate(-577.29081 1293.99567) rotate(-43.80127)"/><polyline class="9ce7ac25-a9e3-4abd-9f2e-780950caf92f" points="1659.482 1364.635 1675.402 1381.236 1749.88 1381.236 1885.22 1240.111 1885.22 1173.445 1953.958 1173.445 2305.922 806.435"/><circle class="9845c2c5-cbf3-442b-9e90-d24f12026d06" cx="1683.91672" cy="1384.29642" r="3.00781" transform="translate(-513.9284 1531.14171) rotate(-43.80043)"/><circle class="9845c2c5-cbf3-442b-9e90-d24f12026d06" cx="2330.14923" cy="826.09648" r="3.00783" transform="translate(96.7532 1916.52704) rotate(-46.19873)"/><polyline class="fa79ac2d-abb8-45d4-9067-438c1f9d0e25" points="2239.713 786.062 2322.411 699.83 2508.747 699.83"/><circle class="7818139c-49f4-4e2c-8a0a-55a12240a34f" cx="2264.16241" cy="805.49165" r="3.00783" transform="translate(91.3112 1862.55839) rotate(-46.19873)"/><path class="67dd6a7b-b123-4683-8737-d6347807e075" d="M2266.62207,807.8504a3.40784,3.40784,0,1,0-4.81836.10083,3.412,3.412,0,0,0,4.81836-.10083C2267.92261,806.49432,2265.32153,809.20654,2266.62207,807.8504Zm-4.3418-4.16376a2.60783,2.60783,0,1,1,.07715,3.68719,2.61038,2.61038,0,0,1-.07715-3.68719C2263.27564,802.64856,2261.28467,804.72473,2262.28027,803.68665Z" transform="translate(-24.33094 -19.55245)"/><circle class="7818139c-49f4-4e2c-8a0a-55a12240a34f" cx="2508.57677" cy="699.83" r="3.00781"/><path class="67dd6a7b-b123-4683-8737-d6347807e075" d="M2532.90771,722.79028a3.40784,3.40784,0,1,1,3.408-3.40784,3.41183,3.41183,0,0,1-3.408,3.40784h0Zm0-6.01562a2.60782,2.60782,0,1,0,2.60791,2.60779,2.61022,2.61022,0,0,0-2.60791-2.60779h0Z" transform="translate(-24.33094 -19.55245)"/><polyline class="ad21cd7e-fbfc-4b6e-ae23-057625cdbde1" points="2509.127 354.198 2386.672 354.198 2386.672 658.148 2266.153 658.148 2169.182 759.265 2169.182 839.618 1953.958 1064.043 1911.671 1064.043 1820.164 1159.462 1820.164 1242.275 1749.88 1315.563 1687.857 1315.563 1603.359 1227.453 1603.359 1077.331"/><circle class="5caadc7f-d0d8-4e8e-bf84-7926ac8af1d5" cx="2508.97692" cy="354.19851" r="3.00782"/><circle class="5caadc7f-d0d8-4e8e-bf84-7926ac8af1d5" cx="1603.35924" cy="1077.48161" r="3.00781"/><polyline class="a05f6aea-809d-4557-8cac-76db90951e3c" points="2253.61 85.872 2424.437 264.001 2511.485 264.001"/><rect class="56647b6a-7f6c-4755-afdd-ba0006266f5c" x="2274.69102" y="104.92422" width="6.50004" height="0.99999" transform="translate(536.52166 1586.45064) rotate(-43.80028)"/><rect class="56647b6a-7f6c-4755-afdd-ba0006266f5c" x="2510.98473" y="260.75117" width="1" height="6.5"/><polyline class="fa79ac2d-abb8-45d4-9067-438c1f9d0e25" points="2392.785 109.249 2392.785 147.794 2444.744 147.794 2444.744 216.538"/><circle class="7818139c-49f4-4e2c-8a0a-55a12240a34f" cx="2392.7846" cy="109.41958" r="3.00788"/><path class="67dd6a7b-b123-4683-8737-d6347807e075" d="M2413.70776,128.972a3.40784,3.40784,0,1,0,3.40771-3.40784,3.41195,3.41195,0,0,0-3.40771,3.40784h0Zm6.01563,0a2.60779,2.60779,0,1,1-2.60791-2.60785,2.61029,2.61029,0,0,1,2.60791,2.60785h0Z" transform="translate(-24.33094 -19.55245)"/><circle class="7818139c-49f4-4e2c-8a0a-55a12240a34f" cx="2444.74377" cy="216.36766" r="3.00781"/><path class="67dd6a7b-b123-4683-8737-d6347807e075" d="M2465.66675,235.92009a3.40784,3.40784,0,1,1,3.408,3.40784,3.412,3.412,0,0,1-3.408-3.40784h0Zm6.01563,0a2.60779,2.60779,0,1,0-2.60767,2.60785,2.61025,2.61025,0,0,0,2.60767-2.60785h0Z" transform="translate(-24.33094 -19.55245)"/><polyline class="fa79ac2d-abb8-45d4-9067-438c1f9d0e25" points="1845.488 1360.236 1993.792 1205.593 2056.747 1205.593 2172.775 1084.606 2113.184 1084.606 2421.717 762.884 2327.34 762.884"/><circle class="7818139c-49f4-4e2c-8a0a-55a12240a34f" cx="1869.9364" cy="1379.66592" r="3.0078" transform="translate(-444.455 1754.78206) rotate(-46.19873)"/><path class="67dd6a7b-b123-4683-8737-d6347807e075" d="M1872.396,1382.02466a3.40784,3.40784,0,1,0-4.81836.10083,3.41177,3.41177,0,0,0,4.81836-.10083C1873.69653,1380.66858,1871.09546,1383.38086,1872.396,1382.02466Zm-4.3418-4.16382a2.60785,2.60785,0,1,1,.07715,3.68726,2.61043,2.61043,0,0,1-.07715-3.68726C1869.04981,1376.82288,1867.05872,1378.899,1868.0542,1377.86084Z" transform="translate(-24.33094 -19.55245)"/><circle class="7818139c-49f4-4e2c-8a0a-55a12240a34f" cx="2327.51086" cy="762.88444" r="3.00781"/><path class="67dd6a7b-b123-4683-8737-d6347807e075" d="M2351.8418,779.02905a3.40784,3.40784,0,1,1-3.408,3.40784,3.41183,3.41183,0,0,1,3.408-3.40784h0Zm0,6.01563a2.60779,2.60779,0,1,0-2.60791-2.60779,2.61022,2.61022,0,0,0,2.60791,2.60779h0Z" transform="translate(-24.33094 -19.55245)"/><polyline class="ad21cd7e-fbfc-4b6e-ae23-057625cdbde1" points="2463.373 1323.707 2324.103 1323.707 2278.798 1276.466 2010.68 1276.466 1961.644 1327.598"/><circle class="5caadc7f-d0d8-4e8e-bf84-7926ac8af1d5" cx="2463.22301" cy="1323.70744" r="3.00781"/><circle class="5caadc7f-d0d8-4e8e-bf84-7926ac8af1d5" cx="1986.07947" cy="1347.04202" r="3.0078" transform="translate(-385.15529 1828.56475) rotate(-46.19873)"/><polyline class="a05f6aea-809d-4557-8cac-76db90951e3c" points="2113.53 1222.842 2206.914 1125.466 2285.043 1043.998 2237.473 1043.998 2480.076 791.025"/><rect class="56647b6a-7f6c-4755-afdd-ba0006266f5c" x="2137.36144" y="1239.14469" width="1.00003" height="6.50004" transform="translate(-262.86494 1906.02664) rotate(-46.20183)"/><rect class="56647b6a-7f6c-4755-afdd-ba0006266f5c" x="2503.9064" y="807.32726" width="1.00007" height="6.49995" transform="translate(161.61248 2037.54648) rotate(-46.19941)"/><polyline class="a05f6aea-809d-4557-8cac-76db90951e3c" points="2203.291 1231.138 2333.282 1231.138 2372.808 1272.354 2479.921 1272.354"/><rect class="56647b6a-7f6c-4755-afdd-ba0006266f5c" x="2202.79113" y="1227.88823" width="1" height="6.5"/><rect class="56647b6a-7f6c-4755-afdd-ba0006266f5c" x="2479.4215" y="1269.10368" width="1" height="6.5"/><polyline class="9ce7ac25-a9e3-4abd-9f2e-780950caf92f" points="2253.264 1149.571 2253.264 1183.787 2392.785 1183.787 2424.675 1217.04 2424.675 1075.206"/><circle class="9845c2c5-cbf3-442b-9e90-d24f12026d06" cx="2253.26403" cy="1149.7216" r="3.00781"/><circle class="9845c2c5-cbf3-442b-9e90-d24f12026d06" cx="2424.67467" cy="1075.35685" r="3.00781"/><polyline class="9ce7ac25-a9e3-4abd-9f2e-780950caf92f" points="2296.803 1183.787 2296.803 1092.805 2473.872 908.167"/><circle class="9845c2c5-cbf3-442b-9e90-d24f12026d06" cx="2498.09906" cy="927.82753" r="3.00785" transform="translate(75.03965 2069.0785) rotate(-46.19915)"/><line class="9ce7ac25-a9e3-4abd-9f2e-780950caf92f" x1="2356.49767" y1="1030.55827" x2="2356.49767" y2="1122.60929"/><circle class="9845c2c5-cbf3-442b-9e90-d24f12026d06" cx="2356.49767" cy="1122.45897" r="3.00781"/><polyline class="58322548-048b-451b-a281-16b1142debc4" points="109.888 460.077 64.21 412.447 64.21 342.091 64.21 259.27 4.285 259.27"/><circle class="7818139c-49f4-4e2c-8a0a-55a12240a34f" cx="4.45522" cy="259.26985" r="3.00781"/><path class="82ae3829-019c-40dd-97dd-b1557ff37789" d="M28.78618,275.41449a3.40781,3.40781,0,1,1-3.40784,3.40781,3.41188,3.41188,0,0,1,3.40784-3.40781h0Zm0,6.01563a2.60782,2.60782,0,1,0-2.60784-2.60782,2.61033,2.61033,0,0,0,2.60784,2.60782h0Z" transform="translate(-24.33094 -19.55245)"/><path class="1e1d6e04-e895-42ba-b84f-21ce05c35f71" d="M43.54679,1408.03342" transform="translate(-24.33094 -19.55245)"/><path class="1e1d6e04-e895-42ba-b84f-21ce05c35f71" d="M175.8672,1408.03342" transform="translate(-24.33094 -19.55245)"/></g><g class="3bc8174a-0905-4065-bad2-18c8abfd864c"><polyline class="fa79ac2d-abb8-45d4-9067-438c1f9d0e25" points="24.669 1388.448 129.856 1388.448 240.02 1388.448 125.928 1269.448 24.669 1269.448"/><circle class="7818139c-49f4-4e2c-8a0a-55a12240a34f" cx="24.5959" cy="1388.49833" r="3.00781"/><path class="67dd6a7b-b123-4683-8737-d6347807e075" d="M48.92685,1411.45862a3.40784,3.40784,0,1,0-3.40784-3.40784,3.4119,3.4119,0,0,0,3.40784,3.40784h0Zm0-6.01562a2.60779,2.60779,0,1,1-2.60784,2.60779,2.61035,2.61035,0,0,1,2.60784-2.60779h0Z" transform="translate(-24.33094 -19.55245)"/><circle class="7818139c-49f4-4e2c-8a0a-55a12240a34f" cx="24.59589" cy="1269.52861" r="3.00781"/><path class="67dd6a7b-b123-4683-8737-d6347807e075" d="M48.92685,1285.67322a3.40778,3.40778,0,1,1-3.40784,3.40784,3.4119,3.4119,0,0,1,3.40784-3.40784h0Zm0,6.01563a2.60785,2.60785,0,1,0-2.60784-2.60779,2.61035,2.61035,0,0,0,2.60784,2.60779h0Z" transform="translate(-24.33094 -19.55245)"/></g></svg>